<svg width="466" height="466" viewBox="0 0 466 466" fill="none" xmlns="http://www.w3.org/2000/svg">
<g clip-path="url(#clip0_344_16284)">
<g filter="url(#filter0_f_344_16284)">
<path d="M233.803 387.115C317.588 387.115 385.509 318.475 385.509 233.803C385.509 149.131 317.588 80.491 233.803 80.491C150.018 80.491 82.0963 149.131 82.0963 233.803C82.0963 318.475 150.018 387.115 233.803 387.115Z" fill="url(#paint0_radial_344_16284)" fill-opacity="0.6"/>
</g>
<g opacity="0.3">
<path fill-rule="evenodd" clip-rule="evenodd" d="M179.071 306.591C223.041 306.591 258.686 261.727 258.686 206.384C258.686 151.041 223.041 106.177 179.071 106.177C135.102 106.177 111.855 153.146 99.4569 206.384C93.6726 231.222 85.4269 278.248 99.4569 296.314C113.912 314.927 156.758 306.591 179.071 306.591Z" fill="url(#paint1_linear_344_16284)"/>
<path fill-rule="evenodd" clip-rule="evenodd" d="M179.071 306.591C223.041 306.591 258.686 261.727 258.686 206.384C258.686 151.041 223.041 106.177 179.071 106.177C135.102 106.177 111.855 153.146 99.4569 206.384C93.6726 231.222 85.4269 278.248 99.4569 296.314C113.912 314.927 156.758 306.591 179.071 306.591Z" fill="url(#paint2_linear_344_16284)"/>
<path fill-rule="evenodd" clip-rule="evenodd" d="M286.897 326.111C330.849 326.111 377.805 311.551 368.191 259.308C358.576 207.064 335.983 131.862 292.031 131.862C248.079 131.862 207.314 170.565 207.314 225.906C207.314 281.248 242.945 326.111 286.897 326.111Z" fill="url(#paint3_linear_344_16284)"/>
<path fill-rule="evenodd" clip-rule="evenodd" d="M286.897 326.111C330.849 326.111 377.805 311.551 368.191 259.308C358.576 207.064 335.983 131.862 292.031 131.862C248.079 131.862 207.314 170.565 207.314 225.906C207.314 281.248 242.945 326.111 286.897 326.111Z" fill="url(#paint4_linear_344_16284)"/>
</g>
<g filter="url(#filter1_f_344_16284)">
<path d="M231.328 367.895C344.31 367.895 435.9 343.188 435.9 312.711C435.9 282.233 344.31 257.526 231.328 257.526C118.346 257.526 26.756 282.233 26.756 312.711C26.756 343.188 118.346 367.895 231.328 367.895Z" fill="url(#paint5_linear_344_16284)"/>
</g>
<g filter="url(#filter2_i_344_16284)">
<path d="M125.304 171.502C120.016 171.502 116 167.752 116 162.751C116 158.526 120.548 156.076 124.733 155.176C125.808 150.651 128.585 146.425 133.874 146.425C135.429 146.425 136.984 146.725 138.398 147.275C141.029 143.375 145.752 141 150.955 141C159.072 141 163.962 149.48 163.962 153.905C163.962 154.28 165.661 154.801 165.633 155.176C168.659 156.726 170.582 159.626 170.582 162.751C170.582 167.577 166.142 171.502 160.712 171.502H125.304Z" fill="white"/>
</g>
<g filter="url(#filter3_f_344_16284)">
<ellipse cx="228" cy="304" rx="66" ry="3" fill="url(#paint6_linear_344_16284)"/>
</g>
<g opacity="0.5" filter="url(#filter4_f_344_16284)">
<ellipse cx="228" cy="304" rx="66" ry="3" fill="url(#paint7_linear_344_16284)"/>
</g>
<g filter="url(#filter5_f_344_16284)">
<ellipse rx="66" ry="3" transform="matrix(-1 0 0 1 237 305)" fill="url(#paint8_linear_344_16284)"/>
</g>
<g opacity="0.5" filter="url(#filter6_f_344_16284)">
<ellipse rx="66" ry="3" transform="matrix(-1 0 0 1 237 305)" fill="url(#paint9_linear_344_16284)"/>
</g>
<path d="M197.939 269.169H267.81V286.654H197.939V269.169Z" fill="url(#paint10_linear_344_16284)"/>
<path d="M180.468 295.398C180.451 296.557 180.664 297.707 181.096 298.783C181.527 299.858 182.168 300.837 182.981 301.663C183.793 302.488 184.762 303.144 185.83 303.591C186.898 304.039 188.044 304.269 189.202 304.269C190.36 304.269 191.506 304.039 192.574 303.591C193.643 303.144 194.611 302.488 195.424 301.663C196.237 300.837 196.877 299.858 197.309 298.783C197.74 297.707 197.954 296.557 197.937 295.398V186.115H180.468V295.4V295.398Z" fill="url(#paint11_linear_344_16284)"/>
<path d="M267.81 186.115V295.396C267.794 296.555 268.007 297.705 268.438 298.781C268.87 299.856 269.511 300.835 270.323 301.661C271.136 302.486 272.105 303.142 273.173 303.589C274.241 304.037 275.387 304.267 276.545 304.267C277.703 304.267 278.849 304.037 279.917 303.589C280.985 303.142 281.954 302.486 282.767 301.661C283.579 300.835 284.22 299.856 284.652 298.781C285.083 297.705 285.296 296.555 285.28 295.396V186.115H267.81Z" fill="url(#paint12_linear_344_16284)"/>
<path fill-rule="evenodd" clip-rule="evenodd" d="M180.468 241.29H197.935V248.885H180.468V241.29Z" fill="url(#paint13_linear_344_16284)"/>
<path fill-rule="evenodd" clip-rule="evenodd" d="M268.004 240.888H285.471V248.483H268.004V240.888Z" fill="url(#paint14_linear_344_16284)"/>
<path d="M294.983 207.97H170.764C169.739 207.975 168.725 208.183 167.779 208.581C166.834 208.979 165.976 209.56 165.255 210.29C164.534 211.02 163.964 211.885 163.577 212.835C163.19 213.786 162.994 214.804 163 215.83V235.04C162.994 236.067 163.19 237.084 163.577 238.035C163.964 238.986 164.534 239.851 165.255 240.581C165.976 241.311 166.834 241.891 167.779 242.289C168.725 242.687 169.739 242.895 170.764 242.901H294.979C296.004 242.895 297.018 242.687 297.963 242.288C298.908 241.89 299.765 241.309 300.486 240.579C301.207 239.849 301.776 238.985 302.163 238.034C302.55 237.084 302.746 236.066 302.74 235.04V215.83C302.746 214.804 302.55 213.787 302.163 212.836C301.776 211.886 301.207 211.021 300.486 210.291C299.765 209.561 298.908 208.98 297.963 208.582C297.018 208.184 296.004 207.976 294.979 207.97H294.983Z" fill="#DCEAFF"/>
<path d="M294.981 210.193H170.764C169.739 210.198 168.725 210.406 167.779 210.804C166.834 211.202 165.976 211.783 165.255 212.513C164.534 213.243 163.964 214.108 163.577 215.058C163.19 216.009 162.994 217.027 163 218.053V237.263C162.994 238.29 163.19 239.307 163.577 240.258C163.964 241.209 164.534 242.074 165.255 242.804C165.976 243.534 166.834 244.114 167.779 244.512C168.725 244.91 169.739 245.118 170.764 245.124H294.979C296.004 245.118 297.018 244.909 297.963 244.511C298.908 244.113 299.765 243.532 300.486 242.802C301.207 242.072 301.776 241.207 302.163 240.257C302.55 239.307 302.746 238.289 302.74 237.263V218.053C302.752 215.981 301.942 213.989 300.487 212.515C299.032 211.041 297.051 210.205 294.981 210.193Z" fill="#CEE2FF"/>
<path d="M184.839 207.97L163.004 229.827V235.129C163.015 237.186 163.836 239.155 165.289 240.609C166.742 242.064 168.71 242.886 170.764 242.897H176.148L211.04 207.97H184.839ZM294.981 207.97H289.636L254.753 242.897H280.954L302.745 221.086V215.829C302.756 213.756 301.944 211.765 300.488 210.291C299.032 208.818 297.051 207.984 294.981 207.972V207.97ZM237.241 207.97L202.307 242.941H228.508L263.435 207.973H237.241V207.97Z" fill="#F2F8FF"/>
<g style="mix-blend-mode:multiply" opacity="0.8">
<path d="M238.606 231.608C240.159 230.093 241.019 228.065 241 225.96C240.98 223.855 240.083 221.841 238.502 220.352C236.92 218.864 234.781 218.019 232.544 218C230.307 217.982 228.152 218.79 226.543 220.252C226.514 220.272 226.488 220.294 226.464 220.318C226.439 220.342 226.42 220.368 226.394 220.392C224.841 221.907 223.981 223.935 224 226.04C224.02 228.145 224.917 230.159 226.498 231.648C228.08 233.136 230.219 233.981 232.456 234C234.693 234.018 236.848 233.21 238.457 231.748C238.486 231.728 238.512 231.706 238.536 231.682C238.561 231.658 238.58 231.632 238.606 231.608ZM238.922 226.001C238.924 227.263 238.504 228.493 237.719 229.516L228.77 221.087C229.729 220.439 230.859 220.053 232.036 219.971C233.214 219.889 234.392 220.115 235.442 220.623C236.491 221.131 237.372 221.902 237.986 222.851C238.6 223.8 238.924 224.89 238.922 226.001V226.001ZM226.076 226.001C226.074 224.741 226.495 223.512 227.279 222.49L236.235 230.913C235.275 231.56 234.145 231.946 232.967 232.027C231.79 232.109 230.612 231.884 229.562 231.376C228.512 230.868 227.631 230.098 227.016 229.15C226.401 228.201 226.076 227.112 226.076 226.001V226.001Z" fill="#E1765E" fill-opacity="0.67"/>
</g>
<path d="M189.205 173C186.614 173 184.081 173.769 181.927 175.21C179.773 176.651 178.094 178.699 177.102 181.095C176.111 183.491 175.852 186.127 176.357 188.671C176.862 191.215 178.11 193.551 179.942 195.385C181.774 197.219 184.108 198.468 186.649 198.974C189.19 199.479 191.824 199.22 194.218 198.227C196.612 197.235 198.658 195.554 200.097 193.398C201.536 191.241 202.305 188.706 202.305 186.113C202.305 182.635 200.925 179.3 198.468 176.841C196.011 174.382 192.679 173 189.205 173Z" fill="url(#paint15_radial_344_16284)"/>
<path d="M276.539 173C273.948 173 271.415 173.769 269.261 175.21C267.107 176.651 265.428 178.699 264.436 181.095C263.445 183.491 263.185 186.127 263.691 188.671C264.196 191.215 265.444 193.551 267.276 195.385C269.108 197.219 271.442 198.468 273.983 198.974C276.524 199.479 279.158 199.22 281.552 198.227C283.945 197.235 285.991 195.554 287.431 193.398C288.87 191.241 289.638 188.706 289.638 186.113C289.638 182.635 288.258 179.3 285.801 176.841C283.345 174.382 280.013 173 276.539 173Z" fill="url(#paint16_radial_344_16284)"/>
<g opacity="0.6" filter="url(#filter7_f_344_16284)">
<path fill-rule="evenodd" clip-rule="evenodd" d="M166.384 318.188L166.354 319.952L114.296 319.028L114.326 317.264L166.384 318.188Z" fill="url(#paint17_linear_344_16284)"/>
</g>
<path d="M117.448 302.87H114.238V318.923H117.448V302.87Z" fill="url(#paint18_linear_344_16284)"/>
<path fill-rule="evenodd" clip-rule="evenodd" d="M115.843 282V306.08L123.87 300.361L115.843 282Z" fill="#F2883B"/>
<path fill-rule="evenodd" clip-rule="evenodd" d="M115.843 282L115.843 306.08L103 300.412L115.843 282Z" fill="#FFCA9E"/>
<g opacity="0.5" filter="url(#filter8_f_344_16284)">
<ellipse rx="31.5" ry="4.5" transform="matrix(-1 0 0 1 315.5 314.5)" fill="url(#paint19_linear_344_16284)"/>
</g>
<g opacity="0.5" filter="url(#filter9_f_344_16284)">
<ellipse rx="17.5" ry="2.5" transform="matrix(-1 0 0 1 318.5 313.5)" fill="url(#paint20_linear_344_16284)"/>
</g>
<g filter="url(#filter10_i_344_16284)">
<path fill-rule="evenodd" clip-rule="evenodd" d="M314.849 301.505L327.017 298.303L325.585 310.167L325.534 310.167C325.462 311.283 324.939 312.621 324.521 312.901C323.968 313.271 317.699 313.457 317.146 312.901C316.656 312.408 316.167 311.19 316.061 309.888L314.849 301.505Z" fill="url(#paint21_linear_344_16284)"/>
<path fill-rule="evenodd" clip-rule="evenodd" d="M314.849 301.505L327.017 298.303L325.585 310.167L325.534 310.167C325.462 311.283 324.939 312.621 324.521 312.901C323.968 313.271 317.699 313.457 317.146 312.901C316.656 312.408 316.167 311.19 316.061 309.888L314.849 301.505Z" fill="#B3521C" fill-opacity="0.36"/>
</g>
<g filter="url(#filter11_i_344_16284)">
<path fill-rule="evenodd" clip-rule="evenodd" d="M307.105 302.617L319.273 299.416L317.842 311.279L317.79 311.279C317.718 312.396 317.195 313.733 316.777 314.013C316.224 314.384 309.956 314.569 309.403 314.013C308.913 313.521 308.423 312.302 308.317 311L307.105 302.617Z" fill="url(#paint22_linear_344_16284)"/>
</g>
<g filter="url(#filter12_ii_344_16284)">
<ellipse cx="316.508" cy="291.631" rx="15.3028" ry="15.5703" fill="url(#paint23_radial_344_16284)"/>
</g>
<mask id="mask0_344_16284" style="mask-type:alpha" maskUnits="userSpaceOnUse" x="301" y="276" width="31" height="32">
<ellipse cx="316.508" cy="291.631" rx="15.3028" ry="15.5703" fill="url(#paint24_radial_344_16284)"/>
</mask>
<g mask="url(#mask0_344_16284)">
<rect x="301.205" y="292.372" width="28.3931" height="8.52657" fill="url(#paint25_radial_344_16284)"/>
<rect x="301.205" y="292.372" width="28.3931" height="8.52657" fill="url(#paint26_linear_344_16284)" fill-opacity="0.6"/>
</g>
<g filter="url(#filter13_i_344_16284)">
<path d="M330.157 271.687C327.155 267.655 312.231 267.653 307.161 269.337C302.092 271.02 299.726 270.205 298.205 278.436C297.26 283.547 297.208 286.241 299.726 291.716C302.244 297.191 322.531 303.308 325.911 303.123C329.29 302.937 332.191 297.962 332.678 291.716C333.166 285.47 333.159 275.719 330.157 271.687Z" fill="url(#paint27_linear_344_16284)"/>
</g>
<path d="M296.762 280.763C297.944 280.163 299.53 280.306 300.593 280.487C301.656 280.667 301.792 285.028 301.113 285.334C300.435 285.64 297.456 285.597 296.549 285.149C295.642 284.7 295.579 281.362 296.762 280.763Z" fill="url(#paint28_linear_344_16284)"/>
<g filter="url(#filter14_ii_344_16284)">
<path d="M313.823 192.198C318.861 190.011 325.64 189.356 334.522 183.661C335.61 186.639 335.501 188.571 333.899 192.197C332.298 195.822 332.043 197.138 332.378 199.593C332.378 199.593 342.326 196.527 344.292 198.15C344.36 199.26 341.956 202.158 343.354 206.9C344.753 211.642 348.934 216.583 351.366 223.118C353.798 229.654 353.26 238.972 353.05 241.585C355.879 242.525 359.248 243.245 361.144 244.056C361.224 245.351 354.995 252.236 352.303 253.517C353.659 254.547 356.889 256.019 358.223 256.679C357.829 259.304 349.851 267.783 337.3 270.973C334.869 271.591 306.662 273.383 298.231 272.461C294.249 272.026 288.913 269.798 284.425 267.214L290.099 259.912L288.325 252.46L285.414 246.554L278.326 246.022C276.814 239.43 277.54 226.632 281.457 218.714C289.512 202.431 302.846 196.963 313.823 192.198Z" fill="url(#paint29_radial_344_16284)"/>
<path d="M313.823 192.198C318.861 190.011 325.64 189.356 334.522 183.661C335.61 186.639 335.501 188.571 333.899 192.197C332.298 195.822 332.043 197.138 332.378 199.593C332.378 199.593 342.326 196.527 344.292 198.15C344.36 199.26 341.956 202.158 343.354 206.9C344.753 211.642 348.934 216.583 351.366 223.118C353.798 229.654 353.26 238.972 353.05 241.585C355.879 242.525 359.248 243.245 361.144 244.056C361.224 245.351 354.995 252.236 352.303 253.517C353.659 254.547 356.889 256.019 358.223 256.679C357.829 259.304 349.851 267.783 337.3 270.973C334.869 271.591 306.662 273.383 298.231 272.461C294.249 272.026 288.913 269.798 284.425 267.214L290.099 259.912L288.325 252.46L285.414 246.554L278.326 246.022C276.814 239.43 277.54 226.632 281.457 218.714C289.512 202.431 302.846 196.963 313.823 192.198Z" fill="url(#paint30_linear_344_16284)" fill-opacity="0.3"/>
</g>
<g filter="url(#filter15_d_344_16284)">
<path d="M272.599 268.284C270.885 267.588 266.274 263.678 266.274 263.678L274.006 264.182L282.476 262.992L288.115 263.836L294.102 264.305L301.229 269.23L291.501 269.518L286.851 269.596C286.851 269.596 274.313 268.981 272.599 268.284Z" fill="url(#paint31_linear_344_16284)"/>
</g>
<path d="M270.309 247.791C275.01 243.133 288.033 240.431 289.693 242.027C291.353 243.623 291.27 244.127 291.829 246.049L292.787 260.837C293.656 263.4 294.881 264.457 294.881 264.457C294.881 264.457 288.988 264.025 284.916 263.783C280.843 263.541 276.653 264.206 275.461 264.367C274.27 264.529 272.135 264.564 271.216 264.561C269.861 264.749 268.894 263.887 267.053 265.572C265.212 267.257 263.682 272.043 263.386 274.494C261.655 271.613 262.104 266.101 262.572 262.052C263.158 256.991 266.746 251.322 270.309 247.791Z" fill="url(#paint32_radial_344_16284)"/>
<path d="M311.855 247.295C305.249 247.704 299.564 242.651 299.158 236.009C299.158 236.009 304.197 233.053 306.224 230.744C308.256 228.43 313.877 225.999 314.429 225.965L318.675 225.917C321.185 227.968 322.866 231.028 323.081 234.53C323.487 241.171 318.461 246.887 311.855 247.295Z" fill="white"/>
<path fill-rule="evenodd" clip-rule="evenodd" d="M298.042 234.089L296.866 234.779L296.95 236.146C297.431 244.014 304.165 249.999 311.991 249.515C319.817 249.031 325.771 242.261 325.289 234.393C325.035 230.245 323.04 226.617 320.07 224.191L319.449 223.684L314.349 223.741L314.293 223.745C314.007 223.763 313.76 223.832 313.672 223.857C313.538 223.894 313.4 223.94 313.269 223.986C313.003 224.08 312.687 224.205 312.343 224.35C311.651 224.642 310.779 225.047 309.863 225.525C308.122 226.433 305.878 227.777 304.566 229.272C303.757 230.193 302.205 231.372 300.692 232.4C299.966 232.892 299.299 233.318 298.814 233.619C298.571 233.77 298.375 233.889 298.242 233.97C298.175 234.01 298.123 234.041 298.09 234.061L298.052 234.083L298.043 234.088L298.042 234.089ZM299.158 236.009C299.564 242.651 305.249 247.704 311.855 247.295C318.461 246.887 323.487 241.171 323.081 234.53C322.866 231.028 321.185 227.968 318.675 225.917L314.429 225.965C313.877 225.999 308.256 228.43 306.224 230.744C304.197 233.053 299.158 236.009 299.158 236.009Z" fill="#AB4D0F"/>
<path d="M308.864 243.036C309.275 243.868 310.34 244.177 311.244 243.726C312.147 243.274 312.547 242.234 312.136 241.402C311.725 240.57 310.659 240.261 309.755 240.712C308.852 241.164 308.453 242.204 308.864 243.036Z" fill="white"/>
<mask id="mask1_344_16284" style="mask-type:alpha" maskUnits="userSpaceOnUse" x="299" y="224" width="25" height="24">
<path d="M299.657 235.979C300.047 242.347 305.497 247.188 311.825 246.796C318.153 246.405 322.971 240.929 322.582 234.56C322.332 230.479 320.004 227.024 316.695 225.172C316.592 225.114 316.5 225.062 316.419 225.015C316.277 225.124 316.098 225.195 315.901 225.244C315.702 225.293 315.455 225.328 315.149 225.348C315.143 225.349 315.119 225.355 315.069 225.371C314.996 225.394 314.896 225.429 314.77 225.477C314.519 225.573 314.182 225.712 313.782 225.886C312.982 226.234 311.943 226.718 310.858 227.262C309.772 227.807 308.647 228.411 307.673 229C306.689 229.595 305.893 230.155 305.44 230.61C304.538 231.516 303.44 232.39 302.453 233.176C302.129 233.433 301.817 233.682 301.528 233.918C300.931 234.408 300.435 234.844 300.095 235.227C299.925 235.418 299.808 235.582 299.737 235.718C299.665 235.856 299.654 235.938 299.657 235.979Z" fill="white" stroke="black"/>
</mask>
<g mask="url(#mask1_344_16284)">
<path d="M300.432 238.716C300.732 243.621 303.859 247.419 307.416 247.198C310.973 246.978 313.614 242.824 313.313 237.92C313.013 233.015 309.886 229.217 306.329 229.437C302.772 229.658 300.132 233.812 300.432 238.716Z" fill="#72B9FA"/>
<path d="M302.272 238.602C302.435 241.259 304.132 243.316 306.063 243.196C307.994 243.077 309.427 240.827 309.265 238.17C309.102 235.513 307.405 233.456 305.474 233.576C303.543 233.695 302.109 235.946 302.272 238.602Z" fill="#003468"/>
<path d="M306.826 241.389C307.095 241.934 307.793 242.137 308.385 241.841C308.977 241.546 309.239 240.864 308.969 240.319C308.7 239.774 308.002 239.572 307.41 239.868C306.819 240.163 306.557 240.844 306.826 241.389Z" fill="white"/>
<g style="mix-blend-mode:multiply" filter="url(#filter16_f_344_16284)">
<path d="M325.252 236.81C325.189 235.774 319.332 233.647 319.332 233.647C319.332 233.647 313.234 236.625 309.449 238.159C305.664 239.693 299.99 243.572 299.99 243.572L298.569 238.46C298.763 235.601 299.145 229.77 299.118 229.326C299.084 228.771 303.897 222.902 304.806 222.66C305.533 222.467 310.975 221.845 313.605 221.559L323.217 224.679C326.906 227.608 325.316 237.846 325.252 236.81Z" fill="url(#paint33_linear_344_16284)"/>
</g>
</g>
<g filter="url(#filter17_d_344_16284)">
<path d="M323.993 219.245C323.359 218.314 321.914 214.602 320.754 214.181C319.593 213.76 310.697 222.845 310.061 224.007C309.424 225.168 297.301 233.896 296.573 235.055C295.845 236.214 296.08 237.998 297.074 238.181C298.069 238.364 325.009 226.796 325.5 224.76C325.99 222.724 324.626 220.176 323.993 219.245Z" fill="url(#paint34_linear_344_16284)"/>
</g>
<g opacity="0.8" filter="url(#filter18_f_344_16284)">
<ellipse rx="4.98169" ry="10.0513" transform="matrix(-0.702021 -0.7117 -0.708394 0.706279 306.102 208.149)" fill="#FDCE4E"/>
</g>
<g filter="url(#filter19_d_344_16284)">
<path d="M305.66 275.82C305.429 276.365 305.749 278.336 305.291 279.026C304.554 280.138 302.157 279.495 300.867 278.47C299.576 277.445 298.918 276.616 298.654 275.82L298.285 274.354L299.312 273.308C299.658 272.884 300.927 271.966 302.589 271.093C304.666 270.002 306.237 273.223 306.352 274.132C306.468 275.041 305.891 275.275 305.66 275.82Z" fill="url(#paint35_linear_344_16284)"/>
<path d="M305.63 266.422C304.512 265.747 299.914 267.719 299.53 270.012L298.624 272.512L299.53 274.408C299.83 274.835 301.112 275.69 302.631 275.69C304.831 275.69 306.083 273.427 306.183 272.512C306.283 271.596 306.921 269.202 306.921 268.646C306.921 267.727 306.579 266.994 305.63 266.422Z" fill="url(#paint36_linear_344_16284)"/>
<path d="M298.28 269.318C298.585 269.032 299.586 269.262 299.716 269.426C299.846 269.591 299.417 270.763 299.361 272.457C299.305 274.151 299.437 275.792 299.564 276.209C299.691 276.625 298.682 276.605 298.117 276.563C297.552 276.52 297.243 276.44 296.881 276.006C296.518 275.572 296.452 273.235 296.476 271.488C296.491 270.46 296.771 269.735 296.971 269.508C297.451 268.962 297.974 269.604 298.28 269.318Z" fill="url(#paint37_linear_344_16284)"/>
</g>
<path d="M290.198 268.544C291.485 268.857 292.601 269.998 293.295 270.828C293.989 271.657 291.285 275.069 290.571 274.861C289.857 274.653 287.614 272.681 287.211 271.749C286.809 270.816 288.91 268.232 290.198 268.544Z" fill="url(#paint38_linear_344_16284)"/>
<g filter="url(#filter20_d_344_16284)">
<path d="M292.854 270.862C293.348 270.817 295.294 271.932 300.503 273.08C305.711 274.229 308.76 275.409 309.262 276.224C310.347 277.986 312.449 282.333 311.79 284.339C311.131 286.346 300.703 282.048 297.017 280.091C293.395 278.167 290.904 275.627 290.629 275.025C290.075 273.81 291.936 270.946 292.854 270.862Z" fill="url(#paint39_linear_344_16284)"/>
</g>
<g opacity="0.6" filter="url(#filter21_f_344_16284)">
<path fill-rule="evenodd" clip-rule="evenodd" d="M293.53 351.15L293.486 353.742L217.49 352.385L217.535 349.794L293.53 351.15Z" fill="url(#paint40_linear_344_16284)"/>
</g>
<path d="M222.092 328.652H217.405V352.23H222.092V328.652Z" fill="url(#paint41_linear_344_16284)"/>
<path fill-rule="evenodd" clip-rule="evenodd" d="M219.748 298V333.368L231.466 324.967L219.748 298Z" fill="#F2883B"/>
<path fill-rule="evenodd" clip-rule="evenodd" d="M219.748 298L219.748 333.368L201 325.042L219.748 298Z" fill="#FFCA9E"/>
</g>
<defs>
<filter id="filter0_f_344_16284" x="34.0963" y="32.491" width="399.413" height="402.624" filterUnits="userSpaceOnUse" color-interpolation-filters="sRGB">
<feFlood flood-opacity="0" result="BackgroundImageFix"/>
<feBlend mode="normal" in="SourceGraphic" in2="BackgroundImageFix" result="shape"/>
<feGaussianBlur stdDeviation="24" result="effect1_foregroundBlur_344_16284"/>
</filter>
<filter id="filter1_f_344_16284" x="-3.24402" y="227.526" width="469.144" height="170.368" filterUnits="userSpaceOnUse" color-interpolation-filters="sRGB">
<feFlood flood-opacity="0" result="BackgroundImageFix"/>
<feBlend mode="normal" in="SourceGraphic" in2="BackgroundImageFix" result="shape"/>
<feGaussianBlur stdDeviation="15" result="effect1_foregroundBlur_344_16284"/>
</filter>
<filter id="filter2_i_344_16284" x="116" y="140" width="54.5822" height="31.5017" filterUnits="userSpaceOnUse" color-interpolation-filters="sRGB">
<feFlood flood-opacity="0" result="BackgroundImageFix"/>
<feBlend mode="normal" in="SourceGraphic" in2="BackgroundImageFix" result="shape"/>
<feColorMatrix in="SourceAlpha" type="matrix" values="0 0 0 0 0 0 0 0 0 0 0 0 0 0 0 0 0 0 127 0" result="hardAlpha"/>
<feOffset dy="-1"/>
<feGaussianBlur stdDeviation="2"/>
<feComposite in2="hardAlpha" operator="arithmetic" k2="-1" k3="1"/>
<feColorMatrix type="matrix" values="0 0 0 0 0.894118 0 0 0 0 0.941176 0 0 0 0 0.996078 0 0 0 1 0"/>
<feBlend mode="normal" in2="shape" result="effect1_innerShadow_344_16284"/>
</filter>
<filter id="filter3_f_344_16284" x="158" y="297" width="140" height="14" filterUnits="userSpaceOnUse" color-interpolation-filters="sRGB">
<feFlood flood-opacity="0" result="BackgroundImageFix"/>
<feBlend mode="normal" in="SourceGraphic" in2="BackgroundImageFix" result="shape"/>
<feGaussianBlur stdDeviation="2" result="effect1_foregroundBlur_344_16284"/>
</filter>
<filter id="filter4_f_344_16284" x="158" y="297" width="140" height="14" filterUnits="userSpaceOnUse" color-interpolation-filters="sRGB">
<feFlood flood-opacity="0" result="BackgroundImageFix"/>
<feBlend mode="normal" in="SourceGraphic" in2="BackgroundImageFix" result="shape"/>
<feGaussianBlur stdDeviation="2" result="effect1_foregroundBlur_344_16284"/>
</filter>
<filter id="filter5_f_344_16284" x="167" y="298" width="140" height="14" filterUnits="userSpaceOnUse" color-interpolation-filters="sRGB">
<feFlood flood-opacity="0" result="BackgroundImageFix"/>
<feBlend mode="normal" in="SourceGraphic" in2="BackgroundImageFix" result="shape"/>
<feGaussianBlur stdDeviation="2" result="effect1_foregroundBlur_344_16284"/>
</filter>
<filter id="filter6_f_344_16284" x="167" y="298" width="140" height="14" filterUnits="userSpaceOnUse" color-interpolation-filters="sRGB">
<feFlood flood-opacity="0" result="BackgroundImageFix"/>
<feBlend mode="normal" in="SourceGraphic" in2="BackgroundImageFix" result="shape"/>
<feGaussianBlur stdDeviation="2" result="effect1_foregroundBlur_344_16284"/>
</filter>
<filter id="filter7_f_344_16284" x="113.296" y="316.264" width="54.0881" height="4.68823" filterUnits="userSpaceOnUse" color-interpolation-filters="sRGB">
<feFlood flood-opacity="0" result="BackgroundImageFix"/>
<feBlend mode="normal" in="SourceGraphic" in2="BackgroundImageFix" result="shape"/>
<feGaussianBlur stdDeviation="0.5" result="effect1_foregroundBlur_344_16284"/>
</filter>
<filter id="filter8_f_344_16284" x="282" y="308" width="67" height="13" filterUnits="userSpaceOnUse" color-interpolation-filters="sRGB">
<feFlood flood-opacity="0" result="BackgroundImageFix"/>
<feBlend mode="normal" in="SourceGraphic" in2="BackgroundImageFix" result="shape"/>
<feGaussianBlur stdDeviation="1" result="effect1_foregroundBlur_344_16284"/>
</filter>
<filter id="filter9_f_344_16284" x="298" y="308" width="41" height="11" filterUnits="userSpaceOnUse" color-interpolation-filters="sRGB">
<feFlood flood-opacity="0" result="BackgroundImageFix"/>
<feBlend mode="normal" in="SourceGraphic" in2="BackgroundImageFix" result="shape"/>
<feGaussianBlur stdDeviation="1.5" result="effect1_foregroundBlur_344_16284"/>
</filter>
<filter id="filter10_i_344_16284" x="314.849" y="298.303" width="12.1685" height="14.948" filterUnits="userSpaceOnUse" color-interpolation-filters="sRGB">
<feFlood flood-opacity="0" result="BackgroundImageFix"/>
<feBlend mode="normal" in="SourceGraphic" in2="BackgroundImageFix" result="shape"/>
<feColorMatrix in="SourceAlpha" type="matrix" values="0 0 0 0 0 0 0 0 0 0 0 0 0 0 0 0 0 0 127 0" result="hardAlpha"/>
<feOffset/>
<feGaussianBlur stdDeviation="2"/>
<feComposite in2="hardAlpha" operator="arithmetic" k2="-1" k3="1"/>
<feColorMatrix type="matrix" values="0 0 0 0 1 0 0 0 0 1 0 0 0 0 1 0 0 0 0.25 0"/>
<feBlend mode="normal" in2="shape" result="effect1_innerShadow_344_16284"/>
</filter>
<filter id="filter11_i_344_16284" x="307.105" y="299.416" width="12.1685" height="14.948" filterUnits="userSpaceOnUse" color-interpolation-filters="sRGB">
<feFlood flood-opacity="0" result="BackgroundImageFix"/>
<feBlend mode="normal" in="SourceGraphic" in2="BackgroundImageFix" result="shape"/>
<feColorMatrix in="SourceAlpha" type="matrix" values="0 0 0 0 0 0 0 0 0 0 0 0 0 0 0 0 0 0 127 0" result="hardAlpha"/>
<feOffset/>
<feGaussianBlur stdDeviation="2"/>
<feComposite in2="hardAlpha" operator="arithmetic" k2="-1" k3="1"/>
<feColorMatrix type="matrix" values="0 0 0 0 1 0 0 0 0 1 0 0 0 0 1 0 0 0 0.57 0"/>
<feBlend mode="normal" in2="shape" result="effect1_innerShadow_344_16284"/>
</filter>
<filter id="filter12_ii_344_16284" x="293.205" y="276.06" width="38.6056" height="31.1406" filterUnits="userSpaceOnUse" color-interpolation-filters="sRGB">
<feFlood flood-opacity="0" result="BackgroundImageFix"/>
<feBlend mode="normal" in="SourceGraphic" in2="BackgroundImageFix" result="shape"/>
<feColorMatrix in="SourceAlpha" type="matrix" values="0 0 0 0 0 0 0 0 0 0 0 0 0 0 0 0 0 0 127 0" result="hardAlpha"/>
<feOffset dx="-8"/>
<feGaussianBlur stdDeviation="8"/>
<feComposite in2="hardAlpha" operator="arithmetic" k2="-1" k3="1"/>
<feColorMatrix type="matrix" values="0 0 0 0 0.758333 0 0 0 0 0.411719 0 0 0 0 0.0884722 0 0 0 1 0"/>
<feBlend mode="normal" in2="shape" result="effect1_innerShadow_344_16284"/>
<feColorMatrix in="SourceAlpha" type="matrix" values="0 0 0 0 0 0 0 0 0 0 0 0 0 0 0 0 0 0 127 0" result="hardAlpha"/>
<feOffset/>
<feGaussianBlur stdDeviation="2"/>
<feComposite in2="hardAlpha" operator="arithmetic" k2="-1" k3="1"/>
<feColorMatrix type="matrix" values="0 0 0 0 1 0 0 0 0 1 0 0 0 0 1 0 0 0 0.25 0"/>
<feBlend mode="normal" in2="effect1_innerShadow_344_16284" result="effect2_innerShadow_344_16284"/>
</filter>
<filter id="filter13_i_344_16284" x="297.607" y="268.275" width="35.3104" height="34.8518" filterUnits="userSpaceOnUse" color-interpolation-filters="sRGB">
<feFlood flood-opacity="0" result="BackgroundImageFix"/>
<feBlend mode="normal" in="SourceGraphic" in2="BackgroundImageFix" result="shape"/>
<feColorMatrix in="SourceAlpha" type="matrix" values="0 0 0 0 0 0 0 0 0 0 0 0 0 0 0 0 0 0 127 0" result="hardAlpha"/>
<feOffset/>
<feGaussianBlur stdDeviation="3.5"/>
<feComposite in2="hardAlpha" operator="arithmetic" k2="-1" k3="1"/>
<feColorMatrix type="matrix" values="0 0 0 0 0.129412 0 0 0 0 0.117647 0 0 0 0 0.223529 0 0 0 1 0"/>
<feBlend mode="normal" in2="shape" result="effect1_innerShadow_344_16284"/>
</filter>
<filter id="filter14_ii_344_16284" x="277.593" y="183.661" width="83.5521" height="91.0591" filterUnits="userSpaceOnUse" color-interpolation-filters="sRGB">
<feFlood flood-opacity="0" result="BackgroundImageFix"/>
<feBlend mode="normal" in="SourceGraphic" in2="BackgroundImageFix" result="shape"/>
<feColorMatrix in="SourceAlpha" type="matrix" values="0 0 0 0 0 0 0 0 0 0 0 0 0 0 0 0 0 0 127 0" result="hardAlpha"/>
<feOffset/>
<feGaussianBlur stdDeviation="8"/>
<feComposite in2="hardAlpha" operator="arithmetic" k2="-1" k3="1"/>
<feColorMatrix type="matrix" values="0 0 0 0 0.775 0 0 0 0 0.442267 0 0 0 0 0.0516667 0 0 0 1 0"/>
<feBlend mode="normal" in2="shape" result="effect1_innerShadow_344_16284"/>
<feColorMatrix in="SourceAlpha" type="matrix" values="0 0 0 0 0 0 0 0 0 0 0 0 0 0 0 0 0 0 127 0" result="hardAlpha"/>
<feOffset dy="2"/>
<feGaussianBlur stdDeviation="4"/>
<feComposite in2="hardAlpha" operator="arithmetic" k2="-1" k3="1"/>
<feColorMatrix type="matrix" values="0 0 0 0 1 0 0 0 0 0.937667 0 0 0 0 0.716667 0 0 0 0.69 0"/>
<feBlend mode="normal" in2="effect1_innerShadow_344_16284" result="effect2_innerShadow_344_16284"/>
</filter>
<filter id="filter15_d_344_16284" x="263.274" y="261.992" width="40.9548" height="12.6038" filterUnits="userSpaceOnUse" color-interpolation-filters="sRGB">
<feFlood flood-opacity="0" result="BackgroundImageFix"/>
<feColorMatrix in="SourceAlpha" type="matrix" values="0 0 0 0 0 0 0 0 0 0 0 0 0 0 0 0 0 0 127 0" result="hardAlpha"/>
<feOffset dy="2"/>
<feGaussianBlur stdDeviation="1.5"/>
<feComposite in2="hardAlpha" operator="out"/>
<feColorMatrix type="matrix" values="0 0 0 0 0 0 0 0 0 0 0 0 0 0 0 0 0 0 0.25 0"/>
<feBlend mode="normal" in2="BackgroundImageFix" result="effect1_dropShadow_344_16284"/>
<feBlend mode="normal" in="SourceGraphic" in2="effect1_dropShadow_344_16284" result="shape"/>
</filter>
<filter id="filter16_f_344_16284" x="291.569" y="214.559" width="41.0779" height="36.0132" filterUnits="userSpaceOnUse" color-interpolation-filters="sRGB">
<feFlood flood-opacity="0" result="BackgroundImageFix"/>
<feBlend mode="normal" in="SourceGraphic" in2="BackgroundImageFix" result="shape"/>
<feGaussianBlur stdDeviation="3.5" result="effect1_foregroundBlur_344_16284"/>
</filter>
<filter id="filter17_d_344_16284" x="294.149" y="214.167" width="33.4554" height="28.0164" filterUnits="userSpaceOnUse" color-interpolation-filters="sRGB">
<feFlood flood-opacity="0" result="BackgroundImageFix"/>
<feColorMatrix in="SourceAlpha" type="matrix" values="0 0 0 0 0 0 0 0 0 0 0 0 0 0 0 0 0 0 127 0" result="hardAlpha"/>
<feOffset dy="2"/>
<feGaussianBlur stdDeviation="1"/>
<feComposite in2="hardAlpha" operator="out"/>
<feColorMatrix type="matrix" values="0 0 0 0 0.156528 0 0 0 0 0.237007 0 0 0 0 0.383333 0 0 0 0.22 0"/>
<feBlend mode="multiply" in2="BackgroundImageFix" result="effect1_dropShadow_344_16284"/>
<feBlend mode="normal" in="SourceGraphic" in2="effect1_dropShadow_344_16284" result="shape"/>
</filter>
<filter id="filter18_f_344_16284" x="286.168" y="188.212" width="39.8692" height="39.8738" filterUnits="userSpaceOnUse" color-interpolation-filters="sRGB">
<feFlood flood-opacity="0" result="BackgroundImageFix"/>
<feBlend mode="normal" in="SourceGraphic" in2="BackgroundImageFix" result="shape"/>
<feGaussianBlur stdDeviation="6" result="effect1_foregroundBlur_344_16284"/>
</filter>
<filter id="filter19_d_344_16284" x="289.043" y="260.568" width="25.0623" height="30.6824" filterUnits="userSpaceOnUse" color-interpolation-filters="sRGB">
<feFlood flood-opacity="0" result="BackgroundImageFix"/>
<feColorMatrix in="SourceAlpha" type="matrix" values="0 0 0 0 0 0 0 0 0 0 0 0 0 0 0 0 0 0 127 0" result="hardAlpha"/>
<feOffset dy="3"/>
<feGaussianBlur stdDeviation="3.5"/>
<feColorMatrix type="matrix" values="0 0 0 0 0.720833 0 0 0 0 0.148303 0 0 0 0 0.108125 0 0 0 0.5 0"/>
<feBlend mode="multiply" in2="BackgroundImageFix" result="effect1_dropShadow_344_16284"/>
<feBlend mode="normal" in="SourceGraphic" in2="effect1_dropShadow_344_16284" result="shape"/>
</filter>
<filter id="filter20_d_344_16284" x="286.528" y="266.861" width="29.3875" height="21.9998" filterUnits="userSpaceOnUse" color-interpolation-filters="sRGB">
<feFlood flood-opacity="0" result="BackgroundImageFix"/>
<feColorMatrix in="SourceAlpha" type="matrix" values="0 0 0 0 0 0 0 0 0 0 0 0 0 0 0 0 0 0 127 0" result="hardAlpha"/>
<feOffset/>
<feGaussianBlur stdDeviation="2"/>
<feComposite in2="hardAlpha" operator="out"/>
<feColorMatrix type="matrix" values="0 0 0 0 0.237228 0 0 0 0 0.20375 0 0 0 0 0.3 0 0 0 0.5 0"/>
<feBlend mode="normal" in2="BackgroundImageFix" result="effect1_dropShadow_344_16284"/>
<feBlend mode="normal" in="SourceGraphic" in2="effect1_dropShadow_344_16284" result="shape"/>
</filter>
<filter id="filter21_f_344_16284" x="216.49" y="348.793" width="78.0397" height="5.94824" filterUnits="userSpaceOnUse" color-interpolation-filters="sRGB">
<feFlood flood-opacity="0" result="BackgroundImageFix"/>
<feBlend mode="normal" in="SourceGraphic" in2="BackgroundImageFix" result="shape"/>
<feGaussianBlur stdDeviation="0.5" result="effect1_foregroundBlur_344_16284"/>
</filter>
<radialGradient id="paint0_radial_344_16284" cx="0" cy="0" r="1" gradientUnits="userSpaceOnUse" gradientTransform="translate(233.803 243.224) scale(241.002 243.251)">
<stop stop-color="white" stop-opacity="0"/>
<stop offset="1" stop-color="#BDE3FF"/>
<stop offset="1" stop-color="#BADAFF"/>
</radialGradient>
<linearGradient id="paint1_linear_344_16284" x1="182.5" y1="273.5" x2="189" y2="106" gradientUnits="userSpaceOnUse">
<stop stop-color="white" stop-opacity="0"/>
<stop offset="1" stop-color="#A2C5F9"/>
</linearGradient>
<linearGradient id="paint2_linear_344_16284" x1="175.207" y1="106.177" x2="175.207" y2="308.452" gradientUnits="userSpaceOnUse">
<stop stop-color="#86BEFF" stop-opacity="0.48"/>
<stop offset="1" stop-color="#8AD4FD" stop-opacity="0.44"/>
</linearGradient>
<linearGradient id="paint3_linear_344_16284" x1="295.467" y1="292.546" x2="301.64" y2="131.687" gradientUnits="userSpaceOnUse">
<stop stop-color="white" stop-opacity="0"/>
<stop offset="1" stop-color="#A2C5F9"/>
</linearGradient>
<linearGradient id="paint4_linear_344_16284" x1="288.385" y1="131.862" x2="288.385" y2="326.111" gradientUnits="userSpaceOnUse">
<stop stop-color="#86BEFF" stop-opacity="0.48"/>
<stop offset="1" stop-color="#5298EB" stop-opacity="0"/>
</linearGradient>
<linearGradient id="paint5_linear_344_16284" x1="231.328" y1="241.808" x2="231.328" y2="397.566" gradientUnits="userSpaceOnUse">
<stop stop-color="#F8FCFF"/>
<stop offset="1" stop-color="#C9DCF5" stop-opacity="0"/>
</linearGradient>
<linearGradient id="paint6_linear_344_16284" x1="290.489" y1="302.828" x2="249.268" y2="338.449" gradientUnits="userSpaceOnUse">
<stop stop-color="#A1C4F5"/>
<stop offset="1" stop-color="#BAD6FD" stop-opacity="0"/>
</linearGradient>
<linearGradient id="paint7_linear_344_16284" x1="290.489" y1="302.828" x2="249.268" y2="338.449" gradientUnits="userSpaceOnUse">
<stop stop-color="#A1C4F5"/>
<stop offset="1" stop-color="#BAD6FD" stop-opacity="0"/>
</linearGradient>
<linearGradient id="paint8_linear_344_16284" x1="128.489" y1="1.82842" x2="87.2683" y2="37.4488" gradientUnits="userSpaceOnUse">
<stop stop-color="#B9D6FF" stop-opacity="0.73"/>
<stop offset="0.177083" stop-color="#A1C4F5"/>
<stop offset="1" stop-color="#E7F1FF" stop-opacity="0"/>
</linearGradient>
<linearGradient id="paint9_linear_344_16284" x1="128.489" y1="1.82842" x2="87.2683" y2="37.4488" gradientUnits="userSpaceOnUse">
<stop stop-color="#B9D6FF" stop-opacity="0.73"/>
<stop offset="0.177083" stop-color="#A1C4F5"/>
<stop offset="1" stop-color="#E7F1FF" stop-opacity="0"/>
</linearGradient>
<linearGradient id="paint10_linear_344_16284" x1="181.379" y1="277.474" x2="274.58" y2="289.302" gradientUnits="userSpaceOnUse">
<stop stop-color="#E3EDFF"/>
<stop offset="1" stop-color="#D5E6FF"/>
</linearGradient>
<linearGradient id="paint11_linear_344_16284" x1="180.467" y1="272.367" x2="204.909" y2="272.367" gradientUnits="userSpaceOnUse">
<stop stop-color="#FFF0F0"/>
<stop offset="0.0001" stop-color="#E9F1FF"/>
<stop offset="1" stop-color="#C0D5FE"/>
</linearGradient>
<linearGradient id="paint12_linear_344_16284" x1="267.809" y1="272.366" x2="292.252" y2="272.366" gradientUnits="userSpaceOnUse">
<stop stop-color="#FFF0F0"/>
<stop offset="0.0001" stop-color="#E9F1FF"/>
<stop offset="1" stop-color="#C0D5FE"/>
</linearGradient>
<linearGradient id="paint13_linear_344_16284" x1="189.201" y1="241.29" x2="189.201" y2="248.885" gradientUnits="userSpaceOnUse">
<stop stop-color="#4574D1"/>
<stop offset="1" stop-color="white" stop-opacity="0"/>
</linearGradient>
<linearGradient id="paint14_linear_344_16284" x1="276.738" y1="240.888" x2="276.738" y2="248.483" gradientUnits="userSpaceOnUse">
<stop stop-color="#4574D1"/>
<stop offset="1" stop-color="white" stop-opacity="0"/>
</linearGradient>
<radialGradient id="paint15_radial_344_16284" cx="0" cy="0" r="1" gradientUnits="userSpaceOnUse" gradientTransform="translate(186.795 183.91) scale(10.7679 10.7787)">
<stop stop-color="#FDFDFD"/>
<stop offset="1" stop-color="#B8D0FE"/>
</radialGradient>
<radialGradient id="paint16_radial_344_16284" cx="0" cy="0" r="1" gradientUnits="userSpaceOnUse" gradientTransform="translate(274.128 183.91) scale(10.7679 10.7787)">
<stop stop-color="#FDFDFD"/>
<stop offset="1" stop-color="#B8D0FE"/>
</radialGradient>
<linearGradient id="paint17_linear_344_16284" x1="166.354" y1="319.952" x2="103.337" y2="318.852" gradientUnits="userSpaceOnUse">
<stop stop-color="#D2EAFF" stop-opacity="0.457332"/>
<stop offset="1" stop-color="#89A6C7"/>
</linearGradient>
<linearGradient id="paint18_linear_344_16284" x1="113.225" y1="310.046" x2="117.407" y2="310.046" gradientUnits="userSpaceOnUse">
<stop stop-color="#E8DFDB"/>
<stop offset="1" stop-color="#CCB9B5"/>
</linearGradient>
<linearGradient id="paint19_linear_344_16284" x1="69.5" y1="5" x2="-2.78721" y2="11.6955" gradientUnits="userSpaceOnUse">
<stop stop-color="#BAD6FD" stop-opacity="0"/>
<stop offset="0.5" stop-color="#A1C4F5"/>
<stop offset="1" stop-color="#BAD6FD" stop-opacity="0"/>
</linearGradient>
<linearGradient id="paint20_linear_344_16284" x1="43.5" y1="1.5" x2="-3.36501" y2="-1.01527" gradientUnits="userSpaceOnUse">
<stop stop-color="#BAD6FD" stop-opacity="0"/>
<stop offset="0.724368" stop-color="#A1C4F5"/>
<stop offset="1" stop-color="#BAD6FD" stop-opacity="0"/>
</linearGradient>
<linearGradient id="paint21_linear_344_16284" x1="321.117" y1="299.601" x2="320.787" y2="313.251" gradientUnits="userSpaceOnUse">
<stop stop-color="#E18935"/>
<stop offset="1" stop-color="#CD7729"/>
</linearGradient>
<linearGradient id="paint22_linear_344_16284" x1="313.047" y1="309.425" x2="313.047" y2="314.364" gradientUnits="userSpaceOnUse">
<stop stop-color="#E79546"/>
<stop offset="1" stop-color="#CB782B"/>
</linearGradient>
<radialGradient id="paint23_radial_344_16284" cx="0" cy="0" r="1" gradientUnits="userSpaceOnUse" gradientTransform="translate(306.367 302.567) rotate(5.90871) scale(12.6042 12.5195)">
<stop stop-color="#FDA759"/>
<stop offset="1" stop-color="#E68E42"/>
</radialGradient>
<radialGradient id="paint24_radial_344_16284" cx="0" cy="0" r="1" gradientUnits="userSpaceOnUse" gradientTransform="translate(308.949 304.42) rotate(-46.7896) scale(4.57777 4.52183)">
<stop stop-color="#FFF0E2"/>
<stop offset="1" stop-color="#E68E42"/>
</radialGradient>
<radialGradient id="paint25_radial_344_16284" cx="0" cy="0" r="1" gradientUnits="userSpaceOnUse" gradientTransform="translate(303.049 296.821) rotate(8.96202) scale(9.51913 50.9874)">
<stop stop-color="#FAD365"/>
<stop offset="1" stop-color="#DE982F"/>
</radialGradient>
<linearGradient id="paint26_linear_344_16284" x1="306.552" y1="294.967" x2="303.404" y2="300.564" gradientUnits="userSpaceOnUse">
<stop stop-color="#37306D"/>
<stop offset="1" stop-color="#F6CA5D" stop-opacity="0"/>
</linearGradient>
<linearGradient id="paint27_linear_344_16284" x1="297.486" y1="273.554" x2="328.523" y2="291.74" gradientUnits="userSpaceOnUse">
<stop stop-color="#615C84"/>
<stop offset="1" stop-color="#43405F"/>
</linearGradient>
<linearGradient id="paint28_linear_344_16284" x1="301.021" y1="284.401" x2="296.216" y2="281.828" gradientUnits="userSpaceOnUse">
<stop stop-color="#FFBF86"/>
<stop offset="1" stop-color="#DD7922"/>
</linearGradient>
<radialGradient id="paint29_radial_344_16284" cx="0" cy="0" r="1" gradientUnits="userSpaceOnUse" gradientTransform="translate(293.141 231.549) rotate(25.1264) scale(62.5964 43.8218)">
<stop stop-color="#FFD1A7"/>
<stop offset="1" stop-color="#EE8A2F"/>
</radialGradient>
<linearGradient id="paint30_linear_344_16284" x1="320.158" y1="200.535" x2="320.648" y2="272.264" gradientUnits="userSpaceOnUse">
<stop stop-color="#FFF6A4"/>
<stop offset="1" stop-color="#FBC779"/>
</linearGradient>
<linearGradient id="paint31_linear_344_16284" x1="267.993" y1="265.609" x2="296.675" y2="267.534" gradientUnits="userSpaceOnUse">
<stop stop-color="#6B3625"/>
<stop offset="1" stop-color="#39231A"/>
</linearGradient>
<radialGradient id="paint32_radial_344_16284" cx="0" cy="0" r="1" gradientUnits="userSpaceOnUse" gradientTransform="translate(269.862 255.245) rotate(-9.51859) scale(28.5389 122.429)">
<stop stop-color="#AC826A"/>
<stop offset="1" stop-color="#572B1A"/>
</radialGradient>
<linearGradient id="paint33_linear_344_16284" x1="309.019" y1="231.128" x2="311.759" y2="245.255" gradientUnits="userSpaceOnUse">
<stop stop-color="#8092B6"/>
<stop offset="1" stop-color="#A9B4C9" stop-opacity="0"/>
</linearGradient>
<linearGradient id="paint34_linear_344_16284" x1="301.195" y1="227.036" x2="309.826" y2="234.563" gradientUnits="userSpaceOnUse">
<stop stop-color="#F79452"/>
<stop offset="1" stop-color="#C7482C"/>
</linearGradient>
<linearGradient id="paint35_linear_344_16284" x1="305.359" y1="279.274" x2="300.353" y2="275.991" gradientUnits="userSpaceOnUse">
<stop stop-color="#DE0C0C"/>
<stop offset="1" stop-color="#910821"/>
</linearGradient>
<linearGradient id="paint36_linear_344_16284" x1="304.631" y1="265.434" x2="298.089" y2="268.924" gradientUnits="userSpaceOnUse">
<stop stop-color="#F7431C"/>
<stop offset="1" stop-color="#B40625"/>
</linearGradient>
<linearGradient id="paint37_linear_344_16284" x1="295.461" y1="271.729" x2="299.225" y2="272.482" gradientUnits="userSpaceOnUse">
<stop stop-color="#F56F45"/>
<stop offset="1" stop-color="#CC0B11"/>
</linearGradient>
<linearGradient id="paint38_linear_344_16284" x1="288.829" y1="269.474" x2="291.978" y2="273.15" gradientUnits="userSpaceOnUse">
<stop stop-color="#FFBF86"/>
<stop offset="1" stop-color="#DD7922"/>
</linearGradient>
<linearGradient id="paint39_linear_344_16284" x1="293.96" y1="271.588" x2="308.107" y2="282.323" gradientUnits="userSpaceOnUse">
<stop stop-color="#6D6182"/>
<stop offset="1" stop-color="#3D3748"/>
</linearGradient>
<linearGradient id="paint40_linear_344_16284" x1="293.486" y1="353.742" x2="201.492" y2="352.146" gradientUnits="userSpaceOnUse">
<stop stop-color="#D2EAFF" stop-opacity="0.457332"/>
<stop offset="1" stop-color="#89A6C7"/>
</linearGradient>
<linearGradient id="paint41_linear_344_16284" x1="215.927" y1="339.192" x2="222.032" y2="339.192" gradientUnits="userSpaceOnUse">
<stop stop-color="#E8DFDB"/>
<stop offset="1" stop-color="#CCB9B5"/>
</linearGradient>
<clipPath id="clip0_344_16284">
<rect width="466" height="466" fill="white"/>
</clipPath>
</defs>
</svg>
