<svg width="466" height="466" viewBox="0 0 466 466" fill="none" xmlns="http://www.w3.org/2000/svg">
<g clip-path="url(#clip0_334_13936)">
<g filter="url(#filter0_f_334_13936)">
<path d="M233.803 387.115C317.588 387.115 385.509 318.475 385.509 233.803C385.509 149.131 317.588 80.491 233.803 80.491C150.018 80.491 82.0963 149.131 82.0963 233.803C82.0963 318.475 150.018 387.115 233.803 387.115Z" fill="url(#paint0_radial_334_13936)" fill-opacity="0.6"/>
</g>
<g opacity="0.3">
<path fill-rule="evenodd" clip-rule="evenodd" d="M179.071 306.591C223.041 306.591 258.686 261.727 258.686 206.384C258.686 151.041 223.041 106.177 179.071 106.177C135.102 106.177 111.855 153.146 99.4569 206.384C93.6726 231.222 85.4269 278.248 99.4569 296.314C113.912 314.927 156.758 306.591 179.071 306.591Z" fill="url(#paint1_linear_334_13936)"/>
<path fill-rule="evenodd" clip-rule="evenodd" d="M179.071 306.591C223.041 306.591 258.686 261.727 258.686 206.384C258.686 151.041 223.041 106.177 179.071 106.177C135.102 106.177 111.855 153.146 99.4569 206.384C93.6726 231.222 85.4269 278.248 99.4569 296.314C113.912 314.927 156.758 306.591 179.071 306.591Z" fill="url(#paint2_linear_334_13936)"/>
<path fill-rule="evenodd" clip-rule="evenodd" d="M286.897 326.111C330.849 326.111 377.805 311.551 368.191 259.308C358.576 207.064 335.983 131.862 292.031 131.862C248.079 131.862 207.314 170.565 207.314 225.906C207.314 281.248 242.945 326.111 286.897 326.111Z" fill="url(#paint3_linear_334_13936)"/>
<path fill-rule="evenodd" clip-rule="evenodd" d="M286.897 326.111C330.849 326.111 377.805 311.551 368.191 259.308C358.576 207.064 335.983 131.862 292.031 131.862C248.079 131.862 207.314 170.565 207.314 225.906C207.314 281.248 242.945 326.111 286.897 326.111Z" fill="url(#paint4_linear_334_13936)"/>
</g>
<g filter="url(#filter1_i_334_13936)">
<path d="M268.304 162.502C263.016 162.502 259 158.752 259 153.751C259 149.526 263.548 147.076 267.733 146.176C268.808 141.651 271.585 137.425 276.874 137.425C278.429 137.425 279.984 137.725 281.398 138.275C284.029 134.375 288.752 132 293.955 132C302.072 132 306.962 140.48 306.962 144.905C306.962 145.28 308.661 145.801 308.633 146.176C311.659 147.726 313.582 150.626 313.582 153.751C313.582 158.577 309.142 162.502 303.712 162.502H268.304Z" fill="white"/>
</g>
<g filter="url(#filter2_f_334_13936)">
<path d="M231.572 369.368C344.554 369.368 436.144 344.662 436.144 314.184C436.144 283.707 344.554 259 231.572 259C118.59 259 27 283.707 27 314.184C27 344.662 118.59 369.368 231.572 369.368Z" fill="url(#paint5_linear_334_13936)"/>
</g>
<g opacity="0.6" filter="url(#filter3_f_334_13936)">
<path fill-rule="evenodd" clip-rule="evenodd" d="M221.384 297.188L221.354 298.952L169.296 298.028L169.326 296.264L221.384 297.188Z" fill="url(#paint6_linear_334_13936)"/>
</g>
<path d="M172.448 281.87H169.237V297.923H172.448V281.87Z" fill="url(#paint7_linear_334_13936)"/>
<path fill-rule="evenodd" clip-rule="evenodd" d="M170.843 261V285.08L178.87 279.361L170.843 261Z" fill="#F2883B"/>
<path fill-rule="evenodd" clip-rule="evenodd" d="M170.843 261L170.843 285.08L158 279.412L170.843 261Z" fill="#FFCA9E"/>
<g opacity="0.6" filter="url(#filter4_f_334_13936)">
<path fill-rule="evenodd" clip-rule="evenodd" d="M362.384 358.188L362.354 359.952L310.296 359.028L310.326 357.264L362.384 358.188Z" fill="url(#paint8_linear_334_13936)"/>
</g>
<path d="M313.448 342.87H310.237V358.923H313.448V342.87Z" fill="url(#paint9_linear_334_13936)"/>
<path fill-rule="evenodd" clip-rule="evenodd" d="M311.843 322V346.08L319.87 340.361L311.843 322Z" fill="#F2883B"/>
<path fill-rule="evenodd" clip-rule="evenodd" d="M311.843 322L311.843 346.08L299 340.412L311.843 322Z" fill="#FFCA9E"/>
<g opacity="0.6" filter="url(#filter5_f_334_13936)">
<path fill-rule="evenodd" clip-rule="evenodd" d="M157.53 323.15L157.486 325.742L81.4903 324.385L81.5345 321.794L157.53 323.15Z" fill="url(#paint10_linear_334_13936)"/>
</g>
<path d="M86.092 300.652H81.4048V324.23H86.092V300.652Z" fill="url(#paint11_linear_334_13936)"/>
<path fill-rule="evenodd" clip-rule="evenodd" d="M83.7484 270V305.368L95.4662 296.967L83.7484 270Z" fill="#F2883B"/>
<path fill-rule="evenodd" clip-rule="evenodd" d="M83.7484 270L83.7484 305.368L65 297.042L83.7484 270Z" fill="#FFCA9E"/>
<g opacity="0.5" filter="url(#filter6_f_334_13936)">
<ellipse cx="309.5" cy="309" rx="39.5" ry="7" fill="url(#paint12_linear_334_13936)"/>
</g>
<g filter="url(#filter7_f_334_13936)">
<ellipse cx="296" cy="309" rx="26" ry="7" fill="url(#paint13_linear_334_13936)"/>
</g>
<g filter="url(#filter8_iii_334_13936)">
<path d="M273.506 173.013C268.058 172.064 258.473 168.317 248.625 171.656C253.433 173.14 255.442 175.583 256.058 177.778C256.673 179.972 256.8 182.086 257.045 184.554C257.045 184.554 246.579 183.899 245.03 185.939C245.223 187.036 248.255 189.293 247.991 194.236C247.726 199.178 244.781 204.966 243.922 211.896C243.063 218.826 245.764 227.77 246.579 230.264C244.026 231.84 240.892 233.33 239.222 234.563C239.446 235.842 247.157 241.085 250.095 241.701C249.006 243.022 246.183 245.21 245.03 246.165C246.028 248.627 255.826 255.011 268.872 255.178C271.399 255.211 299.464 250.35 307.512 247.479C311.314 246.123 316.024 242.705 319.82 239.139L310.146 233.459L312.556 225.693L307.228 216.832L320.855 217.086C320.798 210.316 317.101 198.031 311.415 191.242C299.721 177.279 285.376 175.08 273.506 173.013Z" fill="url(#paint14_radial_334_13936)"/>
<path d="M273.506 173.013C268.058 172.064 258.473 168.317 248.625 171.656C253.433 173.14 255.442 175.583 256.058 177.778C256.673 179.972 256.8 182.086 257.045 184.554C257.045 184.554 246.579 183.899 245.03 185.939C245.223 187.036 248.255 189.293 247.991 194.236C247.726 199.178 244.781 204.966 243.922 211.896C243.063 218.826 245.764 227.77 246.579 230.264C244.026 231.84 240.892 233.33 239.222 234.563C239.446 235.842 247.157 241.085 250.095 241.701C249.006 243.022 246.183 245.21 245.03 246.165C246.028 248.627 255.826 255.011 268.872 255.178C271.399 255.211 299.464 250.35 307.512 247.479C311.314 246.123 316.024 242.705 319.82 239.139L310.146 233.459L312.556 225.693L307.228 216.832L320.855 217.086C320.798 210.316 317.101 198.031 311.415 191.242C299.721 177.279 285.376 175.08 273.506 173.013Z" fill="url(#paint15_linear_334_13936)" fill-opacity="0.3"/>
<path d="M273.506 173.013C268.058 172.064 258.473 168.317 248.625 171.656C253.433 173.14 255.442 175.583 256.058 177.778C256.673 179.972 256.8 182.086 257.045 184.554C257.045 184.554 246.579 183.899 245.03 185.939C245.223 187.036 248.255 189.293 247.991 194.236C247.726 199.178 244.781 204.966 243.922 211.896C243.063 218.826 245.764 227.77 246.579 230.264C244.026 231.84 240.892 233.33 239.222 234.563C239.446 235.842 247.157 241.085 250.095 241.701C249.006 243.022 246.183 245.21 245.03 246.165C246.028 248.627 255.826 255.011 268.872 255.178C271.399 255.211 299.464 250.35 307.512 247.479C311.314 246.123 316.024 242.705 319.82 239.139L310.146 233.459L312.556 225.693L307.228 216.832L320.855 217.086C320.798 210.316 317.101 198.031 311.415 191.242C299.721 177.279 285.376 175.08 273.506 173.013Z" fill="url(#paint16_linear_334_13936)" fill-opacity="0.2"/>
</g>
<path d="M322.363 234.972C319.067 233.969 313.121 234.393 310.559 234.73L313.78 241.115L332.33 236.168C330.381 236.187 325.659 235.974 322.363 234.972Z" fill="url(#paint17_linear_334_13936)"/>
<path fill-rule="evenodd" clip-rule="evenodd" d="M309.491 234.124L310.442 233.999C311.745 233.828 313.898 233.635 316.144 233.612C318.374 233.589 320.768 233.732 322.518 234.264C325.715 235.236 330.357 235.451 332.289 235.432L332.527 236.884L313.449 241.971L309.491 234.124ZM311.634 235.35L314.11 240.259L327.592 236.664C325.786 236.481 323.835 236.175 322.208 235.68C320.662 235.21 318.435 235.063 316.227 235.085C314.524 235.103 312.875 235.22 311.634 235.35Z" fill="#572E20"/>
<path d="M318.05 230.599C315.5 231.268 308.918 234.958 308.797 236.979C308.675 238.999 312.608 238.919 315.658 237.711C318.708 236.504 317.122 234.622 319.505 234.133C321.888 233.644 326.861 234.143 328.366 232.711C329.871 231.279 330.357 230.187 330.177 229.815C329.997 229.442 328.316 230.686 327.465 230.847C326.613 231.009 320.599 229.93 318.05 230.599Z" fill="url(#paint18_linear_334_13936)"/>
<g filter="url(#filter9_d_334_13936)">
<path d="M333.625 238.246C335.024 236.744 337.627 233.831 337.627 233.831C337.627 233.831 332.81 234.953 330.666 236.002C328.522 237.051 323.029 237.284 323.029 237.284C323.029 237.284 319.329 236.891 316.176 236.792C313.022 236.693 308.052 234.313 308.052 234.313C308.052 234.313 304.085 239.867 303.09 243.145C302.096 246.423 315.033 244.341 315.033 244.341L319.796 243.477C319.796 243.477 332.225 239.747 333.625 238.246Z" fill="url(#paint19_linear_334_13936)"/>
</g>
<path d="M319.503 207.426C312.794 206.918 299.987 213.879 299.453 216.357C298.92 218.835 299.277 219.19 299.882 221.16L307.428 233.963C308.127 236.677 307.665 238.407 307.665 238.407C307.665 238.407 312.523 233.901 315.913 230.832C319.302 227.764 323.307 225.357 324.43 224.65C325.553 223.943 327.422 222.467 328.217 221.818C329.496 221.017 329.845 219.629 332.393 219.714C334.942 219.798 338.978 222.646 340.622 224.447C340.49 220.864 336.979 216.66 334.28 213.669C330.906 209.932 324.589 207.811 319.503 207.426Z" fill="url(#paint20_radial_334_13936)"/>
<path d="M278.917 204.132C282.64 202.488 286.65 203.764 288.708 204.817C291.944 206.474 293.701 210.239 293.756 211.196C292.756 210.534 290.803 209.206 287.16 209.417C285.482 209.514 282.422 210.651 281.053 211.931" stroke="#572E20" stroke-width="5" stroke-linecap="round" stroke-linejoin="round"/>
<g filter="url(#filter10_d_334_13936)">
<path d="M292.321 212.868C292.104 212.877 291.882 212.838 291.666 212.8C291.569 212.782 291.506 212.786 291.427 212.851C290.815 213.367 289.937 213.263 289.467 212.627C289.007 212.005 289.166 211.116 289.851 210.722C290.083 210.589 290.173 210.436 290.245 210.199C290.703 208.703 292.622 208.259 293.719 209.389C293.808 209.48 293.861 209.501 293.985 209.444C294.815 209.06 295.767 209.439 296.129 210.288C296.465 211.075 296.059 212.03 295.231 212.349C294.729 212.54 294.232 212.498 293.759 212.195C293.36 212.616 292.883 212.846 292.321 212.868Z" fill="black"/>
</g>
<path d="M292.321 212.868C292.104 212.877 291.882 212.838 291.666 212.8C291.569 212.782 291.506 212.786 291.427 212.851C290.815 213.367 289.937 213.263 289.467 212.627C289.007 212.005 289.166 211.116 289.851 210.722C290.083 210.589 290.173 210.436 290.245 210.199C290.703 208.703 292.622 208.259 293.719 209.389C293.808 209.48 293.861 209.501 293.985 209.444C294.815 209.06 295.767 209.439 296.129 210.288C296.465 211.075 296.059 212.03 295.231 212.349C294.729 212.54 294.232 212.498 293.759 212.195C293.36 212.616 292.883 212.846 292.321 212.868Z" fill="url(#paint21_radial_334_13936)"/>
<g filter="url(#filter11_i_334_13936)">
<path d="M292.321 212.868C292.104 212.877 291.882 212.838 291.666 212.8C291.569 212.782 291.506 212.786 291.427 212.851C290.815 213.367 289.937 213.263 289.467 212.627C289.007 212.005 289.166 211.116 289.851 210.722C290.083 210.589 290.173 210.436 290.245 210.199C290.703 208.703 292.622 208.259 293.719 209.389C293.808 209.48 293.861 209.501 293.985 209.444C294.815 209.06 295.767 209.439 296.129 210.288C296.465 211.075 296.059 212.03 295.231 212.349C294.729 212.54 294.232 212.498 293.759 212.195C293.36 212.616 292.883 212.846 292.321 212.868Z" fill="#A4FFFA"/>
</g>
<g opacity="0.8" filter="url(#filter12_f_334_13936)">
<ellipse rx="5.00066" ry="10.0987" transform="matrix(0.520071 -0.853789 0.855057 0.519084 284.794 186.729)" fill="#FDCE4E"/>
</g>
<g filter="url(#filter13_i_334_13936)">
<path d="M275.924 250.781C279.225 246.782 295.635 245.855 301.21 247.524C306.784 249.194 310.888 251.591 311.848 262.07C312.374 267.807 311.322 272.433 310.096 274.839C308.869 277.245 278.202 294.826 278.202 294.826C278.202 294.826 274.677 285.641 273.822 275.765C272.966 265.889 272.624 254.78 275.924 250.781Z" fill="url(#paint22_linear_334_13936)"/>
</g>
<path d="M258.253 252.5C259.554 252.203 261.071 252.724 262.068 253.155C263.065 253.587 262.151 257.857 261.414 257.991C260.676 258.124 257.772 257.365 256.992 256.71C256.212 256.056 256.952 252.798 258.253 252.5Z" fill="url(#paint23_linear_334_13936)"/>
<g filter="url(#filter14_d_334_13936)">
<path d="M261.686 253.384C262.111 253.122 264.365 253.247 269.576 251.938C274.788 250.63 278.066 250.319 278.883 250.823C280.65 251.915 284.489 254.865 284.792 256.958C285.094 259.051 273.766 259.881 269.567 259.781C265.44 259.684 262.057 258.527 261.54 258.111C260.497 257.271 260.896 253.871 261.686 253.384Z" fill="url(#paint24_linear_334_13936)"/>
</g>
<path d="M328.328 272.682C333.2 283.877 323.329 298.946 306.281 306.34C289.233 313.734 271.464 310.653 266.592 299.459C261.72 288.264 271.591 273.195 288.639 265.801C305.687 258.407 323.456 261.488 328.328 272.682Z" fill="url(#paint25_linear_334_13936)"/>
<path fill-rule="evenodd" clip-rule="evenodd" d="M323.969 289.921C327.744 284.159 328.731 278.262 326.624 273.421C324.517 268.581 319.526 265.276 312.732 264.098C305.955 262.924 297.618 263.929 289.379 267.502C281.14 271.076 274.715 276.473 270.951 282.22C267.176 287.982 266.189 293.879 268.296 298.719C270.403 303.56 275.394 306.864 282.188 308.042C288.965 309.217 297.302 308.212 305.541 304.638C313.78 301.065 320.205 295.667 323.969 289.921ZM306.281 306.34C323.329 298.946 333.2 283.877 328.328 272.682C323.456 261.488 305.687 258.407 288.639 265.801C271.591 273.195 261.72 288.264 266.592 299.459C271.464 310.653 289.233 313.734 306.281 306.34Z" fill="#403D5C"/>
<path fill-rule="evenodd" clip-rule="evenodd" d="M315.107 288.816C317.45 285.239 317.989 281.697 316.756 278.864C315.523 276.032 312.563 274.008 308.344 273.276C304.144 272.548 298.93 273.167 293.749 275.414C288.568 277.661 284.557 281.044 282.223 284.606C279.88 288.183 279.342 291.724 280.575 294.557C281.807 297.39 284.768 299.414 288.986 300.145C293.186 300.873 298.4 300.255 303.582 298.008C308.763 295.76 312.774 292.377 315.107 288.816ZM304.322 299.709C315.254 294.967 321.584 285.304 318.46 278.125C315.336 270.947 303.941 268.971 293.009 273.713C282.076 278.454 275.746 288.118 278.87 295.296C281.995 302.475 293.39 304.45 304.322 299.709Z" fill="#403D5C"/>
<path fill-rule="evenodd" clip-rule="evenodd" d="M276.519 282.663C273.54 287.211 272.666 292.018 274.425 296.061C274.548 296.343 274.419 296.671 274.136 296.793C273.854 296.915 273.525 296.786 273.403 296.504C271.446 292.008 272.478 286.799 275.586 282.054C278.697 277.305 283.922 272.956 290.509 270.099C290.792 269.976 291.12 270.105 291.243 270.387C291.365 270.669 291.236 270.997 290.953 271.119C284.537 273.902 279.495 278.121 276.519 282.663Z" fill="#403D5C"/>
<path fill-rule="evenodd" clip-rule="evenodd" d="M310.427 278.061C310.898 277.857 311.445 278.072 311.649 278.542C313.04 281.738 312.28 285.378 310.163 288.609C308.042 291.847 304.502 294.784 300.068 296.707C299.598 296.911 299.051 296.695 298.846 296.225C298.642 295.756 298.857 295.209 299.328 295.005C303.477 293.206 306.712 290.488 308.608 287.594C310.509 284.692 311.007 281.721 309.945 279.281C309.741 278.812 309.957 278.265 310.427 278.061Z" fill="#403D5C"/>
<g filter="url(#filter15_d_334_13936)">
<path d="M302.294 253.525C302.527 254.071 302.205 256.043 302.666 256.733C303.409 257.846 305.825 257.202 307.125 256.177C308.426 255.151 309.089 254.322 309.355 253.525L309.727 252.057L308.692 251.011C308.343 250.586 307.064 249.668 305.389 248.795C303.296 247.703 301.713 250.926 301.596 251.835C301.48 252.745 302.061 252.979 302.294 253.525Z" fill="url(#paint26_linear_334_13936)"/>
<path d="M302.325 244.12C303.451 243.445 308.085 245.418 308.473 247.713L309.385 250.214L308.473 252.112C308.17 252.539 306.878 253.394 305.347 253.394C303.13 253.394 301.868 251.131 301.767 250.214C301.666 249.298 301.024 246.902 301.024 246.346C301.024 245.426 301.368 244.692 302.325 244.12Z" fill="url(#paint27_linear_334_13936)"/>
<path d="M309.732 247.018C309.424 246.732 308.415 246.962 308.285 247.127C308.154 247.291 308.586 248.464 308.642 250.159C308.699 251.855 308.566 253.497 308.438 253.914C308.31 254.331 309.327 254.311 309.896 254.268C310.465 254.226 310.777 254.146 311.142 253.711C311.508 253.277 311.574 250.938 311.55 249.189C311.535 248.161 311.252 247.436 311.051 247.208C310.567 246.662 310.04 247.304 309.732 247.018Z" fill="url(#paint28_linear_334_13936)"/>
</g>
<g filter="url(#filter16_di_334_13936)">
<ellipse rx="1.1148" ry="2.04061" transform="matrix(0.980261 -0.197705 0.19835 0.980131 309.158 258.106)" fill="url(#paint29_radial_334_13936)"/>
</g>
<rect x="89.3041" y="117.694" width="3.09241" height="12.3697" transform="rotate(-33.5147 89.3041 117.694)" fill="url(#paint30_linear_334_13936)"/>
<circle cx="112.573" cy="151.429" r="30.1511" transform="rotate(-33.5147 112.573 151.429)" fill="url(#paint31_linear_334_13936)"/>
<g filter="url(#filter17_i_334_13936)">
<ellipse cx="123.066" cy="166.493" rx="75.422" ry="28.6049" transform="rotate(-33.5147 123.066 166.493)" fill="url(#paint32_linear_334_13936)"/>
</g>
<ellipse cx="126.72" cy="173.471" rx="27.0248" ry="11.7581" transform="rotate(-31.9028 126.72 173.471)" fill="url(#paint33_linear_334_13936)"/>
<ellipse cx="132.198" cy="145.671" rx="5.41173" ry="3.86552" transform="rotate(-33.5147 132.198 145.671)" fill="url(#paint34_linear_334_13936)"/>
<ellipse cx="100.435" cy="166.706" rx="5.41173" ry="3.86552" transform="rotate(-33.5147 100.435 166.706)" fill="url(#paint35_linear_334_13936)"/>
<ellipse cx="163.659" cy="143.381" rx="5.41173" ry="3.86552" transform="rotate(-33.5147 163.659 143.381)" fill="url(#paint36_linear_334_13936)"/>
<ellipse cx="85.7682" cy="194.965" rx="5.41173" ry="3.86552" transform="rotate(-33.5147 85.7682 194.965)" fill="url(#paint37_linear_334_13936)"/>
<ellipse cx="107.106" cy="200.487" rx="4.2624" ry="2.2154" transform="rotate(-18.5147 107.106 200.487)" fill="url(#paint38_linear_334_13936)"/>
<ellipse cx="160.345" cy="164.437" rx="4.26241" ry="2.2154" transform="rotate(-48.5147 160.345 164.437)" fill="url(#paint39_linear_334_13936)"/>
<ellipse cx="136.945" cy="187.658" rx="4.2624" ry="1.42818" transform="rotate(-30.5354 136.945 187.658)" fill="url(#paint40_linear_334_13936)"/>
<ellipse cx="88.8858" cy="114.262" rx="4.63863" ry="4.63863" transform="rotate(-33.5147 88.8858 114.262)" fill="url(#paint41_linear_334_13936)"/>
<path opacity="0.6" d="M103.246 186.352C103.472 182.493 105.431 172.85 120.257 163.032C135.082 153.214 143.436 156.027 148.148 157.542C152.861 159.057 234.465 188.468 234.465 188.468L99.1054 278.111C99.1054 278.111 103.02 190.21 103.246 186.352Z" fill="url(#paint42_linear_334_13936)"/>
<g filter="url(#filter18_i_334_13936)">
<path d="M216.716 160C219.719 160 222 157.787 222 154.836C222 152.343 219.417 150.897 217.04 150.366C216.43 147.695 214.852 145.202 211.849 145.202C210.965 145.202 210.082 145.379 209.279 145.703C207.785 143.402 205.103 142 202.147 142C197.537 142 194.76 147.004 194.76 149.616C194.76 149.837 193.795 150.144 193.811 150.366C192.092 151.28 191 152.992 191 154.836C191 157.684 193.522 160 196.606 160H216.716Z" fill="white"/>
</g>
</g>
<defs>
<filter id="filter0_f_334_13936" x="34.0963" y="32.491" width="399.413" height="402.624" filterUnits="userSpaceOnUse" color-interpolation-filters="sRGB">
<feFlood flood-opacity="0" result="BackgroundImageFix"/>
<feBlend mode="normal" in="SourceGraphic" in2="BackgroundImageFix" result="shape"/>
<feGaussianBlur stdDeviation="24" result="effect1_foregroundBlur_334_13936"/>
</filter>
<filter id="filter1_i_334_13936" x="259" y="131" width="54.5822" height="31.5017" filterUnits="userSpaceOnUse" color-interpolation-filters="sRGB">
<feFlood flood-opacity="0" result="BackgroundImageFix"/>
<feBlend mode="normal" in="SourceGraphic" in2="BackgroundImageFix" result="shape"/>
<feColorMatrix in="SourceAlpha" type="matrix" values="0 0 0 0 0 0 0 0 0 0 0 0 0 0 0 0 0 0 127 0" result="hardAlpha"/>
<feOffset dy="-1"/>
<feGaussianBlur stdDeviation="2"/>
<feComposite in2="hardAlpha" operator="arithmetic" k2="-1" k3="1"/>
<feColorMatrix type="matrix" values="0 0 0 0 0.894118 0 0 0 0 0.941176 0 0 0 0 0.996078 0 0 0 1 0"/>
<feBlend mode="normal" in2="shape" result="effect1_innerShadow_334_13936"/>
</filter>
<filter id="filter2_f_334_13936" x="-3" y="229" width="469.144" height="170.368" filterUnits="userSpaceOnUse" color-interpolation-filters="sRGB">
<feFlood flood-opacity="0" result="BackgroundImageFix"/>
<feBlend mode="normal" in="SourceGraphic" in2="BackgroundImageFix" result="shape"/>
<feGaussianBlur stdDeviation="15" result="effect1_foregroundBlur_334_13936"/>
</filter>
<filter id="filter3_f_334_13936" x="168.296" y="295.264" width="54.088" height="4.68823" filterUnits="userSpaceOnUse" color-interpolation-filters="sRGB">
<feFlood flood-opacity="0" result="BackgroundImageFix"/>
<feBlend mode="normal" in="SourceGraphic" in2="BackgroundImageFix" result="shape"/>
<feGaussianBlur stdDeviation="0.5" result="effect1_foregroundBlur_334_13936"/>
</filter>
<filter id="filter4_f_334_13936" x="309.296" y="356.264" width="54.088" height="4.68823" filterUnits="userSpaceOnUse" color-interpolation-filters="sRGB">
<feFlood flood-opacity="0" result="BackgroundImageFix"/>
<feBlend mode="normal" in="SourceGraphic" in2="BackgroundImageFix" result="shape"/>
<feGaussianBlur stdDeviation="0.5" result="effect1_foregroundBlur_334_13936"/>
</filter>
<filter id="filter5_f_334_13936" x="80.4904" y="320.793" width="78.0397" height="5.94824" filterUnits="userSpaceOnUse" color-interpolation-filters="sRGB">
<feFlood flood-opacity="0" result="BackgroundImageFix"/>
<feBlend mode="normal" in="SourceGraphic" in2="BackgroundImageFix" result="shape"/>
<feGaussianBlur stdDeviation="0.5" result="effect1_foregroundBlur_334_13936"/>
</filter>
<filter id="filter6_f_334_13936" x="264" y="296" width="91" height="26" filterUnits="userSpaceOnUse" color-interpolation-filters="sRGB">
<feFlood flood-opacity="0" result="BackgroundImageFix"/>
<feBlend mode="normal" in="SourceGraphic" in2="BackgroundImageFix" result="shape"/>
<feGaussianBlur stdDeviation="3" result="effect1_foregroundBlur_334_13936"/>
</filter>
<filter id="filter7_f_334_13936" x="266" y="298" width="60" height="22" filterUnits="userSpaceOnUse" color-interpolation-filters="sRGB">
<feFlood flood-opacity="0" result="BackgroundImageFix"/>
<feBlend mode="normal" in="SourceGraphic" in2="BackgroundImageFix" result="shape"/>
<feGaussianBlur stdDeviation="2" result="effect1_foregroundBlur_334_13936"/>
</filter>
<filter id="filter8_iii_334_13936" x="239.222" y="170.297" width="85.6329" height="87.8811" filterUnits="userSpaceOnUse" color-interpolation-filters="sRGB">
<feFlood flood-opacity="0" result="BackgroundImageFix"/>
<feBlend mode="normal" in="SourceGraphic" in2="BackgroundImageFix" result="shape"/>
<feColorMatrix in="SourceAlpha" type="matrix" values="0 0 0 0 0 0 0 0 0 0 0 0 0 0 0 0 0 0 127 0" result="hardAlpha"/>
<feOffset/>
<feGaussianBlur stdDeviation="8"/>
<feComposite in2="hardAlpha" operator="arithmetic" k2="-1" k3="1"/>
<feColorMatrix type="matrix" values="0 0 0 0 0.775 0 0 0 0 0.442267 0 0 0 0 0.0516667 0 0 0 1 0"/>
<feBlend mode="normal" in2="shape" result="effect1_innerShadow_334_13936"/>
<feColorMatrix in="SourceAlpha" type="matrix" values="0 0 0 0 0 0 0 0 0 0 0 0 0 0 0 0 0 0 127 0" result="hardAlpha"/>
<feOffset dy="2"/>
<feGaussianBlur stdDeviation="4"/>
<feComposite in2="hardAlpha" operator="arithmetic" k2="-1" k3="1"/>
<feColorMatrix type="matrix" values="0 0 0 0 1 0 0 0 0 0.937667 0 0 0 0 0.716667 0 0 0 0.69 0"/>
<feBlend mode="normal" in2="effect1_innerShadow_334_13936" result="effect2_innerShadow_334_13936"/>
<feColorMatrix in="SourceAlpha" type="matrix" values="0 0 0 0 0 0 0 0 0 0 0 0 0 0 0 0 0 0 127 0" result="hardAlpha"/>
<feOffset dx="4" dy="3"/>
<feGaussianBlur stdDeviation="2.5"/>
<feComposite in2="hardAlpha" operator="arithmetic" k2="-1" k3="1"/>
<feColorMatrix type="matrix" values="0 0 0 0 0.838785 0 0 0 0 0.905255 0 0 0 0 0.991667 0 0 0 0.33 0"/>
<feBlend mode="normal" in2="effect2_innerShadow_334_13936" result="effect3_innerShadow_334_13936"/>
</filter>
<filter id="filter9_d_334_13936" x="300.036" y="232.831" width="40.5914" height="17.1614" filterUnits="userSpaceOnUse" color-interpolation-filters="sRGB">
<feFlood flood-opacity="0" result="BackgroundImageFix"/>
<feColorMatrix in="SourceAlpha" type="matrix" values="0 0 0 0 0 0 0 0 0 0 0 0 0 0 0 0 0 0 127 0" result="hardAlpha"/>
<feOffset dy="2"/>
<feGaussianBlur stdDeviation="1.5"/>
<feComposite in2="hardAlpha" operator="out"/>
<feColorMatrix type="matrix" values="0 0 0 0 0 0 0 0 0 0 0 0 0 0 0 0 0 0 0.25 0"/>
<feBlend mode="normal" in2="BackgroundImageFix" result="effect1_dropShadow_334_13936"/>
<feBlend mode="normal" in="SourceGraphic" in2="effect1_dropShadow_334_13936" result="shape"/>
</filter>
<filter id="filter10_d_334_13936" x="286.206" y="207.754" width="13.0419" height="10.426" filterUnits="userSpaceOnUse" color-interpolation-filters="sRGB">
<feFlood flood-opacity="0" result="BackgroundImageFix"/>
<feColorMatrix in="SourceAlpha" type="matrix" values="0 0 0 0 0 0 0 0 0 0 0 0 0 0 0 0 0 0 127 0" result="hardAlpha"/>
<feOffset dy="2"/>
<feGaussianBlur stdDeviation="1.5"/>
<feColorMatrix type="matrix" values="0 0 0 0 0.652868 0 0 0 0 0.80806 0 0 0 0 0.951313 0 0 0 1 0"/>
<feBlend mode="normal" in2="BackgroundImageFix" result="effect1_dropShadow_334_13936"/>
<feBlend mode="normal" in="SourceGraphic" in2="effect1_dropShadow_334_13936" result="shape"/>
</filter>
<filter id="filter11_i_334_13936" x="288.206" y="208.754" width="8.04193" height="4.42603" filterUnits="userSpaceOnUse" color-interpolation-filters="sRGB">
<feFlood flood-opacity="0" result="BackgroundImageFix"/>
<feBlend mode="normal" in="SourceGraphic" in2="BackgroundImageFix" result="shape"/>
<feColorMatrix in="SourceAlpha" type="matrix" values="0 0 0 0 0 0 0 0 0 0 0 0 0 0 0 0 0 0 127 0" result="hardAlpha"/>
<feOffset dx="-1"/>
<feGaussianBlur stdDeviation="0.5"/>
<feComposite in2="hardAlpha" operator="arithmetic" k2="-1" k3="1"/>
<feColorMatrix type="matrix" values="0 0 0 0 0.475832 0 0 0 0 0.806507 0 0 0 0 0.99465 0 0 0 1 0"/>
<feBlend mode="normal" in2="shape" result="effect1_innerShadow_334_13936"/>
</filter>
<filter id="filter12_f_334_13936" x="263.774" y="167.968" width="42.041" height="37.522" filterUnits="userSpaceOnUse" color-interpolation-filters="sRGB">
<feFlood flood-opacity="0" result="BackgroundImageFix"/>
<feBlend mode="normal" in="SourceGraphic" in2="BackgroundImageFix" result="shape"/>
<feGaussianBlur stdDeviation="6" result="effect1_foregroundBlur_334_13936"/>
</filter>
<filter id="filter13_i_334_13936" x="273.24" y="246.735" width="38.7464" height="48.0916" filterUnits="userSpaceOnUse" color-interpolation-filters="sRGB">
<feFlood flood-opacity="0" result="BackgroundImageFix"/>
<feBlend mode="normal" in="SourceGraphic" in2="BackgroundImageFix" result="shape"/>
<feColorMatrix in="SourceAlpha" type="matrix" values="0 0 0 0 0 0 0 0 0 0 0 0 0 0 0 0 0 0 127 0" result="hardAlpha"/>
<feOffset/>
<feGaussianBlur stdDeviation="3.5"/>
<feComposite in2="hardAlpha" operator="arithmetic" k2="-1" k3="1"/>
<feColorMatrix type="matrix" values="0 0 0 0 0.129412 0 0 0 0 0.117647 0 0 0 0 0.223529 0 0 0 1 0"/>
<feBlend mode="normal" in2="shape" result="effect1_innerShadow_334_13936"/>
</filter>
<filter id="filter14_d_334_13936" x="256.91" y="246.594" width="31.8873" height="17.1948" filterUnits="userSpaceOnUse" color-interpolation-filters="sRGB">
<feFlood flood-opacity="0" result="BackgroundImageFix"/>
<feColorMatrix in="SourceAlpha" type="matrix" values="0 0 0 0 0 0 0 0 0 0 0 0 0 0 0 0 0 0 127 0" result="hardAlpha"/>
<feOffset/>
<feGaussianBlur stdDeviation="2"/>
<feComposite in2="hardAlpha" operator="out"/>
<feColorMatrix type="matrix" values="0 0 0 0 0.237228 0 0 0 0 0.20375 0 0 0 0 0.3 0 0 0 0.5 0"/>
<feBlend mode="normal" in2="BackgroundImageFix" result="effect1_dropShadow_334_13936"/>
<feBlend mode="normal" in="SourceGraphic" in2="effect1_dropShadow_334_13936" result="shape"/>
</filter>
<filter id="filter15_d_334_13936" x="293.838" y="238.265" width="25.1487" height="30.6948" filterUnits="userSpaceOnUse" color-interpolation-filters="sRGB">
<feFlood flood-opacity="0" result="BackgroundImageFix"/>
<feColorMatrix in="SourceAlpha" type="matrix" values="0 0 0 0 0 0 0 0 0 0 0 0 0 0 0 0 0 0 127 0" result="hardAlpha"/>
<feOffset dy="3"/>
<feGaussianBlur stdDeviation="3.5"/>
<feColorMatrix type="matrix" values="0 0 0 0 0.720833 0 0 0 0 0.148303 0 0 0 0 0.108125 0 0 0 0.5 0"/>
<feBlend mode="multiply" in2="BackgroundImageFix" result="effect1_dropShadow_334_13936"/>
<feBlend mode="normal" in="SourceGraphic" in2="effect1_dropShadow_334_13936" result="shape"/>
</filter>
<filter id="filter16_di_334_13936" x="306.992" y="255.094" width="4.3313" height="7.02466" filterUnits="userSpaceOnUse" color-interpolation-filters="sRGB">
<feFlood flood-opacity="0" result="BackgroundImageFix"/>
<feColorMatrix in="SourceAlpha" type="matrix" values="0 0 0 0 0 0 0 0 0 0 0 0 0 0 0 0 0 0 127 0" result="hardAlpha"/>
<feOffset dy="1"/>
<feGaussianBlur stdDeviation="0.5"/>
<feComposite in2="hardAlpha" operator="out"/>
<feColorMatrix type="matrix" values="0 0 0 0 0.097963 0 0 0 0 0.08625 0 0 0 0 0.191667 0 0 0 0.7 0"/>
<feBlend mode="multiply" in2="BackgroundImageFix" result="effect1_dropShadow_334_13936"/>
<feBlend mode="normal" in="SourceGraphic" in2="effect1_dropShadow_334_13936" result="shape"/>
<feColorMatrix in="SourceAlpha" type="matrix" values="0 0 0 0 0 0 0 0 0 0 0 0 0 0 0 0 0 0 127 0" result="hardAlpha"/>
<feOffset dy="-1"/>
<feGaussianBlur stdDeviation="1"/>
<feComposite in2="hardAlpha" operator="arithmetic" k2="-1" k3="1"/>
<feColorMatrix type="matrix" values="0 0 0 0 0.0623698 0 0 0 0 0.0488542 0 0 0 0 0.175 0 0 0 1 0"/>
<feBlend mode="normal" in2="shape" result="effect2_innerShadow_334_13936"/>
</filter>
<filter id="filter17_i_334_13936" x="58.2146" y="118.495" width="129.702" height="95.9961" filterUnits="userSpaceOnUse" color-interpolation-filters="sRGB">
<feFlood flood-opacity="0" result="BackgroundImageFix"/>
<feBlend mode="normal" in="SourceGraphic" in2="BackgroundImageFix" result="shape"/>
<feColorMatrix in="SourceAlpha" type="matrix" values="0 0 0 0 0 0 0 0 0 0 0 0 0 0 0 0 0 0 127 0" result="hardAlpha"/>
<feOffset dy="2"/>
<feComposite in2="hardAlpha" operator="arithmetic" k2="-1" k3="1"/>
<feColorMatrix type="matrix" values="0 0 0 0 1 0 0 0 0 1 0 0 0 0 1 0 0 0 0.25 0"/>
<feBlend mode="normal" in2="shape" result="effect1_innerShadow_334_13936"/>
</filter>
<filter id="filter18_i_334_13936" x="191" y="141" width="31" height="19" filterUnits="userSpaceOnUse" color-interpolation-filters="sRGB">
<feFlood flood-opacity="0" result="BackgroundImageFix"/>
<feBlend mode="normal" in="SourceGraphic" in2="BackgroundImageFix" result="shape"/>
<feColorMatrix in="SourceAlpha" type="matrix" values="0 0 0 0 0 0 0 0 0 0 0 0 0 0 0 0 0 0 127 0" result="hardAlpha"/>
<feOffset dy="-1"/>
<feGaussianBlur stdDeviation="2"/>
<feComposite in2="hardAlpha" operator="arithmetic" k2="-1" k3="1"/>
<feColorMatrix type="matrix" values="0 0 0 0 0.894118 0 0 0 0 0.941176 0 0 0 0 0.996078 0 0 0 1 0"/>
<feBlend mode="normal" in2="shape" result="effect1_innerShadow_334_13936"/>
</filter>
<radialGradient id="paint0_radial_334_13936" cx="0" cy="0" r="1" gradientUnits="userSpaceOnUse" gradientTransform="translate(233.803 243.224) scale(241.002 243.251)">
<stop stop-color="white" stop-opacity="0"/>
<stop offset="1" stop-color="#BDE3FF"/>
<stop offset="1" stop-color="#BADAFF"/>
</radialGradient>
<linearGradient id="paint1_linear_334_13936" x1="182.5" y1="273.5" x2="189" y2="106" gradientUnits="userSpaceOnUse">
<stop stop-color="white" stop-opacity="0"/>
<stop offset="1" stop-color="#A2C5F9"/>
</linearGradient>
<linearGradient id="paint2_linear_334_13936" x1="175.207" y1="106.177" x2="175.207" y2="308.452" gradientUnits="userSpaceOnUse">
<stop stop-color="#86BEFF" stop-opacity="0.48"/>
<stop offset="1" stop-color="#8AD4FD" stop-opacity="0.44"/>
</linearGradient>
<linearGradient id="paint3_linear_334_13936" x1="295.467" y1="292.546" x2="301.64" y2="131.687" gradientUnits="userSpaceOnUse">
<stop stop-color="white" stop-opacity="0"/>
<stop offset="1" stop-color="#A2C5F9"/>
</linearGradient>
<linearGradient id="paint4_linear_334_13936" x1="288.385" y1="131.862" x2="288.385" y2="326.111" gradientUnits="userSpaceOnUse">
<stop stop-color="#86BEFF" stop-opacity="0.48"/>
<stop offset="1" stop-color="#5298EB" stop-opacity="0"/>
</linearGradient>
<linearGradient id="paint5_linear_334_13936" x1="231.572" y1="243.282" x2="231.572" y2="399.039" gradientUnits="userSpaceOnUse">
<stop stop-color="#F8FCFF"/>
<stop offset="1" stop-color="#C9DCF5" stop-opacity="0"/>
</linearGradient>
<linearGradient id="paint6_linear_334_13936" x1="221.354" y1="298.952" x2="158.337" y2="297.852" gradientUnits="userSpaceOnUse">
<stop stop-color="#D2EAFF" stop-opacity="0.457332"/>
<stop offset="1" stop-color="#89A6C7"/>
</linearGradient>
<linearGradient id="paint7_linear_334_13936" x1="168.225" y1="289.046" x2="172.407" y2="289.046" gradientUnits="userSpaceOnUse">
<stop stop-color="#E8DFDB"/>
<stop offset="1" stop-color="#CCB9B5"/>
</linearGradient>
<linearGradient id="paint8_linear_334_13936" x1="362.354" y1="359.952" x2="299.337" y2="358.852" gradientUnits="userSpaceOnUse">
<stop stop-color="#D2EAFF" stop-opacity="0.457332"/>
<stop offset="1" stop-color="#89A6C7"/>
</linearGradient>
<linearGradient id="paint9_linear_334_13936" x1="309.225" y1="350.046" x2="313.407" y2="350.046" gradientUnits="userSpaceOnUse">
<stop stop-color="#E8DFDB"/>
<stop offset="1" stop-color="#CCB9B5"/>
</linearGradient>
<linearGradient id="paint10_linear_334_13936" x1="157.486" y1="325.742" x2="65.4915" y2="324.146" gradientUnits="userSpaceOnUse">
<stop stop-color="#D2EAFF" stop-opacity="0.457332"/>
<stop offset="1" stop-color="#89A6C7"/>
</linearGradient>
<linearGradient id="paint11_linear_334_13936" x1="79.9274" y1="311.192" x2="86.0316" y2="311.192" gradientUnits="userSpaceOnUse">
<stop stop-color="#E8DFDB"/>
<stop offset="1" stop-color="#CCB9B5"/>
</linearGradient>
<linearGradient id="paint12_linear_334_13936" x1="274.558" y1="309" x2="361.154" y2="309" gradientUnits="userSpaceOnUse">
<stop stop-color="#C3D9F5"/>
<stop offset="1" stop-color="#D5E4F7" stop-opacity="0"/>
</linearGradient>
<linearGradient id="paint13_linear_334_13936" x1="273" y1="309" x2="330" y2="309" gradientUnits="userSpaceOnUse">
<stop stop-color="#C3D9F5"/>
<stop offset="1" stop-color="#D5E4F7" stop-opacity="0"/>
</linearGradient>
<radialGradient id="paint14_radial_334_13936" cx="0" cy="0" r="1" gradientUnits="userSpaceOnUse" gradientTransform="translate(302.957 206.468) rotate(141.581) scale(62.9836 43.925)">
<stop stop-color="#FFD1A7"/>
<stop offset="1" stop-color="#EE8A2F"/>
</radialGradient>
<linearGradient id="paint15_linear_334_13936" x1="269.242" y1="182.61" x2="285.447" y2="252.546" gradientUnits="userSpaceOnUse">
<stop stop-color="#FFF6A4"/>
<stop offset="1" stop-color="#FBC779"/>
</linearGradient>
<linearGradient id="paint16_linear_334_13936" x1="242" y1="184" x2="273.494" y2="195.018" gradientUnits="userSpaceOnUse">
<stop stop-color="#CCDFF6"/>
<stop offset="1" stop-color="#E8F3FE" stop-opacity="0"/>
</linearGradient>
<linearGradient id="paint17_linear_334_13936" x1="329.246" y1="236.538" x2="310.653" y2="238.856" gradientUnits="userSpaceOnUse">
<stop stop-color="#7A4533"/>
<stop offset="1" stop-color="#572E20"/>
</linearGradient>
<linearGradient id="paint18_linear_334_13936" x1="322.809" y1="229.555" x2="314.472" y2="236.692" gradientUnits="userSpaceOnUse">
<stop stop-color="#F2422E"/>
<stop offset="1" stop-color="#772609"/>
</linearGradient>
<linearGradient id="paint19_linear_334_13936" x1="334.321" y1="223.066" x2="306.341" y2="238.321" gradientUnits="userSpaceOnUse">
<stop stop-color="#6B3625"/>
<stop offset="1" stop-color="#39231A"/>
</linearGradient>
<radialGradient id="paint20_radial_334_13936" cx="0" cy="0" r="1" gradientUnits="userSpaceOnUse" gradientTransform="translate(324.112 213.223) rotate(149.452) scale(31.4045 123.411)">
<stop stop-color="#AC826A"/>
<stop offset="1" stop-color="#572B1A"/>
</radialGradient>
<radialGradient id="paint21_radial_334_13936" cx="0" cy="0" r="1" gradientUnits="userSpaceOnUse" gradientTransform="translate(265.553 202.324) rotate(-3.04932) scale(9.16996 5.35443)">
<stop stop-color="white"/>
<stop offset="0.420958" stop-color="#C6EDFF"/>
<stop offset="1" stop-color="#9DDBFF"/>
</radialGradient>
<linearGradient id="paint22_linear_334_13936" x1="311.848" y1="251.706" x2="279.611" y2="272.651" gradientUnits="userSpaceOnUse">
<stop stop-color="#615C84"/>
<stop offset="1" stop-color="#43405F"/>
</linearGradient>
<linearGradient id="paint23_linear_334_13936" x1="257.434" y1="253.947" x2="261.906" y2="255.856" gradientUnits="userSpaceOnUse">
<stop stop-color="#FFBF86"/>
<stop offset="1" stop-color="#DD7922"/>
</linearGradient>
<linearGradient id="paint24_linear_334_13936" x1="263.007" y1="253.538" x2="280.549" y2="256.906" gradientUnits="userSpaceOnUse">
<stop stop-color="#6D6182"/>
<stop offset="1" stop-color="#3D3748"/>
</linearGradient>
<linearGradient id="paint25_linear_334_13936" x1="270.159" y1="300.903" x2="329.022" y2="271.701" gradientUnits="userSpaceOnUse">
<stop stop-color="#D8E9FF"/>
<stop offset="1" stop-color="#F4F8FF"/>
</linearGradient>
<linearGradient id="paint26_linear_334_13936" x1="302.598" y1="256.982" x2="307.621" y2="253.663" gradientUnits="userSpaceOnUse">
<stop stop-color="#DE0C0C"/>
<stop offset="1" stop-color="#910821"/>
</linearGradient>
<linearGradient id="paint27_linear_334_13936" x1="303.331" y1="243.131" x2="309.904" y2="246.663" gradientUnits="userSpaceOnUse">
<stop stop-color="#F7431C"/>
<stop offset="1" stop-color="#B40625"/>
</linearGradient>
<linearGradient id="paint28_linear_334_13936" x1="312.573" y1="249.431" x2="308.781" y2="250.195" gradientUnits="userSpaceOnUse">
<stop stop-color="#F56F45"/>
<stop offset="1" stop-color="#CC0B11"/>
</linearGradient>
<radialGradient id="paint29_radial_334_13936" cx="0" cy="0" r="1" gradientUnits="userSpaceOnUse" gradientTransform="translate(1.1148 1.48408) rotate(90) scale(2.59714 1.41884)">
<stop stop-color="#565082"/>
<stop offset="1" stop-color="#3F3C58"/>
<stop offset="1" stop-color="#130F36"/>
</radialGradient>
<linearGradient id="paint30_linear_334_13936" x1="90.923" y1="117.981" x2="90.923" y2="123.214" gradientUnits="userSpaceOnUse">
<stop stop-color="#B7D2F3"/>
<stop offset="1" stop-color="#89BAF8"/>
</linearGradient>
<linearGradient id="paint31_linear_334_13936" x1="113.991" y1="122.675" x2="113.991" y2="148.187" gradientUnits="userSpaceOnUse">
<stop stop-color="#ECF4FE"/>
<stop offset="1" stop-color="#A3C5EF"/>
</linearGradient>
<linearGradient id="paint32_linear_334_13936" x1="123.066" y1="137.889" x2="123.066" y2="195.098" gradientUnits="userSpaceOnUse">
<stop stop-color="#D6E5F7"/>
<stop offset="1" stop-color="#BFD6F5"/>
</linearGradient>
<linearGradient id="paint33_linear_334_13936" x1="126.72" y1="161.713" x2="126.373" y2="185.118" gradientUnits="userSpaceOnUse">
<stop stop-color="#C1D7F6"/>
<stop offset="1" stop-color="#E7F1FF"/>
</linearGradient>
<linearGradient id="paint34_linear_334_13936" x1="132.198" y1="141.806" x2="132.01" y2="149.498" gradientUnits="userSpaceOnUse">
<stop stop-color="#B0CEF8"/>
<stop offset="1" stop-color="#E7F1FF"/>
</linearGradient>
<linearGradient id="paint35_linear_334_13936" x1="100.435" y1="162.84" x2="100.248" y2="170.532" gradientUnits="userSpaceOnUse">
<stop stop-color="#B0CEF8"/>
<stop offset="1" stop-color="#E7F1FF"/>
</linearGradient>
<linearGradient id="paint36_linear_334_13936" x1="163.659" y1="139.516" x2="163.472" y2="147.207" gradientUnits="userSpaceOnUse">
<stop stop-color="#B0CEF8"/>
<stop offset="1" stop-color="#E7F1FF"/>
</linearGradient>
<linearGradient id="paint37_linear_334_13936" x1="85.7682" y1="191.099" x2="85.5808" y2="198.791" gradientUnits="userSpaceOnUse">
<stop stop-color="#B0CEF8"/>
<stop offset="1" stop-color="#E7F1FF"/>
</linearGradient>
<linearGradient id="paint38_linear_334_13936" x1="107.106" y1="198.272" x2="107.028" y2="202.681" gradientUnits="userSpaceOnUse">
<stop stop-color="#B0CEF8"/>
<stop offset="1" stop-color="#E7F1FF"/>
</linearGradient>
<linearGradient id="paint39_linear_334_13936" x1="160.345" y1="162.222" x2="160.267" y2="166.631" gradientUnits="userSpaceOnUse">
<stop stop-color="#B0CEF8"/>
<stop offset="1" stop-color="#E7F1FF"/>
</linearGradient>
<linearGradient id="paint40_linear_334_13936" x1="136.945" y1="186.23" x2="136.913" y2="189.073" gradientUnits="userSpaceOnUse">
<stop stop-color="#B0CEF8"/>
<stop offset="1" stop-color="#E7F1FF"/>
</linearGradient>
<linearGradient id="paint41_linear_334_13936" x1="89.1039" y1="109.838" x2="88.8858" y2="118.901" gradientUnits="userSpaceOnUse">
<stop stop-color="#ECF4FE"/>
<stop offset="1" stop-color="#A3C5EF"/>
</linearGradient>
<linearGradient id="paint42_linear_334_13936" x1="126.66" y1="172.7" x2="166.785" y2="233.29" gradientUnits="userSpaceOnUse">
<stop stop-color="#AED2FF"/>
<stop offset="1" stop-color="#CEDEF4" stop-opacity="0"/>
</linearGradient>
<clipPath id="clip0_334_13936">
<rect width="466" height="466" fill="white"/>
</clipPath>
</defs>
</svg>
