<svg width="128" height="128" viewBox="0 0 128 128" fill="none" xmlns="http://www.w3.org/2000/svg">
<path d="M8 92.3658C8 98.9459 33.3197 104.148 64.4446 104.148C95.5694 104.148 120.89 98.9112 120.89 92.3658C120.89 85.8373 95.5694 80.5848 64.4446 80.5848C33.3197 80.5848 8 85.8212 8 92.3658V92.3658Z" fill="#F5F5F5"/>
<path d="M15.7337 95.0531C15.7337 100.083 37.5741 104.131 64.4446 104.131C91.3151 104.131 113.156 100.085 113.156 95.0531C113.156 90.0238 91.3151 85.9757 64.4446 85.9757C37.5741 85.9757 15.7337 90.0746 15.7337 95.0531V95.0531Z" fill="#EBEAEA"/>
<path d="M26.5157 98.7395C26.5157 101.65 43.5338 103.976 64.393 103.976C85.2522 103.976 102.253 101.65 102.253 98.7395C102.253 95.8289 85.2345 93.5032 64.3753 93.5032C43.5161 93.5032 26.5157 95.8289 26.5157 98.7395Z" fill="#DCDBDC"/>
<path d="M88.3521 90.799C88.1451 90.799 87.7834 90.5927 87.7834 90.5927C87.5772 90.3857 87.5771 90.231 87.5771 90.024C87.5771 89.817 87.7834 89.4553 87.7834 89.4553C88.1451 89.0952 88.7654 89.0952 88.9209 89.4553C89.1271 89.6631 89.1271 89.817 89.1271 90.024C89.1271 90.231 88.9209 90.5927 88.9209 90.5927C88.7654 90.6427 88.5592 90.799 88.3521 90.799V90.799Z" fill="#B4B1B1"/>
<path d="M55.0038 37.5911H54.0218C53.8148 37.5911 53.4531 37.3849 53.4531 37.0232C53.4531 36.8162 53.6593 36.4536 54.0218 36.4536H55.0038C55.2101 36.4536 55.5726 36.6615 55.5726 37.0232C55.5887 37.3849 55.434 37.5911 55.0038 37.5911ZM53.6601 35.6102C53.5557 35.7098 53.4169 35.7653 53.2726 35.7653C53.1283 35.7653 52.9896 35.7098 52.8851 35.6102C52.7855 35.5058 52.73 35.367 52.73 35.2227C52.73 35.0784 52.7855 34.9396 52.8851 34.8352L53.6601 34.0602C53.7645 33.9606 53.9033 33.9051 54.0476 33.9051C54.1919 33.9051 54.3307 33.9606 54.4351 34.0602C54.5341 34.1649 54.5893 34.3036 54.5893 34.4477C54.5893 34.5918 54.5341 34.7305 54.4351 34.8352L53.6601 35.6102ZM51.3352 41.4322C51.1281 41.4322 50.7664 41.226 50.7664 40.8643V39.7276C50.7664 39.5205 50.9726 39.1588 51.3352 39.1588C51.5414 39.1588 51.9039 39.3651 51.9039 39.7276V40.7096C51.7492 41.0544 51.5414 41.4322 51.3352 41.4322V41.4322ZM51.3352 34.8352C51.1281 34.8352 50.7664 34.6282 50.7664 34.2665V33.2844C50.7664 33.0782 50.9726 32.7157 51.3352 32.7157C51.5414 32.7157 51.9039 32.9219 51.9039 33.2844V34.2665C51.7492 34.6805 51.5414 34.8352 51.3352 34.8352ZM49.0441 40.0716C48.9394 40.1708 48.8008 40.2261 48.6566 40.2261C48.5124 40.2261 48.3737 40.1708 48.2691 40.0716C48.1699 39.9669 48.1146 39.8282 48.1146 39.6841C48.1146 39.5399 48.1699 39.4012 48.2691 39.2966L49.0441 38.5216C49.1485 38.422 49.2873 38.3665 49.4316 38.3665C49.5759 38.3665 49.7146 38.422 49.819 38.5216C49.9183 38.6262 49.9736 38.7649 49.9736 38.9091C49.9736 39.0533 49.9183 39.192 49.819 39.2966L49.0441 40.0716ZM49.0441 35.6102L48.2691 34.8352C48.1699 34.7306 48.1146 34.5919 48.1146 34.4477C48.1146 34.3035 48.1699 34.1648 48.2691 34.0602C48.3735 33.9606 48.5123 33.9051 48.6566 33.9051C48.8009 33.9051 48.9396 33.9606 49.0441 34.0602L49.8199 34.8352C49.9191 34.9398 49.9744 35.0785 49.9744 35.2227C49.9744 35.3669 49.9191 35.5056 49.8199 35.6102C49.612 35.818 49.1987 35.818 49.0441 35.6102ZM49.1987 37.1779C49.1987 37.3849 48.9917 37.7466 48.63 37.7466H47.648C47.4409 37.7466 47.0792 37.5404 47.0792 37.1779C47.0792 36.9716 47.2855 36.6091 47.648 36.6091H48.63C48.837 36.5922 49.1987 36.8 49.1987 37.1779ZM53.6601 38.7278L54.4351 39.5028C54.534 39.6077 54.5891 39.7465 54.5891 39.8907C54.5891 40.0349 54.534 40.1737 54.4351 40.2786C54.3305 40.3778 54.1918 40.4331 54.0476 40.4331C53.9034 40.4331 53.7647 40.3778 53.6601 40.2786L52.8851 39.5028C52.7855 39.3984 52.73 39.2596 52.73 39.1153C52.73 38.971 52.7855 38.8323 52.8851 38.7278C53.0922 38.3669 53.2984 38.3669 53.6601 38.7278ZM107.136 27.1893H106.494C106.358 27.1893 106.122 27.0548 106.122 26.818C106.122 26.6826 106.256 26.445 106.494 26.445H107.136C107.271 26.445 107.508 26.5811 107.508 26.818C107.519 27.0548 107.418 27.1893 107.136 27.1893ZM106.258 25.8931C106.19 25.9583 106.099 25.9946 106.004 25.9946C105.91 25.9946 105.819 25.9583 105.75 25.8931C105.685 25.8248 105.649 25.7341 105.649 25.6398C105.649 25.5454 105.685 25.4547 105.75 25.3864L106.258 24.8797C106.326 24.8146 106.417 24.7784 106.511 24.7784C106.606 24.7784 106.696 24.8146 106.765 24.8797C106.83 24.9481 106.866 25.0388 106.866 25.1331C106.866 25.2273 106.83 25.318 106.765 25.3864L106.258 25.8931ZM104.736 29.702C104.601 29.702 104.364 29.5674 104.364 29.3306V28.587C104.364 28.4517 104.499 28.2149 104.736 28.2149C104.872 28.2149 105.108 28.3494 105.108 28.587V29.2291C105.007 29.4547 104.872 29.702 104.736 29.702V29.702ZM104.736 25.3864C104.601 25.3864 104.364 25.2511 104.364 25.0142V24.3722C104.364 24.2376 104.499 24 104.736 24C104.872 24 105.108 24.1345 105.108 24.3722V25.0142C105.007 25.2849 104.872 25.3864 104.736 25.3864ZM103.238 28.8126C103.169 28.8774 103.078 28.9134 102.984 28.9134C102.89 28.9134 102.799 28.8774 102.73 28.8126C102.665 28.7442 102.629 28.6535 102.629 28.5592C102.629 28.465 102.665 28.3743 102.73 28.3059L103.238 27.7992C103.306 27.7341 103.397 27.6977 103.492 27.6977C103.586 27.6977 103.677 27.7341 103.745 27.7992C103.81 27.8675 103.847 27.9582 103.847 28.0525C103.847 28.1469 103.81 28.2376 103.745 28.3059L103.238 28.8126ZM103.238 25.8931L102.73 25.3864C102.665 25.318 102.629 25.2273 102.629 25.1331C102.629 25.0388 102.665 24.9481 102.73 24.8797C102.799 24.8146 102.89 24.7783 102.984 24.7783C103.079 24.7783 103.169 24.8146 103.238 24.8797L103.745 25.3864C103.81 25.4547 103.847 25.5454 103.847 25.6398C103.847 25.7341 103.81 25.8248 103.745 25.8931C103.61 26.0293 103.339 26.0293 103.238 25.8931ZM103.339 26.9195C103.339 27.0548 103.203 27.2916 102.967 27.2916H102.324C102.189 27.2916 101.952 27.1571 101.952 26.9195C101.952 26.7849 102.087 26.5473 102.324 26.5473H102.967C103.065 26.5491 103.159 26.589 103.228 26.6584C103.297 26.7278 103.337 26.8214 103.339 26.9195V26.9195ZM106.258 27.9329L106.765 28.4396C106.829 28.5082 106.866 28.599 106.866 28.6934C106.866 28.7877 106.829 28.8785 106.765 28.9471C106.696 29.012 106.606 29.0482 106.511 29.0482C106.417 29.0482 106.326 29.012 106.258 28.9471L105.75 28.4396C105.685 28.3713 105.649 28.2806 105.649 28.1863C105.649 28.0919 105.685 28.0012 105.75 27.9329C105.886 27.6969 106.021 27.6969 106.258 27.9329Z" fill="#DCDCDC"/>
<path d="M45.97 58.9941H81.9058L90.8922 80.8128V98.7823H36.9844V80.8136L45.97 58.9941Z" fill="#E4E7EA"/>
<path d="M45.9699 58.9941H81.9057V75.6779H45.9699V58.9941Z" fill="#E4E7EA"/>
<path d="M36.9852 98.7823V80.8136H57.5205C57.5394 82.5032 58.2239 84.1173 59.4254 85.3054C60.6269 86.4935 62.2485 87.1598 63.9382 87.1598C65.628 87.1598 67.2496 86.4935 68.4511 85.3054C69.6526 84.1173 70.3371 82.5032 70.356 80.8136H90.8921V98.7823H36.9852Z" fill="#EFF1F3"/>
<path d="M87.0414 39.7412L98.5928 26.9073L94.7412 43.5912L87.0414 39.7412ZM76.7733 35.8921L98.5928 26.909L84.474 39.7428L76.7733 35.8921ZM77.1584 52.2819C77.2604 52.386 77.3189 52.5251 77.3221 52.6709C77.3252 52.8166 77.2727 52.9581 77.1753 53.0665C76.6591 53.6173 76.1216 54.1478 75.5641 54.6568C75.4585 54.7482 75.3211 54.7941 75.1817 54.7844C75.0424 54.7747 74.9126 54.7103 74.8206 54.6052C74.7213 54.4922 74.6688 54.3457 74.6739 54.1954C74.679 54.0451 74.7413 53.9024 74.848 53.7964C75.3869 53.316 75.9036 52.8112 76.3963 52.2835C76.4436 52.2334 76.5003 52.1932 76.5632 52.1651C76.6261 52.137 76.6939 52.1215 76.7627 52.1197C76.8316 52.1178 76.9001 52.1295 76.9644 52.1542C77.0287 52.1788 77.0875 52.2159 77.1375 52.2633L77.1576 52.2835V52.2819H77.1584ZM71.9873 57.2637C71.9031 57.3142 71.8068 57.3409 71.7086 57.3409C71.6104 57.3409 71.514 57.3142 71.4298 57.2637C71.3459 57.208 71.2782 57.1311 71.2335 57.0409C71.1888 56.9506 71.1687 56.8502 71.1753 56.7497C71.1786 56.6507 71.2083 56.5544 71.2615 56.4708C71.3146 56.3872 71.3891 56.3194 71.4774 56.2744C72.0977 55.9238 72.6948 55.5336 73.265 55.1063C73.3842 55.031 73.528 55.0049 73.666 55.0334C73.8041 55.062 73.9257 55.143 74.0053 55.2593C74.087 55.3779 74.1214 55.5226 74.1019 55.6653C74.0823 55.8079 74.0103 55.938 73.8998 56.0303C73.2904 56.4835 72.6509 56.8947 71.9857 57.2612H71.9881V57.2637H71.9873ZM69.726 55.2094C69.5808 55.2215 69.4367 55.1758 69.3249 55.0823C69.2132 54.9888 69.1428 54.855 69.1291 54.7099C69.0961 54.0458 68.8864 53.4025 68.5217 52.8466C68.4391 52.7237 68.4072 52.5738 68.4324 52.4279C68.4576 52.2821 68.538 52.1516 68.657 52.0636C68.7134 52.0225 68.7774 51.993 68.8452 51.9767C68.9131 51.9604 68.9834 51.9577 69.0524 51.9686C69.1213 51.9795 69.1873 52.0039 69.2468 52.0404C69.3063 52.0769 69.358 52.1247 69.3989 52.1812L69.4159 52.2037C69.8984 52.9255 70.1715 53.7642 70.2158 54.631C70.2219 54.7716 70.1745 54.9093 70.0832 55.0165C69.9919 55.1236 69.8634 55.1922 69.7236 55.2086H69.726V55.2094ZM67.0321 51.5383C66.4378 51.2178 65.7932 51.0007 65.1261 50.8963C65.0296 50.8832 64.9386 50.844 64.8627 50.783C64.7869 50.7219 64.7292 50.6413 64.6959 50.5499C64.6602 50.4568 64.649 50.3561 64.6636 50.2574C64.6781 50.1588 64.7178 50.0656 64.7789 49.9867C64.8395 49.911 64.9187 49.8523 65.0088 49.8163C65.0989 49.7803 65.1967 49.7682 65.2929 49.7813C66.0769 49.9101 66.8349 50.1653 67.5372 50.537C67.6262 50.5828 67.7016 50.6511 67.7561 50.735C67.8106 50.8189 67.8422 50.9156 67.8479 51.0155C67.8536 51.1154 67.8332 51.215 67.7886 51.3046C67.744 51.3942 67.6768 51.4706 67.5936 51.5262C67.5113 51.5829 67.4142 51.6142 67.3143 51.6163C67.2144 51.6185 67.116 51.5914 67.0313 51.5383H67.0321V51.5383ZM65.7859 57.9935C65.7685 58.0634 65.7373 58.1291 65.694 58.1867C65.6507 58.2443 65.5964 58.2926 65.5341 58.3288C65.4717 58.3649 65.4028 58.3882 65.3314 58.3971C65.2599 58.4061 65.1873 58.4006 65.118 58.381C64.356 58.1603 63.6366 57.8131 62.9897 57.3539C62.8763 57.2643 62.8002 57.1358 62.7764 56.9933C62.7526 56.8508 62.7827 56.7045 62.8608 56.5829C62.8973 56.5238 62.9451 56.4724 63.0015 56.4318C63.0579 56.3912 63.1217 56.3621 63.1894 56.3462C63.2571 56.3303 63.3272 56.328 63.3958 56.3393C63.4644 56.3506 63.53 56.3754 63.589 56.4121C63.5922 56.4129 63.5939 56.4146 63.5955 56.4162C64.1513 56.8045 64.7652 57.1041 65.4145 57.3007C65.5549 57.3448 65.6724 57.4423 65.7416 57.5722C65.8108 57.7021 65.8261 57.854 65.7843 57.9951H65.7859V57.9935V57.9935ZM63.0622 50.91C62.4291 51.0003 61.8359 51.2723 61.3543 51.693C61.284 51.7572 61.1986 51.8025 61.1061 51.8249C61.0136 51.8473 60.9169 51.846 60.825 51.8211C60.731 51.7949 60.6471 51.741 60.5842 51.6664C60.4848 51.5566 60.4315 51.4128 60.4353 51.2648C60.439 51.1168 60.4995 50.9759 60.6043 50.8713C61.2386 50.2976 62.0274 49.9228 62.8729 49.7934C62.9678 49.7819 63.0641 49.7904 63.1556 49.8184C63.4408 49.9376 63.5826 50.2582 63.4803 50.5499C63.4485 50.6417 63.3928 50.7234 63.3191 50.7867C63.2454 50.8499 63.1561 50.8925 63.0606 50.91H63.0638H63.0622V50.91ZM61.1884 55.7064C60.6227 55.0901 60.1968 54.3589 59.9397 53.5628C59.9111 53.4675 59.9079 53.3664 59.9304 53.2695C59.9529 53.1725 60.0002 53.0832 60.0678 53.0101C60.1308 52.9372 60.2134 52.884 60.3058 52.8568C60.3983 52.8297 60.4966 52.8298 60.589 52.8571C60.7823 52.9006 60.9346 53.0504 60.9813 53.2421C61.1977 53.8764 61.5455 54.4578 62.002 54.9484C62.0986 55.0615 62.1477 55.2076 62.139 55.3562C62.1303 55.5047 62.0645 55.6441 61.9553 55.7451C61.856 55.8422 61.7223 55.8959 61.5834 55.8944C61.4446 55.8929 61.3121 55.8363 61.2149 55.7371C61.2061 55.7274 61.1964 55.7177 61.1884 55.7064V55.7064ZM77.9479 51.3675C77.8402 51.2699 77.7728 51.1357 77.7588 50.9911C77.7448 50.8464 77.7852 50.7017 77.8722 50.5853C78.3341 50.0204 78.78 49.4425 79.2094 48.8525C79.2513 48.7952 79.3042 48.7469 79.3652 48.7107C79.4261 48.6744 79.4937 48.6508 79.564 48.6413C79.6343 48.6318 79.7058 48.6366 79.7741 48.6555C79.8425 48.6743 79.9064 48.7068 79.9619 48.751C80.1955 48.9427 80.247 49.281 80.0795 49.5332C79.6387 50.1417 79.1793 50.7365 78.7019 51.3168C78.6115 51.4236 78.4824 51.4901 78.343 51.5018C78.2035 51.5134 78.0652 51.4692 77.9584 51.3788L77.9471 51.3699V51.3675H77.9479ZM80.9004 47.8777C80.8009 47.8726 80.7048 47.8398 80.623 47.783C80.5411 47.7262 80.4768 47.6477 80.4372 47.5563C80.3951 47.4639 80.3778 47.3621 80.3869 47.2609C80.3961 47.1598 80.4315 47.0628 80.4895 46.9795C80.8867 46.364 81.2718 45.7348 81.6439 45.092C81.6792 45.0292 81.7269 44.9742 81.784 44.9302C81.841 44.8863 81.9064 44.8543 81.9762 44.8363C82.0459 44.8182 82.1186 44.8144 82.1898 44.8251C82.261 44.8359 82.3294 44.8608 82.3907 44.8986C82.6485 45.0662 82.7307 45.4045 82.576 45.6712C82.2016 46.3276 81.8088 46.9734 81.3982 47.6078C81.3493 47.6953 81.2766 47.7672 81.1884 47.815C81.1003 47.8627 81.0004 47.8845 80.9004 47.8777V47.8777ZM82.9047 43.9625C82.7758 43.8873 82.6808 43.7653 82.6395 43.6219C82.5983 43.4784 82.6139 43.3246 82.6832 43.1924C82.8942 42.7944 83.1004 42.3828 83.2986 41.9735C83.3596 41.8523 83.465 41.7592 83.5928 41.7137C83.7207 41.6683 83.8612 41.6739 83.985 41.7294C84.1196 41.7928 84.2246 41.9056 84.2784 42.0442C84.3323 42.1829 84.3308 42.337 84.2742 42.4746C84.0696 42.8967 83.8585 43.3205 83.6426 43.7321C83.6094 43.7959 83.5639 43.8525 83.5088 43.8987C83.4536 43.9449 83.3899 43.9797 83.3213 44.0012C83.2526 44.0227 83.1804 44.0304 83.1088 44.0239C83.0372 44.0174 82.9675 43.9968 82.9039 43.9633H82.9047V43.9625ZM88.3247 42.307L85.7565 46.157V41.0221L88.3247 42.307ZM68.1559 58.7766C68.1578 58.7664 68.1629 58.7571 68.1704 58.75L68.2405 58.5703C67.986 58.6127 67.7295 58.6423 67.472 58.6589C67.331 58.6524 67.1976 58.5935 67.0977 58.4939C66.9978 58.3942 66.9387 58.2609 66.9319 58.1199C66.925 57.979 66.9709 57.8406 67.0607 57.7317C67.1504 57.6228 67.2775 57.5513 67.4172 57.5311H67.4244C67.8521 57.5031 68.277 57.4431 68.6957 57.3515C68.7609 57.1452 68.8238 56.9398 68.8801 56.736C68.915 56.5948 69.0045 56.4731 69.1289 56.3978C69.2534 56.3224 69.4026 56.2995 69.544 56.334L69.5536 56.3364C69.8356 56.4274 70.0007 56.7167 69.9403 57.0051C69.9234 57.0808 69.8944 57.1452 69.8759 57.2234C69.9089 57.2475 69.9484 57.2475 69.9774 57.2741C70.2005 57.4924 70.2158 57.8461 70.0128 58.0829C69.9444 58.1586 69.8549 58.2119 69.7558 58.236C69.6841 58.2626 69.61 58.2747 69.5375 58.3013C69.4489 58.5317 69.3522 58.7621 69.2507 58.9941H81.9082L90.8261 80.8127H90.8929V98.7822H36.9852V80.8135H37.0504L45.9683 58.9941H68.1503C68.1372 58.9219 68.1392 58.8479 68.1559 58.7766V58.7766ZM81.9074 62.2035V75.6803L84.0051 80.8127H89.3534L81.9074 62.2035V62.2035ZM38.2669 94.5231V97.4981H89.6072V82.0976H70.356C70.3558 83.7995 69.6796 85.4315 68.4761 86.6349C67.2726 87.8382 65.6405 88.5142 63.9386 88.5142C63.0959 88.5143 62.2614 88.3484 61.4828 88.026C60.7042 87.7036 59.9966 87.231 59.4007 86.6351C58.8047 86.0393 58.3319 85.3319 58.0093 84.5534C57.6867 83.7748 57.5206 82.9404 57.5205 82.0976H38.2693V94.5231H38.2669V94.5231ZM45.9699 62.2035L38.5255 80.8135H43.8714L45.9699 75.6811V62.2035V62.2035ZM45.199 80.8127H58.803V82.0976C58.8199 83.4482 59.3683 84.7378 60.3294 85.6869C61.2904 86.636 62.5867 87.1682 63.9374 87.1682C65.2881 87.1682 66.5845 86.636 67.5455 85.6869C68.5066 84.7378 69.055 83.4482 69.0719 82.0976V80.8127H82.6775L80.6225 75.6803H47.2516L45.199 80.8127V80.8127ZM47.2524 74.3962H80.6233V60.279H47.2524V74.3962V74.3962ZM66.548 63.1139C66.502 63.1669 66.446 63.2104 66.3832 63.2418C66.3204 63.2731 66.252 63.2918 66.182 63.2968C66.1119 63.3017 66.0416 63.2928 65.975 63.2705C65.9084 63.2483 65.8469 63.2131 65.7939 63.167L65.777 63.1525C65.6708 63.0493 65.6084 62.9092 65.6025 62.7612C65.5967 62.6133 65.6479 62.4687 65.7456 62.3574C66.2256 61.818 66.6702 61.2481 67.0764 60.6512C67.16 60.5389 67.2848 60.4644 67.4233 60.444C67.5618 60.4236 67.7027 60.459 67.8152 60.5424L67.8192 60.5456C68.0544 60.7229 68.1181 61.0523 67.9658 61.3037C67.535 61.9394 67.061 62.5448 66.5472 63.1155V63.1139H66.548ZM63.2378 66.2081C63.1236 66.2913 62.9812 66.3258 62.8416 66.3041C62.7021 66.2823 62.5768 66.2061 62.4934 66.0921C62.4079 65.9746 62.369 65.8296 62.3843 65.685C62.3996 65.5405 62.4681 65.4068 62.5764 65.3099C63.1454 64.8617 63.6959 64.3903 64.2262 63.8969C64.2797 63.8487 64.3423 63.8117 64.4103 63.7882C64.4783 63.7647 64.5504 63.7551 64.6222 63.7601C64.694 63.765 64.7641 63.7844 64.8282 63.8171C64.8924 63.8497 64.9493 63.8949 64.9956 63.9501C65.0915 64.0627 65.1406 64.2078 65.1328 64.3556C65.1251 64.5033 65.0609 64.6425 64.9537 64.7444C64.4019 65.2555 63.8295 65.7438 63.2378 66.2081ZM59.5651 68.7764C59.4456 68.8475 59.3028 68.8684 59.1679 68.8345C59.0331 68.8005 58.9172 68.7144 58.8457 68.5951L58.8304 68.5685C58.7583 68.442 58.7359 68.293 58.7678 68.1509C58.7997 68.0087 58.8835 67.8836 59.0028 67.8C59.6231 67.4242 60.2293 67.0257 60.8202 66.6053C60.8799 66.565 60.9469 66.5371 61.0175 66.5231C61.0881 66.5091 61.1608 66.5093 61.2313 66.5237C61.3018 66.5381 61.3687 66.5664 61.4282 66.607C61.4876 66.6475 61.5384 66.6995 61.5775 66.76C61.6585 66.8864 61.6883 67.0389 61.6608 67.1865C61.6332 67.3341 61.5504 67.4656 61.4292 67.5543C60.817 67.9764 60.1975 68.376 59.5651 68.774V68.7764ZM55.7015 70.9571C55.64 70.989 55.5728 71.0084 55.5038 71.0142C55.4348 71.0201 55.3653 71.0123 55.2993 70.9913C55.2333 70.9702 55.1721 70.9364 55.1192 70.8917C55.0663 70.847 55.0227 70.7923 54.9909 70.7307L54.9805 70.7106C54.9144 70.5767 54.9018 70.4227 54.9454 70.2799C54.989 70.1371 55.0853 70.0162 55.2149 69.9421C55.8615 69.6161 56.4995 69.2734 57.1282 68.9141C57.2531 68.8483 57.3991 68.8345 57.5342 68.8758C57.6693 68.9172 57.7825 69.0103 57.8492 69.1349C57.85 69.1389 57.8524 69.1421 57.8548 69.1461C57.9227 69.2746 57.9394 69.4241 57.9016 69.5644C57.8638 69.7047 57.7743 69.8256 57.651 69.9026C57.0081 70.2675 56.3588 70.6188 55.7015 70.9571V70.9571Z" fill="#C5CAD2"/>
<path d="M104.449 35.0157C104.018 35.0157 103.605 35.1868 103.301 35.4912C102.996 35.7956 102.825 36.2085 102.825 36.639C102.825 37.0695 102.996 37.4824 103.301 37.7868C103.605 38.0913 104.018 38.2623 104.449 38.2623C104.879 38.2623 105.292 38.0913 105.596 37.7868C105.901 37.4824 106.072 37.0695 106.072 36.639C106.072 36.2085 105.901 35.7956 105.596 35.4912C105.292 35.1868 104.879 35.0157 104.449 35.0157ZM104.447 37.7145C104.171 37.7014 103.91 37.5824 103.719 37.3822C103.528 37.182 103.422 36.916 103.422 36.6394C103.422 36.3628 103.528 36.0968 103.719 35.8966C103.91 35.6964 104.171 35.5775 104.447 35.5644V35.5635C104.592 35.5579 104.736 35.5816 104.872 35.6331C105.007 35.6847 105.13 35.763 105.235 35.8634C105.339 35.9638 105.422 36.0843 105.479 36.2175C105.536 36.3508 105.565 36.4942 105.565 36.639C105.565 36.7839 105.536 36.9272 105.479 37.0605C105.422 37.1938 105.339 37.3142 105.235 37.4146C105.13 37.5151 105.007 37.5934 104.872 37.6449C104.736 37.6964 104.592 37.7201 104.447 37.7145V37.7145Z" fill="#DCDCDC"/>
</svg>
