<?xml version="1.0" standalone="no"?><!DOCTYPE svg PUBLIC "-//W3C//DTD SVG 1.1//EN" "http://www.w3.org/Graphics/SVG/1.1/DTD/svg11.dtd"><svg t="1629700162210" class="icon" viewBox="0 0 1024 1024" version="1.1" xmlns="http://www.w3.org/2000/svg" p-id="19484" xmlns:xlink="http://www.w3.org/1999/xlink" width="200" height="200"><defs><style type="text/css"></style></defs><path d="M344 174.976a56 56 0 1 0 0 112 56 56 0 0 0 0-112z m0 280a56 56 0 1 0 0 112 56 56 0 0 0 0-112z m0 280a56 56 0 1 0 0 112 56 56 0 0 0 0-112zM679.36 174.976a56 56 0 1 0 0 112 56 56 0 0 0 0-112z m0 280a56 56 0 1 0 0 112 56 56 0 0 0 0-112z m0 280a56 56 0 1 0 0 112 56 56 0 0 0 0-112z" p-id="19485"></path></svg>