<svg
      width="370px"
      height="199px"
      viewBox="0 0 370 199"
      version="1.1"
      xmlns="http://www.w3.org/2000/svg"
      xmlns:xlink="http://www.w3.org/1999/xlink"
    >
      <!-- Generator: Sketch 54.1 (76490) - https://sketchapp.com -->
      <defs>
        <linearGradient
          x1="-47.0190124%"
          y1="-185.963888%"
          x2="68.8688465%"
          y2="100%"
          id="linearGradient-1"
        >
          <stop stop-color="#D2D2D2" offset="0%"></stop>
          <stop stop-color="#D2D2D2" stop-opacity="0" offset="100%"></stop>
        </linearGradient>
        <linearGradient
          x1="118.999979%"
          y1="-110.864112%"
          x2="54.5018665%"
          y2="55.5871768%"
          id="linearGradient-2"
        >
          <stop stop-color="#D2D2D2" offset="0%"></stop>
          <stop stop-color="#D2D2D2" stop-opacity="0" offset="100%"></stop>
        </linearGradient>
        <linearGradient
          x1="50%"
          y1="-221.156912%"
          x2="50%"
          y2="100%"
          id="linearGradient-3"
        >
          <stop stop-color="#D2D2D2" offset="0%"></stop>
          <stop stop-color="#D2D2D2" stop-opacity="0" offset="100%"></stop>
        </linearGradient>
        <linearGradient
          x1="100.080959%"
          y1="-97.780461%"
          x2="38.826306%"
          y2="104.736078%"
          id="linearGradient-4"
        >
          <stop stop-color="#D2D2D2" offset="0%"></stop>
          <stop stop-color="#D2D2D2" stop-opacity="0" offset="100%"></stop>
        </linearGradient>
        <linearGradient
          x1="50%"
          y1="-230.116303%"
          x2="50%"
          y2="100%"
          id="linearGradient-5"
        >
          <stop stop-color="#D2D2D2" offset="0%"></stop>
          <stop stop-color="#D2D2D2" stop-opacity="0" offset="100%"></stop>
        </linearGradient>
        <linearGradient
          x1="50%"
          y1="-169.203289%"
          x2="50%"
          y2="100%"
          id="linearGradient-6"
        >
          <stop stop-color="#D2D2D2" offset="0%"></stop>
          <stop stop-color="#D2D2D2" stop-opacity="0" offset="100%"></stop>
        </linearGradient>
        <linearGradient
          x1="0%"
          y1="49.9538319%"
          x2="100%"
          y2="49.9538319%"
          id="linearGradient-7"
        >
          <stop stop-color="#EEEEEE" offset="0%"></stop>
          <stop stop-color="#DDDDDD" offset="3%"></stop>
          <stop stop-color="#D8D8D8" offset="100%"></stop>
        </linearGradient>
        <linearGradient
          x1="-1.37435732e-13%"
          y1="49.9495459%"
          x2="100%"
          y2="49.9495459%"
          id="linearGradient-8"
        >
          <stop stop-color="#EEEEEE" offset="0%"></stop>
          <stop stop-color="#DDDDDD" offset="3%"></stop>
          <stop stop-color="#D8D8D8" offset="100%"></stop>
        </linearGradient>
        <linearGradient
          x1="-1.92168421e-13%"
          y1="50%"
          x2="100%"
          y2="50%"
          id="linearGradient-9"
        >
          <stop stop-color="#EEEEEE" offset="0%"></stop>
          <stop stop-color="#DDDDDD" offset="3%"></stop>
          <stop stop-color="#D8D8D8" offset="100%"></stop>
        </linearGradient>
        <linearGradient
          x1="-0.124688279%"
          y1="50%"
          x2="99.8753117%"
          y2="50%"
          id="linearGradient-10"
        >
          <stop stop-color="#EEEEEE" offset="0%"></stop>
          <stop stop-color="#DDDDDD" offset="3%"></stop>
          <stop stop-color="#D8D8D8" offset="100%"></stop>
        </linearGradient>
        <linearGradient
          x1="0%"
          y1="50%"
          x2="100%"
          y2="50%"
          id="linearGradient-11"
        >
          <stop stop-color="#EEEEEE" offset="0%"></stop>
          <stop stop-color="#DDDDDD" offset="3%"></stop>
          <stop stop-color="#D8D8D8" offset="100%"></stop>
        </linearGradient>
        <linearGradient
          x1="0%"
          y1="50.5415162%"
          x2="100%"
          y2="50.5415162%"
          id="linearGradient-12"
        >
          <stop stop-color="#EEEEEE" offset="0%"></stop>
          <stop stop-color="#DDDDDD" offset="3%"></stop>
          <stop stop-color="#D8D8D8" offset="100%"></stop>
        </linearGradient>
        <linearGradient
          x1="0%"
          y1="50%"
          x2="100%"
          y2="50%"
          id="linearGradient-13"
        >
          <stop stop-color="#EEEEEE" offset="0%"></stop>
          <stop stop-color="#DDDDDD" offset="3%"></stop>
          <stop stop-color="#D8D8D8" offset="100%"></stop>
        </linearGradient>
        <linearGradient
          x1="-0.117508813%"
          y1="50.0693241%"
          x2="100.195848%"
          y2="50.0693241%"
          id="linearGradient-14"
        >
          <stop stop-color="#EEEEEE" offset="0%"></stop>
          <stop stop-color="#DDDDDD" offset="3%"></stop>
          <stop stop-color="#D8D8D8" offset="100%"></stop>
        </linearGradient>
        <linearGradient
          x1="-1.29130892e-13%"
          y1="49.9641062%"
          x2="100%"
          y2="49.9641062%"
          id="linearGradient-15"
        >
          <stop stop-color="#EEEEEE" offset="0%"></stop>
          <stop stop-color="#DDDDDD" offset="3%"></stop>
          <stop stop-color="#D8D8D8" offset="100%"></stop>
        </linearGradient>
        <linearGradient
          x1="0%"
          y1="50%"
          x2="99.9932268%"
          y2="50%"
          id="linearGradient-16"
        >
          <stop stop-color="#EEEEEE" offset="0%"></stop>
          <stop stop-color="#D8D8D8" offset="100%"></stop>
        </linearGradient>
        <linearGradient
          x1="-2.36437474e-13%"
          y1="50%"
          x2="99.9932268%"
          y2="50%"
          id="linearGradient-17"
        >
          <stop stop-color="#EEEEEE" offset="0%"></stop>
          <stop stop-color="#D8D8D8" offset="100%"></stop>
        </linearGradient>
        <linearGradient
          x1="-0.188005264%"
          y1="50.1140928%"
          x2="99.9247979%"
          y2="50.1140928%"
          id="linearGradient-18"
        >
          <stop stop-color="#EEEEEE" offset="0%"></stop>
          <stop stop-color="#D8D8D8" offset="100%"></stop>
        </linearGradient>
        <linearGradient
          x1="-0.000704459783%"
          y1="50.0049309%"
          x2="100%"
          y2="50.0049309%"
          id="linearGradient-19"
        >
          <stop stop-color="#EEEEEE" offset="0%"></stop>
          <stop stop-color="#D8D8D8" offset="100%"></stop>
        </linearGradient>
        <linearGradient
          x1="-0.0261416949%"
          y1="50.0571755%"
          x2="100%"
          y2="50.0571755%"
          id="linearGradient-20"
        >
          <stop stop-color="#EEEEEE" offset="0%"></stop>
          <stop stop-color="#D8D8D8" offset="100%"></stop>
        </linearGradient>
        <linearGradient
          x1="-0.235220095%"
          y1="49.9194105%"
          x2="99.9685402%"
          y2="49.9194105%"
          id="linearGradient-21"
        >
          <stop stop-color="#EEEEEE" offset="0%"></stop>
          <stop stop-color="#D8D8D8" offset="100%"></stop>
        </linearGradient>
        <linearGradient
          x1="3.74216056e-13%"
          y1="49.945593%"
          x2="100.197498%"
          y2="49.945593%"
          id="linearGradient-22"
        >
          <stop stop-color="#EEEEEE" offset="0%"></stop>
          <stop stop-color="#D8D8D8" offset="100%"></stop>
        </linearGradient>
        <linearGradient
          x1="-9.36464891e-14%"
          y1="50%"
          x2="100%"
          y2="50%"
          id="linearGradient-23"
        >
          <stop stop-color="#EEEEEE" offset="0%"></stop>
          <stop stop-color="#D8D8D8" offset="100%"></stop>
        </linearGradient>
        <linearGradient
          x1="0%"
          y1="50%"
          x2="100%"
          y2="50%"
          id="linearGradient-24"
        >
          <stop stop-color="#EEEEEE" offset="0%"></stop>
          <stop stop-color="#D8D8D8" offset="100%"></stop>
        </linearGradient>
        <linearGradient
          x1="-1.82541486e-13%"
          y1="49.7966191%"
          x2="100%"
          y2="49.7966191%"
          id="linearGradient-25"
        >
          <stop stop-color="#EEEEEE" offset="0%"></stop>
          <stop stop-color="#D8D8D8" offset="100%"></stop>
        </linearGradient>
        <linearGradient
          x1="0%"
          y1="49.8089172%"
          x2="100%"
          y2="49.8089172%"
          id="linearGradient-26"
        >
          <stop stop-color="#EEEEEE" offset="0%"></stop>
          <stop stop-color="#D8D8D8" offset="100%"></stop>
        </linearGradient>
        <linearGradient
          x1="0%"
          y1="50.3242542%"
          x2="100%"
          y2="50.3242542%"
          id="linearGradient-27"
        >
          <stop stop-color="#EEEEEE" offset="0%"></stop>
          <stop stop-color="#D8D8D8" offset="100%"></stop>
        </linearGradient>
        <linearGradient
          x1="-0.000334216434%"
          y1="50.0225678%"
          x2="99.9956317%"
          y2="50.0225678%"
          id="linearGradient-28"
        >
          <stop stop-color="#EFEFEF" offset="0%"></stop>
          <stop stop-color="#FDFDFD" offset="100%"></stop>
        </linearGradient>
        <linearGradient
          x1="44.2767763%"
          y1="132.5542%"
          x2="60.6419019%"
          y2="50%"
          id="linearGradient-29"
        >
          <stop stop-color="#C5F2F0" offset="0%"></stop>
          <stop stop-color="#58DDDD" offset="100%"></stop>
        </linearGradient>
        <linearGradient
          x1="39.6910631%"
          y1="73.9911655%"
          x2="69.168689%"
          y2="50%"
          id="linearGradient-30"
        >
          <stop stop-color="#C5F2F0" offset="0%"></stop>
          <stop stop-color="#58DDDD" offset="100%"></stop>
        </linearGradient>
        <linearGradient
          x1="23.6047788%"
          y1="94.0609874%"
          x2="86.1307793%"
          y2="5.22278331%"
          id="linearGradient-31"
        >
          <stop stop-color="#EBF6FF" offset="0%"></stop>
          <stop stop-color="#478FFC" offset="100%"></stop>
        </linearGradient>
        <path
          d="M15.9760344,2.32036746 L0.798450646,44.9626496 C0.148026909,46.787731 1.20631731,48.7887624 3.04326225,49.2062438 C12.7640844,51.4264129 23.3160895,51.6183583 34.9572839,49.1518592 C36.8266727,48.7567715 37.9220419,46.7269483 37.2515338,44.8778737 L21.7680501,2.29957336 C20.7591981,-0.474038444 16.9663471,-0.459642536 15.9760344,2.32036746"
          id="path-32"
        ></path>
        <linearGradient
          x1="15.0636538%"
          y1="78.3721489%"
          x2="61.5777523%"
          y2="45.3613553%"
          id="linearGradient-34"
        >
          <stop stop-color="#FFFFFF" offset="0%"></stop>
          <stop stop-color="#478FFC" offset="100%"></stop>
        </linearGradient>
      </defs>
      <g
        id="设计规范"
        stroke="none"
        stroke-width="1"
        fill="none"
        fill-rule="evenodd"
      >
        <g id="08-缺省页规范" transform="translate(-849.000000, -2842.000000)">
          <g id="正在开发中" transform="translate(849.000000, 2842.000000)">
            <g id="编组-2备份-4" fill-rule="nonzero">
              <path
                d="M73.2592593,159.554082 C65.345679,155.973835 56.7654321,146.368897 59.1975309,137.331859 C60.4139859,137.020515 61.693852,137.516587 62.382716,138.566427 C62.382716,138.566427 76.1111111,160.010872 72.2592593,140.282477 C70.4444444,131.010872 67.3209877,122.047909 67.0740741,112.467662 C66.6666667,95.0602545 82.6419753,90.233094 87.2345679,109.467662 C87.8395062,112.010872 90.1604938,132.689884 95.4444444,130.319514 C96.1250336,129.961557 96.6773282,129.400632 97.0246914,128.714576 C99.7037037,124.319514 100.506173,117.862724 105.419753,116.368897 C109.728395,115.010872 113.975309,118.751613 116.296296,122.61581 C121,130.467662 127.296296,149.98618 117.666667,156.603464 C108.037037,163.220748 83.7407407,164.270131 73.345679,159.640501 L73.2592593,159.554082 Z"
                id="路径"
                fill="url(#linearGradient-1)"
              ></path>
              <path
                d="M273.185185,180.430625 C269.703704,172.467662 269.790123,159.591119 277.691358,154.504699 C278.808047,155.104911 279.411159,156.355993 279.185185,157.603464 C279.185185,157.603464 274.975309,182.726921 285.358025,165.504699 C290.296296,157.393588 294,148.665193 300.17284,141.393588 C311.518519,128.134329 326.641975,135.331859 317.148148,152.677538 C315.91358,154.973835 303.740741,171.862724 309.246914,173.665193 C309.992355,173.848515 310.775891,173.801158 311.493827,173.52939 C316.432099,172.0726 321.37037,167.825687 326.037037,169.973835 C330.135802,171.862724 330.777778,177.467662 329.91358,181.899761 C328.135802,190.875069 319.421721,200.91212 307.841474,199.356564 C296.014314,197.751626 277.777778,190.924452 273.222222,180.517045 L273.185185,180.430625 Z"
                id="路径"
                fill="url(#linearGradient-2)"
              ></path>
              <path
                d="M370.518519,199.356551 C323.962963,167.418279 258.17284,147.504699 185.259259,147.504699 C112.345679,147.504699 46.5555556,167.418279 0,199.356551 L370.518519,199.356551 Z"
                id="路径"
                fill="url(#linearGradient-3)"
              ></path>
              <path
                d="M293.469136,103.060255 C290.518519,106.763958 288.62963,112.010872 290.395062,116.70223 C291.617284,119.936798 295.296296,119.961489 295.037037,124.455316 C294.783185,126.699169 294.014206,128.854 292.790123,130.751613 C290.704251,134.400024 288.14732,137.758071 285.185185,140.739267 C287.654305,142.665262 288.910389,145.760781 288.481481,148.862724 C287.997231,151.941616 286.539107,154.784309 284.320988,156.973835 C283.667879,157.772484 282.816415,158.385539 281.851852,158.751613 C280.917648,158.967389 279.94655,158.967389 279.012346,158.751613 C274.419062,157.972041 269.959209,156.546384 265.765432,154.517045 C263.148148,153.270131 260.481481,151.566427 259.592593,148.850378 C258.574074,145.733094 260.19348,144.742546 261.961179,143.765863 L262.41743,143.513691 C263.3302,143.004636 264.22575,142.451348 264.765432,141.566427 C266.061728,139.442971 266.098765,136.603464 266.555556,134.233094 C267.222222,130.739267 266.234568,124.368897 270.604938,122.998526 C272.296296,122.467662 274.135802,122.591119 275.82716,122.047909 C279.501372,120.878499 281.022443,117.422242 282.495104,113.927564 L282.762795,113.292245 C283.611763,111.282231 284.486968,109.304653 285.790123,107.78865 C287.641975,105.628156 292.234568,104.566427 293.469136,103.060255 Z M282.802469,123.78865 C282.802469,123.78865 269.506173,139.294822 269.938272,153.628156 L274.234568,153.628156 C274.234568,153.628156 275.790123,136.344205 282.802469,123.78865 Z"
                id="形状结合"
                fill="url(#linearGradient-4)"
              ></path>
              <path
                d="M104.135802,22.0108718 L104.135802,22.0108718 C104.204481,17.2252075 100.786222,13.0986863 96.0713857,12.2755097 C91.3565496,11.4523331 86.7422233,14.1764226 85.1851852,18.7022298 C82.2145965,18.6439999 79.4492011,20.2121758 77.9742152,22.7913626 C76.4992294,25.3705494 76.5499916,28.54923 78.1065814,31.0800038 C79.6631712,33.6107776 82.4772299,35.0898519 85.4444444,34.9367977 L103.333333,34.9367977 C106.729866,34.891492 109.517593,32.2362321 109.72807,28.8459242 C109.938548,25.4556163 107.50065,22.4759385 104.135802,22.0108718 L104.135802,22.0108718 Z"
                id="路径"
                fill="url(#linearGradient-5)"
              ></path>
              <path
                d="M178.074074,12.2084027 L178.074074,12.1466743 C178.066799,6.23154854 173.804253,1.17965438 167.974706,0.177082054 C162.14516,-0.825490268 156.439779,2.51210807 154.45679,8.08494589 C148.848713,8.17358419 144.374325,12.7916841 144.462963,18.3997607 C144.551601,24.0078373 149.169701,28.4822262 154.777778,28.3935879 L177,28.3935879 C181.281476,28.4012178 184.829217,25.075029 185.097306,20.8019475 C185.365395,16.528866 182.261202,12.7853409 178.012346,12.2577854 L178.074074,12.2084027 Z"
                id="路径"
                fill="url(#linearGradient-6)"
              ></path>
            </g>
            <g
              id="编组"
              transform="translate(123.000000, 41.000000)"
              fill-rule="nonzero"
            >
              <path
                d="M95,140 L78.900379,131.457064 C78.5367594,131.259485 78.2005249,131.017452 77.8998376,130.736842 C76.7231518,129.66838 75.4128628,128.748841 74,128 L90.099621,136.531856 C91.5159381,137.285146 92.8298948,138.208301 94.0108284,139.279778 C94.307673,139.559995 94.6400974,139.802035 95,140 L95,140 Z"
                id="路径"
                fill="url(#linearGradient-7)"
              ></path>
              <path
                d="M95,140 L78.900379,131.457064 C78.5367594,131.259485 78.2005249,131.017452 77.8998376,130.736842 C76.7231518,129.66838 75.4128628,128.748841 74,128 L90.099621,136.531856 C91.5159381,137.285146 92.8298948,138.208301 94.0108284,139.279778 C94.307673,139.559995 94.6400974,139.802035 95,140"
                id="路径"
                fill="url(#linearGradient-7)"
              ></path>
              <path
                d="M128.759671,52.5469223 L113,44 L113.856383,44.4328961 C115.602515,45.2764884 117.715667,45.3874874 119.52853,46.1089808 C119.776722,46.2036541 120.018242,46.3149049 120.251451,46.4419778 L136,55 C135.769497,54.8751375 135.531818,54.7639456 135.288201,54.667003 C133.464217,53.9344097 131.362186,53.8234107 129.604932,52.9909183 L128.759671,52.5469223 Z"
                id="路径"
                fill="url(#linearGradient-8)"
              ></path>
              <g id="路径" transform="translate(113.000000, 43.000000)">
                <path
                  d="M16.4114286,9.01090909 L0.217142857,0.610909091 L0.925714286,0.96 L17.12,9.36 C16.88,9.25090909 16.64,9.14181818 16.4114286,9.01090909"
                  fill="url(#linearGradient-9)"
                ></path>
                <path
                  d="M17.1428571,9.36 L0.948571429,0.96 L1.12,1.03636364 C1.75230239,1.31286232 2.41043594,1.53200826 3.08571429,1.69090909 L19.28,10.1018182 C18.6015495,9.94122998 17.939783,9.72214805 17.3028571,9.44727273 L17.1428571,9.36"
                  fill="url(#linearGradient-10)"
                ></path>
                <path
                  d="M19.2571429,10.1018182 L3.06285714,1.69090909 C3.84,1.88727273 4.65142857,2.04 5.42857143,2.22545455 L21.6228571,10.6363636 C20.8342857,10.44 20.0342857,10.2872727 19.2571429,10.1018182"
                  fill="url(#linearGradient-11)"
                ></path>
                <path
                  d="M21.6228571,10.6363636 L5.42857143,2.18181818 C5.93704725,2.3049048 6.43705142,2.45792482 6.92571429,2.64 C7.08986606,2.69997287 7.25014742,2.76918528 7.40571429,2.84727273 L23.6,11.2472727 L23.12,11.0509091 C22.6313371,10.8688339 22.131333,10.7158139 21.6228571,10.5927273"
                  fill="url(#linearGradient-12)"
                ></path>
                <polyline
                  fill="url(#linearGradient-13)"
                  points="23.6 11.2909091 7.40571429 2.89090909 7.66857143 3.01090909 23.8514286 11.4218182 23.6 11.2909091"
                ></polyline>
              </g>
              <path
                d="M100.989816,87.567591 C101.285155,86.9029463 101.569134,86.2157712 101.830396,85.5398614 L101.898551,85.3483536 C101.903074,85.310937 101.903074,85.2731185 101.898551,85.2357019 C101.989424,84.9766031 102.080298,84.7175043 102.159812,84.4584055 C102.239326,84.1993068 102.318841,84.0190641 102.386996,83.7937608 C102.455151,83.5684575 102.546024,83.2642981 102.625539,83.0051993 L102.830004,82.3180243 L103.034469,81.5069324 C103.091265,81.2816291 103.148061,81.0563258 103.193498,80.8310225 C103.238935,80.6057192 103.318449,80.2790295 103.375245,79.9974003 L103.511555,79.3214905 L103.647865,78.4540728 L103.750098,77.7894281 C103.750098,77.4852686 103.818253,77.169844 103.852331,76.8656846 C103.886408,76.5615251 103.909127,76.4488735 103.931845,76.2461005 L104,75.2322357 L104,74.6802426 C104,74.1620451 104,73.6325823 104,73.1143847 C104,62.9757366 99.036036,54.7521664 91.5048962,50.6854419 L75.4202899,42 C82.9627889,46.0667244 87.9153937,54.2790295 87.9153937,64.4289428 C87.9153937,64.9584055 87.9153937,65.4766031 87.9153937,66.0060659 C87.9153937,66.1863085 87.9153937,66.3665511 87.9153937,66.5467938 L87.8472385,67.5606586 L87.7790834,68.1802426 C87.7790834,68.4956672 87.7109283,68.7998267 87.6654916,69.1152513 C87.6200548,69.4306759 87.5973365,69.5545927 87.5632589,69.7686308 L87.4269487,70.6360485 L87.2906385,71.3119584 L87.1202507,72.1568458 L86.9498629,72.8327556 L86.7453976,73.6438475 L86.5409322,74.3197574 C86.4727771,74.5788562 86.3932628,74.8492201 86.3137485,75.1083189 C86.2342342,75.3674177 86.1547199,75.5589255 86.0865648,75.7842288 L85.8139444,76.55026 L85.7003525,76.8544194 C85.4390913,77.5415945 85.1664708,78.2175043 84.8597728,78.882149 C84.8343364,78.955428 84.8039772,79.0269342 84.7688993,79.0961872 C84.4622013,79.7833622 84.1214258,80.4480069 83.769291,81.1126516 L83.5534665,81.5181976 C83.2467685,82.0701906 82.9400705,82.644714 82.5992949,83.1516464 C82.6025572,83.1740606 82.6025572,83.1968232 82.5992949,83.2192374 C82.2812378,83.737435 81.9404622,84.2331023 81.5996866,84.7287695 L81.2929886,85.1681109 L80.4864865,86.2946274 L80.213866,86.6438475 C79.8503721,87.0944541 79.475519,87.5450607 79.0779475,87.9844021 L78.8394046,88.2435009 C78.5213474,88.592721 78.1919311,88.9306759 77.8625147,89.2686308 L77.4763024,89.6516464 C77.1582452,89.9670711 76.840188,90.2712305 76.4994125,90.5753899 L76.1927145,90.8570191 C75.738347,91.262565 75.2726204,91.6568458 74.7955347,91.9835355 L74.4661183,92.2426343 C74.0685468,92.5467938 73.6709753,92.839688 73.2620447,93.1213172 L72.8985507,93.3691508 C72.2965139,93.7859619 71.6831179,94.1689775 71.0470035,94.4956672 L70.706228,94.687175 C70.0587544,95.0476603 69.4112808,95.3856153 68.7410889,95.7010399 L68.4116725,95.847487 C67.9573051,96.0615251 67.4915785,96.2530329 67.0144928,96.4445407 L66.5828437,96.6135182 C66.0035253,96.8275563 65.4469252,97.0303293 64.8448884,97.1993068 L64.6063455,97.2668977 C64.083823,97.4246101 63.5613004,97.559792 63.0387779,97.6724437 L62.5616921,97.7850953 C61.9482961,97.9090121 61.3462593,98.0329289 60.7328633,98.1117851 C60.1194673,98.1906412 59.1766549,98.2920277 58.4610262,98.3258232 L57.7567568,98.3258232 C57.2342342,98.3258232 56.7117117,98.3258232 56.1891892,98.3258232 L55.4054054,98.3258232 C54.9056013,98.3258232 54.4057971,98.2357019 53.9173521,98.1681109 L53.2130826,98.0779896 C52.5883275,97.9766031 51.9635723,97.8526863 51.3501763,97.694974 L51.1229926,97.694974 C50.4300823,97.5147314 49.7598903,97.3006932 49.1010576,97.0641248 L48.5103799,96.8388215 C48.0446533,96.6585789 47.5902859,96.4670711 47.1359185,96.2530329 C46.6815511,96.0389948 46.3521347,95.8925477 46,95.6897747 L62.0959655,104.363951 C62.368586,104.521664 62.6525656,104.656846 62.9251861,104.792028 L63.2546024,104.938475 C63.6976107,105.141248 64.1633373,105.332756 64.6290638,105.524263 L65.2083823,105.749567 C65.8785742,105.986135 66.5487662,106.200173 67.2416765,106.380416 L67.2416765,106.380416 L67.4461418,106.380416 C68.0595378,106.526863 68.684293,106.65078 69.3090482,106.763432 L70.0133177,106.853553 C70.5017626,106.921144 71.0015668,106.966205 71.5013709,107 L72.2851547,107 C72.7925317,107 73.3150542,107 73.8527223,107 L74.5569918,107 C75.3180572,107 76.0904818,106.898614 76.8288288,106.785962 C77.5671759,106.67331 78.0556208,106.583189 78.6576577,106.459272 L79.1461026,106.34662 L80.7136702,105.941075 L80.9522131,105.873484 C81.5315315,105.693241 82.0881316,105.501733 82.6788092,105.287695 L83.1218175,105.107452 C83.5875441,104.92721 84.0646298,104.724437 84.5189973,104.521664 L84.7688993,104.420277 L84.8484136,104.420277 C85.5186056,104.104853 86.1660791,103.766898 86.8135527,103.406412 L87.1543282,103.20364 C87.7904426,102.843154 88.4038386,102.448873 89.0058754,102.077123 L89.1308265,101.998267 L89.3693694,101.829289 C89.7783,101.536395 90.1758715,101.254766 90.5052879,100.950607 L90.8460635,100.691508 C91.3231492,100.319757 91.7888758,99.9254766 92.2432432,99.5649913 L92.3227575,99.4974003 L92.5499412,99.2833622 C92.8793576,98.9792028 93.208774,98.6750433 93.5268312,98.3596187 L93.9130435,97.9766031 C94.2424599,97.6386482 94.560517,97.3006932 94.8785742,96.940208 L95.0716804,96.7487002 L95.0716804,96.6811092 C95.4578927,96.2530329 95.8327458,95.8024263 96.2075989,95.3405546 L96.4688602,94.9913345 C96.7566262,94.6383593 97.0292466,94.2628538 97.2867215,93.864818 L97.4571093,93.6395147 L97.5934195,93.4367418 C97.9341951,92.9410745 98.2749706,92.4341421 98.5930278,91.9272097 L98.5930278,91.8596187 C98.9224442,91.3188908 99.2405014,90.7331023 99.5471994,90.2149047 L99.6607912,90.0233969 L99.7630239,89.8206239 C100.115159,89.1559792 100.444575,88.4913345 100.762632,87.8041594 C100.93302,87.702773 100.955738,87.635182 100.989816,87.567591 Z"
                id="路径"
                fill="url(#linearGradient-14)"
              ></path>
              <path
                d="M45,142 L28.9050432,133.144293 C26.3067938,131.724387 23.8496222,130.05506 21.5674693,128.159368 C20.9434776,127.520868 20.4153778,126.793351 20,126 L36.0949568,134.844221 C36.5068499,135.636834 37.0310944,136.364312 37.6510677,137.003589 C39.9388195,138.900498 42.3995047,140.573475 45,142 Z"
                id="路径"
                fill="url(#linearGradient-15)"
              ></path>
              <path
                d="M45,142 L28.9050432,133.144293 C26.3067938,131.724387 23.8496222,130.05506 21.5674693,128.159368 C20.9434776,127.520868 20.4153778,126.793351 20,126 L36.0949568,134.844221 C36.5068499,135.636834 37.0310944,136.364312 37.6510677,137.003589 C39.9388195,138.900498 42.3995047,140.573475 45,142"
                id="路径"
                fill="url(#linearGradient-15)"
              ></path>
              <path
                d="M10,96 L25.9136475,104.65917 C29.7030153,106.849938 32.6996123,110.189234 34.4713041,114.195502 C37.447392,120.346886 37.6720025,127.083045 35.7965055,135 L19.882858,126.34083 C21.7583549,118.468858 21.5337445,111.721453 18.5688871,105.525087 C16.7995737,101.516596 13.7972319,98.1792233 10,96 Z"
                id="路径"
                fill="url(#linearGradient-16)"
              ></path>
              <path
                d="M35.7965055,135 L19.882858,126.34083 C21.7583549,118.468858 21.5337445,111.721453 18.5688871,105.525087 C16.7995737,101.516596 13.7972319,98.1792233 10,96 L25.9136475,104.65917 C29.7030153,106.849938 32.6996123,110.189234 34.4713041,114.195502 C37.447392,120.346886 37.6720025,127.083045 35.7965055,135"
                id="路径"
                fill="url(#linearGradient-17)"
              ></path>
              <path
                d="M98.9492386,8.77154217 C99.750141,9.0169792 100.539763,9.2847287 101.318105,9.56363442 L102.040045,9.83138392 C102.592781,10.0433523 103.168077,10.2441644 103.675691,10.467289 L104.465313,10.8019758 C105.006768,11.0251004 105.536943,11.2705374 106.067118,11.5159745 L106.743937,11.8283489 C107.488438,12.1853482 108.232939,12.5535038 109,12.9439718 L93.0270728,4.34251928 C92.3728144,3.99667618 91.7298364,3.66198931 91.0642978,3.3496149 L90.8048505,3.22689639 L90.1280316,2.91452198 C89.5978567,2.66908494 89.0676819,2.4236479 88.5262267,2.20052332 L87.7366046,1.86583645 L86.1122391,1.24108763 L85.3902989,0.97333814 C84.6006768,0.694432416 83.8110547,0.426682922 83.0101523,0.170089656 L82.7055838,0.0919960538 L82.3446136,0.0250586801 L82.0851664,0.0250586801 C81.8494842,-0.00835289338 81.6101886,-0.00835289338 81.3745065,0.0250586801 C81.1558436,0.0517444675 80.9427209,0.111966832 80.7428088,0.203558343 L80.7428088,0.203558343 C80.6064795,0.269438388 80.4746006,0.343968768 80.3479977,0.426682922 L80.2690355,0.493620296 L80.1562324,0.582870127 C80.0971376,0.624059714 80.0406316,0.668767234 79.9870276,0.716744874 C79.898747,0.796843274 79.8158484,0.882556664 79.7388607,0.97333814 L79.6147772,1.09605666 C79.6147772,1.09605666 79.6147772,1.09605666 79.6147772,1.09605666 C79.4346997,1.29930978 79.2652728,1.51155648 79.107163,1.73196171 C78.7800338,2.16705464 78.4529047,2.59099134 78.1144952,3.00377181 C78.0129724,3.13764655 77.9001692,3.26036507 77.787366,3.39423982 C77.6745629,3.52811457 77.3361534,3.94089504 77.0992668,4.20864453 L76.8059786,4.52101894 C76.5126904,4.84454958 76.2194021,5.15692399 75.9148336,5.45814217 L75.5087422,5.87092264 C75.2380147,6.13867214 74.9560068,6.3952654 74.6739989,6.65185867 L74.2791878,7.02001422 C73.8618161,7.37701355 73.4557248,7.72285665 73.0270728,8.05754352 L72.9706712,8.05754352 C72.5307389,8.40338661 72.0795262,8.72691725 71.6283136,9.03929166 L71.2899041,9.27357247 C70.7710096,9.61941557 70.2521151,9.94294621 69.7219402,10.2553206 L69.6091371,10.322258 C69.0564016,10.6346324 68.4811055,10.9246944 67.92837,11.1924438 L67.5448393,11.3709435 C67.1237075,11.5643181 66.7063358,11.7428178 66.2927242,11.9064425 L66.0896785,11.9845361 C65.6046249,12.174192 65.1195713,12.3303792 64.6345178,12.4865664 L64.2284264,12.5981287 L63.1003948,12.8881906 L62.6717428,12.9885967 C62.1754089,13.0890028 61.6903553,13.1782526 61.1940214,13.24519 C60.6976875,13.3121273 59.998308,13.3790647 59.4004512,13.4125334 L57.5843204,13.4125334 L56.963903,13.4125334 C56.5465313,13.4125334 56.1404399,13.3344398 55.7343486,13.2786587 L55.1703328,13.2117213 C54.606317,13.1224715 54.0423012,13.0109092 53.4895657,12.8658782 L53.4218838,12.8658782 C52.8465877,12.709691 52.2938522,12.5311913 51.7072758,12.3303792 L51.1996616,12.1295671 C50.8086106,11.9733799 50.4137996,11.8060364 50.0152284,11.6275368 C49.676819,11.4713496 49.3384095,11.3151624 49,11.1366627 L64.9842076,19.726959 L65.7061478,20.1062708 L65.999436,20.2289893 C66.3829667,20.4074889 66.7777778,20.5748324 67.1274676,20.7198634 L67.6463621,20.9318317 C68.2103779,21.1326438 68.7743937,21.3111435 69.3609701,21.4561745 L69.428652,21.4561745 C69.9813875,21.5900492 70.5566836,21.7016115 71.1094191,21.7908613 L71.6621545,21.8689549 C72.0795262,21.8689549 72.4856176,21.969361 72.9029893,21.9916735 C73.1096427,22.0027755 73.3167532,22.0027755 73.5234067,21.9916735 C73.9407783,21.9916735 74.35815,21.9916735 74.7755217,21.9916735 L75.3395375,21.9916735 C75.9411544,21.9916735 76.5390111,21.9358923 77.1331077,21.82433 C77.6294416,21.7573927 78.1144952,21.6681428 78.6108291,21.5565805 L79.0394811,21.4673307 L80.1675127,21.1772687 L80.5623237,21.0545502 C81.0473773,20.9095193 81.5324309,20.7421758 82.0174845,20.5636762 L82.2318105,20.4744263 C82.6491822,20.3182391 83.0665539,20.1397395 83.4726452,19.9500836 L83.6756909,19.87199 C83.7372096,19.8342127 83.8012825,19.8006649 83.8674563,19.7715839 C84.4314721,19.5038344 84.9954879,19.2137725 85.5482234,18.901398 L85.6610265,18.8233044 C86.1912014,18.5220863 86.7100959,18.1873994 87.2289904,17.8415563 L87.4320361,17.7188378 L87.5673999,17.6184317 C88.0186125,17.3060573 88.4698252,16.9825267 88.9097575,16.6366836 L88.9097575,16.6366836 C89.3271292,16.3131529 89.7445008,15.9673098 90.1505922,15.5991543 L90.3085166,15.4764358 L90.5566836,15.242155 L91.391427,14.4500627 L91.7975183,14.0484385 C92.0908065,13.7472203 92.3953751,13.4348459 92.6886633,13.1113152 C92.7563452,13.0220654 92.8353074,12.955128 92.9142696,12.8658782 L92.9819515,12.7877846 L93.6700508,11.9845361 C93.7715736,11.8506614 93.8843768,11.7279428 93.9971799,11.5940681 C94.3355894,11.1775689 94.6627186,10.7536322 94.9785674,10.322258 C95.153262,10.0813828 95.3415669,9.85045331 95.5425832,9.6305718 L95.6666667,9.50785328 C95.7972624,9.36906076 95.9366688,9.23864045 96.0840384,9.11738526 L96.1968415,9.03929166 C96.3501663,8.92054623 96.5166875,8.81948683 96.6931754,8.73807348 C96.8984287,8.64794733 97.114515,8.58420947 97.3361534,8.54841759 C97.5721973,8.52047004 97.8107694,8.52047004 98.0468133,8.54841759 L98.3062606,8.54841759 C98.5249376,8.60990841 98.7396553,8.68441922 98.9492386,8.77154217 L98.9492386,8.77154217 Z"
                id="路径"
                fill="url(#linearGradient-18)"
              ></path>
              <path
                d="M17.4826999,102 L1.59202336,93.2579349 C0.601886691,92.687091 0.0354812822,91.5816791 0.145377436,90.4346221 C0.0444486512,82.123424 -0.078908753,73.8235646 0.0668772702,65.4896893 C0.0668772702,64.6279553 1.73780938,63.1199207 2.8255974,62.621022 C12.8624044,58.0855797 18.8172027,49.8991063 20.7684926,38.8099498 C21.5534942,34.3425391 20.7684926,29.6143405 20.0059195,25.2036229 C19.5797758,22.8451928 19.7031332,21.3711741 21.5310656,19.8858167 C27.3625065,15.2143111 33.1939474,10.5465851 39.0253884,5.88263855 C39.5179905,5.44315292 40.1183169,5.14553682 40.7636063,5.02090451 C41.2283638,4.9547895 41.7016809,5.04651412 42.1093235,5.28169245 L58,14.0237575 C57.5952741,13.7804642 57.1204246,13.6844417 56.6542829,13.751631 C56.0100917,13.886183 55.4112853,14.1869516 54.9160649,14.6247036 C49.0621954,19.273532 43.2270163,23.9488171 37.4105278,28.650559 C35.5713811,30.1245778 35.459238,31.6099351 35.8741674,33.9683651 C36.6591691,38.3223898 37.4329564,43.0392498 36.6479548,47.5746921 C34.7078792,58.65251 28.7979381,66.850322 18.7050596,71.3857643 C17.5836287,71.8733244 15.9575538,73.3813589 15.9463395,74.2544316 C15.8005535,82.5883069 15.9463395,90.8995049 16.0248396,99.1993644 C15.931988,100.339875 16.5003197,101.431673 17.4826999,102 L17.4826999,102 Z"
                id="路径"
                fill="url(#linearGradient-19)"
              ></path>
              <g id="路径" transform="translate(0.000000, 5.000000)">
                <path
                  d="M3.57403846,57.2412791 L2.85923077,57.557093 L2.79115385,57.557093 C2.53985707,57.6838819 2.29727581,57.8270629 2.065,57.9856977 C1.78892792,58.1728998 1.52724456,58.3802547 1.28211538,58.6060465 C1.0866678,58.7721337 0.904575049,58.9531499 0.7375,59.1474419 C0.624058084,59.2728517 0.517984614,59.4046596 0.419807692,59.5422093 L0.238269231,59.824186 C0.195239733,59.8990021 0.160977709,59.9784742 0.136153846,60.0610465 C0.0929930833,60.1609074 0.0698678784,60.268187 0.0680769231,60.3768605 C-0.0794230769,68.6782558 0.0680769231,76.9345349 0.1475,85.190814 C0.0363118188,86.3318481 0.609376342,87.4314558 1.61115385,87.9993023 L17.6886538,96.6954651 C16.6911887,96.123511 16.1196746,95.0268782 16.225,93.8869767 C16.1228846,85.6194186 15.9980769,77.3518605 16.1455769,69.0730233 C16.1479041,68.965465 16.1670431,68.8589207 16.2023077,68.7572093 C16.2354739,68.6761346 16.2733585,68.5970474 16.3157692,68.5203488 C16.36814,68.4214156 16.4288712,68.3270841 16.4973077,68.2383721 C16.5922255,68.1014154 16.6944888,67.9696357 16.8036538,67.8436047 C16.9774452,67.6482647 17.1631136,67.463694 17.3596154,67.2909302 C17.6061373,67.0749118 17.8636559,66.8716208 18.1311538,66.6818605 C18.363483,66.517177 18.6103222,66.3737242 18.8686538,66.2532558 L18.9367308,66.2532558 L19.6401923,65.9374419 L3.57403846,57.2412791 Z"
                  fill="url(#linearGradient-20)"
                ></path>
                <path
                  d="M36.3076923,29.0774419 C36.0015255,27.9700669 36.0015255,26.8010959 36.3076923,25.6937209 L20.2642308,17.0313953 C19.9523473,18.1379964 19.9523473,19.3085152 20.2642308,20.4151163 C21.0471154,24.7575581 21.83,29.4383721 21.0357692,33.95 C20.661159,36.1363814 20.0877174,38.2844549 19.3225,40.3677907 C18.7971138,41.7805341 18.1754148,43.1560125 17.4617308,44.4846512 C16.3997156,46.4496662 15.1169692,48.2886241 13.6380769,49.9662791 C12.9217012,50.7784447 12.1643164,51.5539386 11.3688462,52.2897674 C10.4238061,53.1287524 9.4272039,53.9085127 8.38480769,54.6245349 C6.8849456,55.65091 5.30246348,56.5525336 3.65346154,57.3202326 L19.7196154,66.0163953 C21.371277,65.2468679 22.957382,64.3453421 24.4623077,63.3206977 C25.5012426,62.600795 26.4940622,61.8172626 27.435,60.9746512 C28.2357364,60.244188 28.9934059,59.4684025 29.7042308,58.6511628 C30.4101685,57.8520052 31.0729589,57.0161794 31.6898077,56.1472093 C32.3608294,55.1953219 32.9745947,54.2047918 33.5278846,53.180814 C34.2436564,51.8493115 34.8654127,50.4699374 35.3886538,49.0526744 C36.1486284,46.9715593 36.7219519,44.8277026 37.1019231,42.6461628 C37.8734615,38.1232558 37.0905769,33.4086047 36.3076923,29.0774419 Z"
                  fill="url(#linearGradient-21)"
                ></path>
                <path
                  d="M21.4555769,15.362093 C21.2967297,15.5010541 21.1487989,15.6518809 21.0130769,15.8132558 C20.9042444,15.9317089 20.8019778,16.0559624 20.7067308,16.1854651 C20.6191715,16.3081187 20.5395863,16.4362092 20.4684615,16.5689535 C20.3888913,16.717828 20.3206242,16.8724058 20.2642308,17.0313953 L36.3076923,25.7275581 C36.3640858,25.5685686 36.4323528,25.4139908 36.5119231,25.2651163 C36.5804375,25.1308986 36.6601391,25.0026208 36.7501923,24.8816279 C36.8452486,24.7483795 36.9475146,24.6203616 37.0565385,24.4981395 C37.192473,24.3404484 37.3404095,24.1933867 37.4990385,24.0582558 L21.4555769,15.362093 Z"
                  fill="url(#linearGradient-22)"
                ></path>
                <path
                  d="M37.5330769,24.0582558 L21.4555769,15.362093 L21.7732692,15.0913953 C27.6808333,10.4218605 33.5846154,5.76736434 39.4846154,1.12790698 L39.8136538,0.891046512 L55.8911538,9.57593023 L55.5621154,9.82406977 C49.6394231,14.4484884 43.735641,19.0992248 37.8507692,23.7762791 L37.5330769,24.0469767"
                  fill="url(#linearGradient-23)"
                ></path>
                <path
                  d="M55.8911538,9.5872093 L39.8136538,0.902325581 C40.0194186,0.758810636 40.235586,0.630631086 40.4603846,0.518837209 L56.5378846,9.215 C56.3127951,9.32196675 56.096547,9.44642276 55.8911538,9.5872093"
                  fill="url(#linearGradient-24)"
                ></path>
                <path
                  d="M56.5378846,9.215 L40.4603846,0.518837209 C40.7082226,0.402076431 40.9720187,0.32226534 41.2432692,0.281976744 C41.5126334,0.225688421 41.7908281,0.225688421 42.0601923,0.281976744 L58.1263462,9.02325581 C57.8602578,8.97239245 57.5868575,8.97239245 57.3207692,9.02325581 C57.0490753,9.06775595 56.7853472,9.15134601 56.5378846,9.27139535"
                  fill="url(#linearGradient-25)"
                ></path>
                <path
                  d="M58.1263462,9.02325581 L42.0601923,0.338372093 C42.2127943,0.375635366 42.36109,0.428554974 42.5026923,0.49627907 L58.5801923,9.19244186 C58.4335701,9.12439094 58.2818269,9.0678237 58.1263462,9.02325581"
                  fill="url(#linearGradient-26)"
                ></path>
                <polyline
                  fill="url(#linearGradient-27)"
                  points="58.5801923 9.18116279 42.5026923 0.485 42.6048077 0.485 58.6823077 9.18116279 58.5801923 9.18116279"
                ></polyline>
              </g>
              <path
                d="M138.103277,56.5141307 C139.231568,64.8449398 139.524924,73.3335721 137.618112,82.0138468 C137.19978,83.4286622 136.265776,84.635375 135.000476,85.395772 C122.408744,91.4155989 114.905607,106.453893 118.076106,119.959048 C118.641397,121.801308 118.06636,123.803347 116.609327,125.065755 C111.222963,130.80326 104.990528,135.684502 98.127915,139.540395 C97.5275192,139.916881 96.8614871,140.176942 96.1646881,140.306964 C95.1561418,140.409791 94.1600404,140.019257 93.4906376,139.258568 C89.1231959,135.236913 83.1553161,133.430669 77.2883741,134.354776 C70.9023387,135.370856 65.1293997,138.741504 61.1086764,143.80162 C60.3701649,144.904026 59.2345021,145.679319 57.9381777,145.966053 C57.2664507,146.047446 56.585044,145.982057 55.9411021,145.77441 C49.2211214,143.98252 42.9469304,140.815528 37.5161046,136.474116 C36.9002556,135.846689 36.3794985,135.132696 35.9703455,134.354776 C37.854592,126.463617 37.6289338,119.699767 34.6389617,113.49957 C31.4346143,106.88227 26.4814154,102.778868 19.37318,101.820655 C17.3873873,101.550101 16.1688326,100.693347 16.1462668,98.4950956 C16.0447206,90.231925 15.9206085,81.9687544 16.0672864,73.6943107 C16.0672864,72.8262833 17.7484405,71.3269631 18.8428831,70.8422205 C28.9410905,66.3329869 34.9323175,58.1825471 36.8955444,47.168744 C37.6853483,42.7271489 36.8955444,38.0149998 36.1170234,33.6410432 C35.6995556,31.2962417 35.8123847,29.8194677 37.6627825,28.3539667 C43.5148535,23.6869099 49.3857294,19.0386416 55.2754102,14.4091618 C55.7736601,13.9739394 56.3761297,13.6749088 57.0242618,13.5411343 C58.0068926,13.4815625 58.9517945,13.9280863 59.5290685,14.7248081 C63.9600198,19.8931823 70.7251586,22.4438408 77.4689007,21.4886586 C83.93401,20.5755388 90.3991194,16.6186863 95.3636012,9.80974349 C95.869687,8.91385909 96.7225398,8.26560334 97.7217301,8.01732313 C98.2753662,7.96423828 98.8339118,8.03351456 99.3577525,8.22023864 C106.189065,10.3237802 112.538291,13.7522866 118.042257,18.3096489 C119.644431,19.6398728 119.012588,21.1053737 118.549988,22.751244 C115.165114,35.0501787 119.971635,47.8676752 129.900599,52.6361898 C131.683299,53.4816711 133.81577,53.5944019 135.666168,54.3384255 C136.647781,54.7668026 137.967882,55.5784647 138.103277,56.5141307 Z M77.175545,106.431347 C92.3397805,104.266915 104.254537,89.3638976 104.254537,72.6797332 C104.254537,56.7395924 92.1028393,45.6243315 77.0175842,47.709852 L76.2954777,47.8000367 C61.4922954,49.8742842 49.6113877,65.4649594 49.7467827,80.8301729 C49.8821776,97.1874179 61.943612,108.56196 77.1416962,106.431347 L77.175545,106.431347 Z"
                id="形状"
                fill="url(#linearGradient-28)"
              ></path>
            </g>
            <g id="编组备份-2" transform="translate(222.000000, 131.000000)">
              <path
                d="M54,47.4717475 C54,43.3458485 41.911941,40 27,40 C12.0880588,40 0,43.3458485 0,47.4717475 L0,48.5282526 C0,52.6556459 12.0880588,56 27,56 C41.911941,56 54,52.6556459 54,48.5282526 L54,47.4717475 Z"
                id="Fill-1"
                fill="#4989EA"
                fill-rule="nonzero"
              ></path>
              <path
                d="M53,47.5 C53,51.643 41.5834999,55 27.5,55 C13.4165,55 2,51.643 2,47.5 C2,43.357 13.4165,40 27.5,40 C41.5834999,40 53,43.357 53,47.5"
                id="Fill-1"
                fill="#88B4F2"
                fill-rule="nonzero"
              ></path>
              <g id="形状结合" transform="translate(8.000000, 0.000000)">
                <g id="蒙版" fill="url(#linearGradient-30)" fill-rule="nonzero">
                  <path
                    d="M15.9760344,2.32036746 L0.798450646,44.9626496 C0.148026909,46.787731 1.20631731,48.7887624 3.04326225,49.2062438 C12.7640844,51.4264129 23.3160895,51.6183583 34.9572839,49.1518592 C36.8266727,48.7567715 37.9220419,46.7269483 37.2515338,44.8778737 L21.7680501,2.29957336 C20.7591981,-0.474038444 16.9663471,-0.459642536 15.9760344,2.32036746"
                    id="path-12"
                  ></path>
                </g>
                <g id="Clipped">
                  <g id="形状-Clipped">
                    <mask id="mask-33" fill="white">
                      <use xlink:href="#path-32"></use>
                    </mask>
                    <use
                      id="path-30"
                      fill="url(#linearGradient-31)"
                      xlink:href="#path-32"
                    ></use>
                    <path
                      d="M32.8666158,28.7918181 L37.9394016,32.4459533 C31.7052662,41.7228503 19.705915,50.3529032 1.94119092,58.5061267 L0.92948311,58.9671217 L-1.54494949,53.104228 C15.5034183,45.3914471 26.8688034,37.3841145 32.5510488,29.2522445 L32.8666158,28.7918181 Z M32.8666158,9.59727268 L37.9394016,13.251408 C31.7052662,22.528305 19.705915,31.158358 1.94119092,39.3115815 L0.92948311,39.7725765 L-1.54494949,33.9096825 C15.5034183,26.1969017 26.8688034,18.1895691 32.5510488,10.0576991 L32.8666158,9.59727268 Z M32.8666158,-6.39818182 L37.9394016,-2.74404652 C31.7052662,6.53285047 19.705915,15.1629035 1.94119092,23.316127 L0.92948311,23.7771221 L-1.54494949,17.914228 C15.5034183,10.2014472 26.8688034,2.19411461 32.5510488,-5.93775539 L32.8666158,-6.39818182 Z"
                      id="形状"
                      fill="url(#linearGradient-34)"
                      fill-rule="nonzero"
                      mask="url(#mask-33)"
                    ></path>
                  </g>
                </g>
              </g>
            </g>
          </g>
        </g>
      </g>
    </svg>