<svg width="466" height="466" viewBox="0 0 466 466" fill="none" xmlns="http://www.w3.org/2000/svg">
<g clip-path="url(#clip0_326_14205)">
<g filter="url(#filter0_f_326_14205)">
<path d="M233.803 387.115C317.588 387.115 385.509 318.475 385.509 233.803C385.509 149.131 317.588 80.491 233.803 80.491C150.018 80.491 82.0963 149.131 82.0963 233.803C82.0963 318.475 150.018 387.115 233.803 387.115Z" fill="url(#paint0_radial_326_14205)" fill-opacity="0.6"/>
</g>
<g opacity="0.3">
<path fill-rule="evenodd" clip-rule="evenodd" d="M179.071 306.591C223.041 306.591 258.686 261.727 258.686 206.384C258.686 151.041 223.041 106.177 179.071 106.177C135.102 106.177 111.855 153.146 99.4569 206.384C93.6726 231.222 85.4269 278.248 99.4569 296.314C113.912 314.927 156.758 306.591 179.071 306.591Z" fill="url(#paint1_linear_326_14205)"/>
<path fill-rule="evenodd" clip-rule="evenodd" d="M179.071 306.591C223.041 306.591 258.686 261.727 258.686 206.384C258.686 151.041 223.041 106.177 179.071 106.177C135.102 106.177 111.855 153.146 99.4569 206.384C93.6726 231.222 85.4269 278.248 99.4569 296.314C113.912 314.927 156.758 306.591 179.071 306.591Z" fill="url(#paint2_linear_326_14205)"/>
<path fill-rule="evenodd" clip-rule="evenodd" d="M286.897 326.111C330.849 326.111 377.805 311.551 368.191 259.308C358.576 207.064 335.983 131.862 292.031 131.862C248.079 131.862 207.314 170.565 207.314 225.906C207.314 281.248 242.945 326.111 286.897 326.111Z" fill="url(#paint3_linear_326_14205)"/>
<path fill-rule="evenodd" clip-rule="evenodd" d="M286.897 326.111C330.849 326.111 377.805 311.551 368.191 259.308C358.576 207.064 335.983 131.862 292.031 131.862C248.079 131.862 207.314 170.565 207.314 225.906C207.314 281.248 242.945 326.111 286.897 326.111Z" fill="url(#paint4_linear_326_14205)"/>
</g>
<g filter="url(#filter1_i_326_14205)">
<path d="M125.304 171.502C120.016 171.502 116 167.752 116 162.751C116 158.526 120.548 156.076 124.733 155.176C125.808 150.651 128.585 146.425 133.874 146.425C135.429 146.425 136.984 146.725 138.398 147.275C141.029 143.375 145.752 141 150.955 141C159.072 141 163.962 149.48 163.962 153.905C163.962 154.28 165.661 154.801 165.633 155.176C168.659 156.726 170.582 159.626 170.582 162.751C170.582 167.577 166.142 171.502 160.712 171.502H125.304Z" fill="white"/>
</g>
<g filter="url(#filter2_f_326_14205)">
<path d="M231.328 367.895C344.31 367.895 435.9 343.188 435.9 312.711C435.9 282.233 344.31 257.526 231.328 257.526C118.346 257.526 26.756 282.233 26.756 312.711C26.756 343.188 118.346 367.895 231.328 367.895Z" fill="url(#paint5_linear_326_14205)"/>
</g>
<g opacity="0.6" filter="url(#filter3_f_326_14205)">
<path fill-rule="evenodd" clip-rule="evenodd" d="M156.718 291.663L156.688 293.427L104.63 292.504L104.66 290.739L156.718 291.663Z" fill="url(#paint6_linear_326_14205)"/>
</g>
<path d="M107.782 276.345H104.571V292.398H107.782V276.345Z" fill="url(#paint7_linear_326_14205)"/>
<path fill-rule="evenodd" clip-rule="evenodd" d="M106.177 255.475V279.555L114.203 273.836L106.177 255.475Z" fill="#F2883B"/>
<path fill-rule="evenodd" clip-rule="evenodd" d="M106.177 255.475L106.177 279.555L93.3338 273.887L106.177 255.475Z" fill="#FFCA9E"/>
<g opacity="0.6" filter="url(#filter4_f_326_14205)">
<path fill-rule="evenodd" clip-rule="evenodd" d="M390.03 326.044L390 327.809L337.942 326.885L337.972 325.121L390.03 326.044Z" fill="url(#paint8_linear_326_14205)"/>
</g>
<path d="M341.094 310.726H337.883V326.78H341.094V310.726Z" fill="url(#paint9_linear_326_14205)"/>
<path fill-rule="evenodd" clip-rule="evenodd" d="M339.489 289.856V313.937L347.516 308.217L339.489 289.856Z" fill="#F2883B"/>
<path fill-rule="evenodd" clip-rule="evenodd" d="M339.489 289.856L339.489 313.937L326.646 308.269L339.489 289.856Z" fill="#FFCA9E"/>
<g clip-path="url(#clip1_326_14205)">
<g filter="url(#filter5_f_326_14205)">
<path d="M164.574 291.226C154.583 296.738 168.476 304.263 170.715 305.369C182.971 311.424 204.952 320.704 236.657 333.209C240.623 335.177 242.97 332.919 247.112 331.414C253.017 336.088 259.086 337.667 265.321 336.152C279.127 331.348 286.207 328.946 286.56 328.946C295.047 328.946 305.966 329.454 319.318 330.469L321.251 330.709L323.119 330.926L324.9 331.116C325.188 331.145 325.472 331.172 325.75 331.198L327.357 331.333C329.151 331.466 330.65 331.508 331.691 331.414L335.311 331.078L338.388 330.77L339.993 330.591L341.427 330.412L342.294 330.291L343.466 330.104L344.167 329.973L344.806 329.837L345.387 329.694L345.911 329.543C345.994 329.517 346.075 329.491 346.153 329.464L346.599 329.299C347.933 328.759 348.531 328.056 348.795 327.026L348.867 326.69L348.921 326.331L348.958 325.948L348.98 325.54L348.992 325.106C349.303 318.101 340.056 314.117 321.251 313.155C318.142 309.858 319.717 307.262 325.974 305.369C348.795 298.463 338.573 287.249 321.851 284.982C285.407 285.505 260.031 283.345 245.722 278.503C220.366 269.922 174.566 285.714 164.574 291.226Z" fill="url(#paint10_linear_326_14205)"/>
</g>
<g filter="url(#filter6_f_326_14205)">
<path d="M162.517 290.296C152.685 295.471 166.356 302.536 168.56 303.575C180.621 309.26 202.251 317.974 233.45 329.715C237.352 331.562 239.661 329.442 243.738 328.029C249.548 332.418 255.521 333.9 261.656 332.477C275.242 327.967 282.209 325.712 282.556 325.712C290.908 325.712 301.653 326.189 314.791 327.142L316.693 327.367L318.532 327.571L320.284 327.749C320.568 327.776 320.847 327.802 321.121 327.826L322.702 327.953C324.468 328.078 325.943 328.118 326.967 328.029L330.529 327.713L333.558 327.424L335.136 327.257L336.548 327.089L337.401 326.975L338.555 326.799L339.244 326.677L339.873 326.549L340.444 326.414L340.96 326.272C341.042 326.248 341.121 326.223 341.199 326.198L341.638 326.043C342.95 325.536 343.538 324.876 343.798 323.909L343.87 323.594L343.922 323.257L343.958 322.897L343.981 322.514L343.993 322.106C344.298 315.529 335.199 311.789 316.693 310.885C313.635 307.789 315.184 305.353 321.341 303.575C343.798 297.091 333.74 286.562 317.284 284.433C281.422 284.924 256.451 282.897 242.37 278.35C217.419 270.293 172.35 285.12 162.517 290.296Z" fill="url(#paint11_linear_326_14205)"/>
</g>
<path d="M155.232 209.987L213.005 190.019L220.557 189.081V276.65L185.025 287.591C171.08 291.885 156.895 281.662 156.557 267.075L155.232 209.987Z" fill="url(#paint12_linear_326_14205)"/>
<path d="M220.176 189.081L228.943 189.813L308.395 211.553L305.185 292.068C305.085 294.586 302.709 296.385 300.257 295.798L220.557 276.719L220.176 189.081Z" fill="url(#paint13_linear_326_14205)"/>
<g filter="url(#filter7_d_326_14205)">
<path d="M214.491 238.018C214.324 236.878 214.883 235.609 215.328 234.782C215.773 233.954 219.415 235.039 219.479 235.683C219.543 236.327 218.68 238.772 218.057 239.397C217.434 240.022 214.657 239.158 214.491 238.018Z" fill="url(#paint14_linear_326_14205)"/>
<path d="M215.125 235.824C215.065 235.397 214.64 234.683 216.74 229.088C218.84 223.494 221.06 223.428 221.748 222.958C223.238 221.944 223.571 229.26 223.526 230.335C223.48 231.41 219.875 237.057 218.841 237.588C217.806 238.119 215.236 236.618 215.125 235.824Z" fill="url(#paint15_linear_326_14205)"/>
<g filter="url(#filter8_i_326_14205)">
<path fill-rule="evenodd" clip-rule="evenodd" d="M250.49 245.301C251.541 243.982 252.134 242.485 252.134 240.898C252.134 235.584 245.48 231.276 237.271 231.276C229.063 231.276 222.408 235.584 222.408 240.898C222.408 242.666 223.145 244.323 224.43 245.746L225.602 255.331H225.647C225.71 256.297 226.168 257.454 226.534 257.696C227.019 258.017 232.512 258.178 232.996 257.696C233.425 257.271 233.854 256.217 233.947 255.09L234.639 250.37C235.493 250.469 236.373 250.52 237.271 250.52C238.281 250.52 239.268 250.455 240.222 250.331L240.919 255.09C241.012 256.217 241.441 257.271 241.87 257.696C242.354 258.178 247.847 258.017 248.332 257.696C248.698 257.454 249.156 256.297 249.219 255.331H249.264L250.49 245.301Z" fill="url(#paint16_radial_326_14205)"/>
</g>
<rect x="222.879" y="235.343" width="29.0798" height="7.69751" fill="url(#paint17_radial_326_14205)"/>
<rect x="222.879" y="235.343" width="29.0798" height="7.69751" fill="url(#paint18_linear_326_14205)" fill-opacity="0.6"/>
<rect x="222.879" y="235.343" width="29.0798" height="7.69751" fill="url(#paint19_linear_326_14205)" fill-opacity="0.6"/>
<g filter="url(#filter9_i_326_14205)">
<path d="M235.979 225.343L250.503 221.655L252.827 222.951C252.827 222.951 254.558 227.748 254.558 231.597C254.558 235.446 252.765 243.785 250.503 244.907C248.241 246.03 235.979 235.767 235.979 235.767V225.343Z" fill="url(#paint20_linear_326_14205)"/>
</g>
<g filter="url(#filter10_i_326_14205)">
<path d="M239.856 226.145L224.368 221.334L221.784 222.777C221.784 222.777 220.47 226.947 220.631 232.399C220.793 237.851 221.945 243.785 224.024 244.907C226.103 246.03 239.231 236.568 239.856 234.644C240.481 232.72 239.856 226.145 239.856 226.145Z" fill="url(#paint21_linear_326_14205)"/>
</g>
<g filter="url(#filter11_di_326_14205)">
<ellipse cx="237.11" cy="232.399" rx="1.7771" ry="1.76401" fill="url(#paint22_radial_326_14205)"/>
</g>
<g filter="url(#filter12_ii_326_14205)">
<path d="M238.389 153.717C242.912 152.098 246.789 147.142 247.274 144.897C249.051 146.02 252.04 148.906 252.928 152.434C253.817 155.962 254.059 158.956 254.221 161.094C254.221 161.094 260.521 157.566 262.783 157.245C262.783 158.207 262.46 163.82 263.429 167.99C264.399 172.159 267.791 176.649 269.569 182.422C271.346 188.195 270.376 196.214 270.053 198.459C272.476 199.421 275.384 200.223 277 201.025C277 202.147 271.184 207.76 268.761 208.722C269.892 209.684 272.638 211.128 273.769 211.769C273.284 214.014 265.853 220.91 254.706 222.995C252.546 223.399 227.781 223.439 220.456 222.193C214.802 221.231 206.239 215.939 202.847 212.25C204.731 211.983 205.108 211.448 206.239 210.647C204.139 210.326 198 202.468 198 200.864C200.908 200.544 203.008 199.581 204.462 198.298C203.493 192.525 204.813 181.513 208.663 174.885C216.579 161.254 228.534 157.245 238.389 153.717Z" fill="url(#paint23_radial_326_14205)"/>
<path d="M238.389 153.717C242.912 152.098 246.789 147.142 247.274 144.897C249.051 146.02 252.04 148.906 252.928 152.434C253.817 155.962 254.059 158.956 254.221 161.094C254.221 161.094 260.521 157.566 262.783 157.245C262.783 158.207 262.46 163.82 263.429 167.99C264.399 172.159 267.791 176.649 269.569 182.422C271.346 188.195 270.376 196.214 270.053 198.459C272.476 199.421 275.384 200.223 277 201.025C277 202.147 271.184 207.76 268.761 208.722C269.892 209.684 272.638 211.128 273.769 211.769C273.284 214.014 265.853 220.91 254.706 222.995C252.546 223.399 227.781 223.439 220.456 222.193C214.802 221.231 206.239 215.939 202.847 212.25C204.731 211.983 205.108 211.448 206.239 210.647C204.139 210.326 198 202.468 198 200.864C200.908 200.544 203.008 199.581 204.462 198.298C203.493 192.525 204.813 181.513 208.663 174.885C216.579 161.254 228.534 157.245 238.389 153.717Z" fill="url(#paint24_linear_326_14205)" fill-opacity="0.3"/>
</g>
<mask id="mask0_326_14205" style="mask-type:alpha" maskUnits="userSpaceOnUse" x="198" y="144" width="79" height="80">
<path d="M238.389 153.717C242.912 152.098 246.789 147.142 247.274 144.897C249.051 146.02 252.04 148.906 252.928 152.434C253.817 155.962 254.059 158.956 254.221 161.094C254.221 161.094 260.521 157.566 262.783 157.245C262.783 158.207 262.46 163.82 263.429 167.99C264.399 172.159 267.791 176.649 269.569 182.422C271.346 188.195 270.376 196.214 270.053 198.459C272.476 199.421 275.384 200.223 277 201.025C277 202.147 271.184 207.76 268.761 208.722C269.892 209.684 272.638 211.128 273.769 211.769C273.284 214.014 265.853 220.91 254.706 222.995C252.546 223.399 227.781 223.439 220.456 222.193C214.802 221.231 206.239 215.939 202.847 212.25C204.731 211.983 205.108 211.448 206.239 210.647C204.139 210.326 198 202.468 198 200.864C200.908 200.544 203.008 199.581 204.462 198.298C203.493 192.525 204.813 181.513 208.663 174.885C216.579 161.254 228.534 157.245 238.389 153.717Z" fill="url(#paint25_radial_326_14205)"/>
<path d="M238.389 153.717C242.912 152.098 246.789 147.142 247.274 144.897C249.051 146.02 252.04 148.906 252.928 152.434C253.817 155.962 254.059 158.956 254.221 161.094C254.221 161.094 260.521 157.566 262.783 157.245C262.783 158.207 262.46 163.82 263.429 167.99C264.399 172.159 267.791 176.649 269.569 182.422C271.346 188.195 270.376 196.214 270.053 198.459C272.476 199.421 275.384 200.223 277 201.025C277 202.147 271.184 207.76 268.761 208.722C269.892 209.684 272.638 211.128 273.769 211.769C273.284 214.014 265.853 220.91 254.706 222.995C252.546 223.399 227.781 223.439 220.456 222.193C214.802 221.231 206.239 215.939 202.847 212.25C204.731 211.983 205.108 211.448 206.239 210.647C204.139 210.326 198 202.468 198 200.864C200.908 200.544 203.008 199.581 204.462 198.298C203.493 192.525 204.813 181.513 208.663 174.885C216.579 161.254 228.534 157.245 238.389 153.717Z" fill="url(#paint26_linear_326_14205)" fill-opacity="0.3"/>
</mask>
<g mask="url(#mask0_326_14205)">
<g filter="url(#filter13_f_326_14205)">
<path d="M208.501 212.411L211.571 210.967C211.571 210.967 207.532 209.417 204.785 207.6C202.039 205.782 197.515 200.544 197.515 200.544L198 205.355L203.17 212.09L208.501 212.411Z" fill="#B13804" fill-opacity="0.4"/>
</g>
<g filter="url(#filter14_f_326_14205)">
<path d="M267.307 211.769L262.783 207.76C262.783 207.76 265.207 207.279 268.599 206.477C271.992 205.675 277.808 200.704 277.808 200.704L276.838 204.873L274.577 212.25L267.307 211.769Z" fill="#B13804" fill-opacity="0.4"/>
</g>
<g filter="url(#filter15_f_326_14205)">
<path d="M253.575 164.141L254.544 160.292L262.945 156.764L253.575 164.141Z" fill="#B13804" fill-opacity="0.4"/>
</g>
<g opacity="0.7" filter="url(#filter16_f_326_14205)">
<path d="M237.419 219.467C265.045 220.268 273.769 212.411 273.769 212.411L261.975 226.683L232.896 228.607L213.025 223.796L203.493 213.212C203.493 213.212 209.793 218.665 237.419 219.467Z" fill="#B13804" fill-opacity="0.4"/>
</g>
</g>
<path fill-rule="evenodd" clip-rule="evenodd" d="M229.988 192.365C229.988 197.325 225.937 201.346 220.941 201.346C215.944 201.346 211.894 197.325 211.894 192.365C211.894 187.405 215.944 183.385 220.941 183.385C225.937 183.385 229.988 187.405 229.988 192.365ZM220.941 199.421C224.867 199.421 228.049 196.262 228.049 192.365C228.049 188.468 224.867 185.309 220.941 185.309C217.015 185.309 213.832 188.468 213.832 192.365C213.832 196.262 217.015 199.421 220.941 199.421Z" fill="#C7482C"/>
<path d="M228.695 192.365C228.695 196.616 225.223 200.063 220.941 200.063C216.658 200.063 213.186 196.616 213.186 192.365C213.186 188.114 216.658 184.667 220.941 184.667C225.223 184.667 228.695 188.114 228.695 192.365Z" fill="white"/>
<ellipse cx="221.102" cy="192.526" rx="1.45399" ry="1.44328" fill="#003265"/>
<path fill-rule="evenodd" clip-rule="evenodd" d="M244.851 192.044C244.851 197.004 248.901 201.025 253.898 201.025C258.894 201.025 262.945 197.004 262.945 192.044C262.945 187.085 258.894 183.064 253.898 183.064C248.901 183.064 244.851 187.085 244.851 192.044ZM253.898 199.1C249.972 199.1 246.789 195.941 246.789 192.044C246.789 188.147 249.972 184.988 253.898 184.988C257.824 184.988 261.006 188.147 261.006 192.044C261.006 195.941 257.824 199.1 253.898 199.1Z" fill="#C7482C"/>
<path d="M246.143 192.044C246.143 196.295 249.615 199.742 253.898 199.742C258.18 199.742 261.652 196.295 261.652 192.044C261.652 187.793 258.18 184.347 253.898 184.347C249.615 184.347 246.143 187.793 246.143 192.044Z" fill="white"/>
<ellipse rx="1.45399" ry="1.44328" transform="matrix(-1 0 0 1 253.736 192.205)" fill="#003265"/>
<g filter="url(#filter17_d_326_14205)">
<path d="M237.581 218.672C233.057 218.672 227.187 213.968 224.818 211.616L226.757 210.333H231.442L235.481 209.531H246.305L250.02 211.288C247.705 213.64 242.104 218.672 237.581 218.672Z" fill="url(#paint27_linear_326_14205)"/>
</g>
<path d="M237.742 198.786C243.235 199.107 248.836 206.965 251.313 210.974C249.581 212.447 247.654 210.798 245.012 210.974C242.37 211.15 240.327 213.059 237.742 213.059C235.157 213.059 231.169 211.196 228.857 210.974C225.546 210.657 224.98 212.578 223.526 210.974C224.656 209.691 232.249 198.466 237.742 198.786Z" fill="url(#paint28_radial_326_14205)"/>
<g opacity="0.8" filter="url(#filter18_f_326_14205)">
<ellipse rx="4.34262" ry="8.74119" transform="matrix(0.842832 -0.538177 0.543832 0.839194 250.68 169.38)" fill="#FDCE4E"/>
</g>
<path d="M263.708 209.301C262.876 210.105 262.541 211.449 262.385 212.374C262.23 213.299 265.785 214.641 266.231 214.169C266.676 213.698 267.493 211.237 267.382 210.364C267.271 209.491 264.539 208.498 263.708 209.301Z" fill="url(#paint29_linear_326_14205)"/>
<g filter="url(#filter19_d_326_14205)">
<path d="M262.733 212.204C262.341 212.389 261.368 214.081 257.951 217.244C254.533 220.406 252.758 222.636 252.741 223.465C252.705 225.258 253.05 229.425 254.438 230.627C255.826 231.829 261.781 224.009 263.691 220.919C265.568 217.882 266.319 214.887 266.259 214.317C266.138 213.167 263.463 211.86 262.733 212.204Z" fill="url(#paint30_linear_326_14205)"/>
</g>
<g filter="url(#filter20_d_326_14205)">
<path d="M246.628 231.872C245.012 231.712 241.458 228.579 241.135 228.259L239.681 225.532C240.166 225.158 241.717 224.217 244.043 223.448C246.951 222.486 249.374 225.457 249.536 226.259C249.697 227.061 249.536 229.627 249.213 230.108C248.89 230.589 248.243 232.032 246.628 231.872Z" fill="url(#paint31_linear_326_14205)"/>
<path d="M246.951 217.581C245.335 217.741 241.781 221.43 241.458 221.75L240.004 224.476C240.489 224.851 242.04 225.791 244.366 226.561C247.274 227.523 249.697 225.278 249.859 224.476C250.02 223.675 250.182 218.383 249.859 217.902C249.536 217.42 248.566 217.42 246.951 217.581Z" fill="url(#paint32_linear_326_14205)"/>
<path d="M229.728 231.427C231.344 231.266 236.352 227.624 236.675 227.303V225.087C236.19 224.713 234.414 223.904 232.088 223.134C229.18 222.172 226.982 225.012 226.82 225.814C226.658 226.616 226.82 229.182 227.143 229.663C227.466 230.144 228.112 231.587 229.728 231.427Z" fill="url(#paint33_linear_326_14205)"/>
<path d="M229.672 218.011C231.243 218.416 236.78 221.603 237.103 221.924V225.773C236.619 226.147 234.547 226.895 232.095 226.895C228.541 226.895 225.956 225.291 225.794 224.49C225.633 223.688 224.987 219.839 226.118 218.556C226.757 217.831 228.056 217.594 229.672 218.011Z" fill="url(#paint34_linear_326_14205)"/>
<path d="M241.458 221.637C240.973 221.156 238.227 221.317 237.904 221.637C237.581 221.958 237.096 227.25 237.096 227.25C238.281 227.41 240.456 228.244 240.973 227.731C241.62 227.09 241.943 222.118 241.458 221.637Z" fill="url(#paint35_linear_326_14205)"/>
<path d="M237.483 221.198C236.836 220.877 235.382 221.038 235.059 221.198C234.736 221.358 234.09 222 233.928 223.764C233.767 225.528 233.928 227.933 234.252 228.254C234.575 228.575 236.19 228.735 237.483 228.735C238.775 228.735 240.229 228.896 240.391 228.254C240.552 227.613 239.841 225.175 239.583 224.405C239.324 223.636 238.129 221.519 237.483 221.198Z" fill="url(#paint36_linear_326_14205)"/>
</g>
</g>
<path d="M155.295 212.023L157.129 292.07C157.242 297.005 160.428 301.343 165.104 302.928L234.541 326.467L241.435 327.109V235.98L240.877 236.245L157.841 210.11C156.809 209.786 155.709 210.359 155.385 211.39C155.32 211.595 155.29 211.809 155.295 212.023Z" fill="url(#paint37_linear_326_14205)"/>
<g filter="url(#filter21_f_326_14205)">
<path d="M158 247.5L157 219L241.5 236.5L234.873 273.172C234.422 275.664 231.797 277.116 229.447 276.173L158 247.5Z" fill="url(#paint38_linear_326_14205)"/>
</g>
<path d="M148.524 246.678L219.157 270.11C223.032 271.395 227.245 269.489 228.837 265.73L241.435 235.98L238.748 235.547L156.895 209.822C155.933 209.52 154.899 209.997 154.505 210.925L143.78 236.182C142.089 240.164 143.947 244.763 147.929 246.453C148.124 246.536 148.323 246.611 148.524 246.678Z" fill="url(#paint39_linear_326_14205)"/>
<path d="M241.435 235.98L242.367 236.496L308.395 213.369L305.334 292.735C305.162 297.179 302.497 301.145 298.447 302.982L247.428 326.127L241.435 327.109V235.98Z" fill="url(#paint40_linear_326_14205)"/>
<g opacity="0.6" filter="url(#filter22_f_326_14205)">
<path d="M308 250.5V220.5L241.5 236.5L248.5 268.002C249.028 270.377 251.536 271.734 253.813 270.878L308 250.5Z" fill="url(#paint41_linear_326_14205)" style="mix-blend-mode:multiply"/>
</g>
<path d="M241.435 235.98L244.11 235.397L306.62 211.451C307.609 211.073 308.719 211.548 309.128 212.525L320.143 238.891C321.788 242.827 319.98 247.356 316.077 249.078L265.612 271.339C261.654 273.082 257.031 271.29 255.281 267.335L241.435 235.98Z" fill="url(#paint42_linear_326_14205)"/>
<g filter="url(#filter23_i_326_14205)">
<path d="M330.397 192C333.013 192 335 190.156 335 187.697C335 185.619 332.75 184.414 330.68 183.971C330.148 181.746 328.775 179.668 326.159 179.668C325.389 179.668 324.62 179.816 323.92 180.086C322.619 178.168 320.283 177 317.709 177C313.694 177 311.275 181.17 311.275 183.347C311.275 183.531 310.434 183.787 310.448 183.971C308.951 184.734 308 186.16 308 187.697C308 190.07 310.196 192 312.882 192H330.397Z" fill="white"/>
</g>
</g>
<g opacity="0.6" filter="url(#filter24_f_326_14205)">
<path fill-rule="evenodd" clip-rule="evenodd" d="M231.884 353.04L231.84 355.632L155.844 354.275L155.889 351.683L231.884 353.04Z" fill="url(#paint43_linear_326_14205)"/>
</g>
<path d="M160.446 330.542H155.759V354.12H160.446V330.542Z" fill="url(#paint44_linear_326_14205)"/>
<path fill-rule="evenodd" clip-rule="evenodd" d="M158.102 299.89V335.257L169.82 326.857L158.102 299.89Z" fill="#F2883B"/>
<path fill-rule="evenodd" clip-rule="evenodd" d="M158.102 299.89L158.102 335.257L139.354 326.932L158.102 299.89Z" fill="#FFCA9E"/>
<path d="M277.665 159.52C303.209 152.459 315.774 142.564 315.358 129.835C314.735 110.741 299.389 122.55 304.462 130.98C309.535 139.41 349.102 138.577 370.524 106.177" stroke="#DC8038" stroke-dasharray="3 3"/>
</g>
<defs>
<filter id="filter0_f_326_14205" x="34.0963" y="32.491" width="399.413" height="402.624" filterUnits="userSpaceOnUse" color-interpolation-filters="sRGB">
<feFlood flood-opacity="0" result="BackgroundImageFix"/>
<feBlend mode="normal" in="SourceGraphic" in2="BackgroundImageFix" result="shape"/>
<feGaussianBlur stdDeviation="24" result="effect1_foregroundBlur_326_14205"/>
</filter>
<filter id="filter1_i_326_14205" x="116" y="140" width="54.5822" height="31.5017" filterUnits="userSpaceOnUse" color-interpolation-filters="sRGB">
<feFlood flood-opacity="0" result="BackgroundImageFix"/>
<feBlend mode="normal" in="SourceGraphic" in2="BackgroundImageFix" result="shape"/>
<feColorMatrix in="SourceAlpha" type="matrix" values="0 0 0 0 0 0 0 0 0 0 0 0 0 0 0 0 0 0 127 0" result="hardAlpha"/>
<feOffset dy="-1"/>
<feGaussianBlur stdDeviation="2"/>
<feComposite in2="hardAlpha" operator="arithmetic" k2="-1" k3="1"/>
<feColorMatrix type="matrix" values="0 0 0 0 0.894118 0 0 0 0 0.941176 0 0 0 0 0.996078 0 0 0 1 0"/>
<feBlend mode="normal" in2="shape" result="effect1_innerShadow_326_14205"/>
</filter>
<filter id="filter2_f_326_14205" x="-3.24402" y="227.526" width="469.144" height="170.368" filterUnits="userSpaceOnUse" color-interpolation-filters="sRGB">
<feFlood flood-opacity="0" result="BackgroundImageFix"/>
<feBlend mode="normal" in="SourceGraphic" in2="BackgroundImageFix" result="shape"/>
<feGaussianBlur stdDeviation="15" result="effect1_foregroundBlur_326_14205"/>
</filter>
<filter id="filter3_f_326_14205" x="103.63" y="289.739" width="54.0881" height="4.68823" filterUnits="userSpaceOnUse" color-interpolation-filters="sRGB">
<feFlood flood-opacity="0" result="BackgroundImageFix"/>
<feBlend mode="normal" in="SourceGraphic" in2="BackgroundImageFix" result="shape"/>
<feGaussianBlur stdDeviation="0.5" result="effect1_foregroundBlur_326_14205"/>
</filter>
<filter id="filter4_f_326_14205" x="336.942" y="324.121" width="54.088" height="4.68823" filterUnits="userSpaceOnUse" color-interpolation-filters="sRGB">
<feFlood flood-opacity="0" result="BackgroundImageFix"/>
<feBlend mode="normal" in="SourceGraphic" in2="BackgroundImageFix" result="shape"/>
<feGaussianBlur stdDeviation="0.5" result="effect1_foregroundBlur_326_14205"/>
</filter>
<filter id="filter5_f_326_14205" x="155" y="270" width="200" height="72.7083" filterUnits="userSpaceOnUse" color-interpolation-filters="sRGB">
<feFlood flood-opacity="0" result="BackgroundImageFix"/>
<feBlend mode="normal" in="SourceGraphic" in2="BackgroundImageFix" result="shape"/>
<feGaussianBlur stdDeviation="3" result="effect1_foregroundBlur_326_14205"/>
</filter>
<filter id="filter6_f_326_14205" x="155" y="272" width="193" height="65" filterUnits="userSpaceOnUse" color-interpolation-filters="sRGB">
<feFlood flood-opacity="0" result="BackgroundImageFix"/>
<feBlend mode="normal" in="SourceGraphic" in2="BackgroundImageFix" result="shape"/>
<feGaussianBlur stdDeviation="2" result="effect1_foregroundBlur_326_14205"/>
</filter>
<filter id="filter7_d_326_14205" x="194" y="144.897" width="87" height="121.103" filterUnits="userSpaceOnUse" color-interpolation-filters="sRGB">
<feFlood flood-opacity="0" result="BackgroundImageFix"/>
<feColorMatrix in="SourceAlpha" type="matrix" values="0 0 0 0 0 0 0 0 0 0 0 0 0 0 0 0 0 0 127 0" result="hardAlpha"/>
<feOffset dy="4"/>
<feGaussianBlur stdDeviation="2"/>
<feColorMatrix type="matrix" values="0 0 0 0 0.823529 0 0 0 0 0.490196 0 0 0 0 0.235294 0 0 0 0.25 0"/>
<feBlend mode="normal" in2="BackgroundImageFix" result="effect1_dropShadow_326_14205"/>
<feBlend mode="normal" in="SourceGraphic" in2="effect1_dropShadow_326_14205" result="shape"/>
</filter>
<filter id="filter8_i_326_14205" x="222.408" y="231.276" width="29.726" height="26.7236" filterUnits="userSpaceOnUse" color-interpolation-filters="sRGB">
<feFlood flood-opacity="0" result="BackgroundImageFix"/>
<feBlend mode="normal" in="SourceGraphic" in2="BackgroundImageFix" result="shape"/>
<feColorMatrix in="SourceAlpha" type="matrix" values="0 0 0 0 0 0 0 0 0 0 0 0 0 0 0 0 0 0 127 0" result="hardAlpha"/>
<feOffset/>
<feGaussianBlur stdDeviation="4.5"/>
<feComposite in2="hardAlpha" operator="arithmetic" k2="-1" k3="1"/>
<feColorMatrix type="matrix" values="0 0 0 0 0.758333 0 0 0 0 0.411719 0 0 0 0 0.0884722 0 0 0 1 0"/>
<feBlend mode="normal" in2="shape" result="effect1_innerShadow_326_14205"/>
</filter>
<filter id="filter9_i_326_14205" x="235.979" y="221.655" width="18.5787" height="23.3386" filterUnits="userSpaceOnUse" color-interpolation-filters="sRGB">
<feFlood flood-opacity="0" result="BackgroundImageFix"/>
<feBlend mode="normal" in="SourceGraphic" in2="BackgroundImageFix" result="shape"/>
<feColorMatrix in="SourceAlpha" type="matrix" values="0 0 0 0 0 0 0 0 0 0 0 0 0 0 0 0 0 0 127 0" result="hardAlpha"/>
<feOffset/>
<feGaussianBlur stdDeviation="2.5"/>
<feComposite in2="hardAlpha" operator="arithmetic" k2="-1" k3="1"/>
<feColorMatrix type="matrix" values="0 0 0 0 0.0938492 0 0 0 0 0.0836111 0 0 0 0 0.179167 0 0 0 0.83 0"/>
<feBlend mode="normal" in2="shape" result="effect1_innerShadow_326_14205"/>
</filter>
<filter id="filter10_i_326_14205" x="220.618" y="221.334" width="19.5164" height="23.6658" filterUnits="userSpaceOnUse" color-interpolation-filters="sRGB">
<feFlood flood-opacity="0" result="BackgroundImageFix"/>
<feBlend mode="normal" in="SourceGraphic" in2="BackgroundImageFix" result="shape"/>
<feColorMatrix in="SourceAlpha" type="matrix" values="0 0 0 0 0 0 0 0 0 0 0 0 0 0 0 0 0 0 127 0" result="hardAlpha"/>
<feOffset/>
<feGaussianBlur stdDeviation="3.5"/>
<feComposite in2="hardAlpha" operator="arithmetic" k2="-1" k3="1"/>
<feColorMatrix type="matrix" values="0 0 0 0 0.129412 0 0 0 0 0.117647 0 0 0 0 0.223529 0 0 0 1 0"/>
<feBlend mode="normal" in2="shape" result="effect1_innerShadow_326_14205"/>
</filter>
<filter id="filter11_di_326_14205" x="234.333" y="229.635" width="5.55419" height="6.52808" filterUnits="userSpaceOnUse" color-interpolation-filters="sRGB">
<feFlood flood-opacity="0" result="BackgroundImageFix"/>
<feColorMatrix in="SourceAlpha" type="matrix" values="0 0 0 0 0 0 0 0 0 0 0 0 0 0 0 0 0 0 127 0" result="hardAlpha"/>
<feOffset dy="1"/>
<feGaussianBlur stdDeviation="0.5"/>
<feComposite in2="hardAlpha" operator="out"/>
<feColorMatrix type="matrix" values="0 0 0 0 0.097963 0 0 0 0 0.08625 0 0 0 0 0.191667 0 0 0 0.7 0"/>
<feBlend mode="multiply" in2="BackgroundImageFix" result="effect1_dropShadow_326_14205"/>
<feBlend mode="normal" in="SourceGraphic" in2="effect1_dropShadow_326_14205" result="shape"/>
<feColorMatrix in="SourceAlpha" type="matrix" values="0 0 0 0 0 0 0 0 0 0 0 0 0 0 0 0 0 0 127 0" result="hardAlpha"/>
<feOffset dy="-1"/>
<feGaussianBlur stdDeviation="1"/>
<feComposite in2="hardAlpha" operator="arithmetic" k2="-1" k3="1"/>
<feColorMatrix type="matrix" values="0 0 0 0 0.0623698 0 0 0 0 0.0488542 0 0 0 0 0.175 0 0 0 1 0"/>
<feBlend mode="normal" in2="shape" result="effect2_innerShadow_326_14205"/>
</filter>
<filter id="filter12_ii_326_14205" x="198" y="144.897" width="79" height="79.3501" filterUnits="userSpaceOnUse" color-interpolation-filters="sRGB">
<feFlood flood-opacity="0" result="BackgroundImageFix"/>
<feBlend mode="normal" in="SourceGraphic" in2="BackgroundImageFix" result="shape"/>
<feColorMatrix in="SourceAlpha" type="matrix" values="0 0 0 0 0 0 0 0 0 0 0 0 0 0 0 0 0 0 127 0" result="hardAlpha"/>
<feOffset/>
<feGaussianBlur stdDeviation="8"/>
<feComposite in2="hardAlpha" operator="arithmetic" k2="-1" k3="1"/>
<feColorMatrix type="matrix" values="0 0 0 0 0.775 0 0 0 0 0.442267 0 0 0 0 0.0516667 0 0 0 1 0"/>
<feBlend mode="normal" in2="shape" result="effect1_innerShadow_326_14205"/>
<feColorMatrix in="SourceAlpha" type="matrix" values="0 0 0 0 0 0 0 0 0 0 0 0 0 0 0 0 0 0 127 0" result="hardAlpha"/>
<feOffset dy="1"/>
<feGaussianBlur stdDeviation="1.5"/>
<feComposite in2="hardAlpha" operator="arithmetic" k2="-1" k3="1"/>
<feColorMatrix type="matrix" values="0 0 0 0 1 0 0 0 0 0.980667 0 0 0 0 0.879167 0 0 0 1 0"/>
<feBlend mode="normal" in2="effect1_innerShadow_326_14205" result="effect2_innerShadow_326_14205"/>
</filter>
<filter id="filter13_f_326_14205" x="194.515" y="197.544" width="20.0552" height="17.8669" filterUnits="userSpaceOnUse" color-interpolation-filters="sRGB">
<feFlood flood-opacity="0" result="BackgroundImageFix"/>
<feBlend mode="normal" in="SourceGraphic" in2="BackgroundImageFix" result="shape"/>
<feGaussianBlur stdDeviation="1.5" result="effect1_foregroundBlur_326_14205"/>
</filter>
<filter id="filter14_f_326_14205" x="259.783" y="197.704" width="21.0245" height="17.5464" filterUnits="userSpaceOnUse" color-interpolation-filters="sRGB">
<feFlood flood-opacity="0" result="BackgroundImageFix"/>
<feBlend mode="normal" in="SourceGraphic" in2="BackgroundImageFix" result="shape"/>
<feGaussianBlur stdDeviation="1.5" result="effect1_foregroundBlur_326_14205"/>
</filter>
<filter id="filter15_f_326_14205" x="251.575" y="154.764" width="13.3701" height="11.3767" filterUnits="userSpaceOnUse" color-interpolation-filters="sRGB">
<feFlood flood-opacity="0" result="BackgroundImageFix"/>
<feBlend mode="normal" in="SourceGraphic" in2="BackgroundImageFix" result="shape"/>
<feGaussianBlur stdDeviation="1" result="effect1_foregroundBlur_326_14205"/>
</filter>
<filter id="filter16_f_326_14205" x="200.493" y="209.411" width="76.2761" height="22.1968" filterUnits="userSpaceOnUse" color-interpolation-filters="sRGB">
<feFlood flood-opacity="0" result="BackgroundImageFix"/>
<feBlend mode="normal" in="SourceGraphic" in2="BackgroundImageFix" result="shape"/>
<feGaussianBlur stdDeviation="1.5" result="effect1_foregroundBlur_326_14205"/>
</filter>
<filter id="filter17_d_326_14205" x="221.818" y="208.531" width="31.2025" height="15.1409" filterUnits="userSpaceOnUse" color-interpolation-filters="sRGB">
<feFlood flood-opacity="0" result="BackgroundImageFix"/>
<feColorMatrix in="SourceAlpha" type="matrix" values="0 0 0 0 0 0 0 0 0 0 0 0 0 0 0 0 0 0 127 0" result="hardAlpha"/>
<feOffset dy="2"/>
<feGaussianBlur stdDeviation="1.5"/>
<feComposite in2="hardAlpha" operator="out"/>
<feColorMatrix type="matrix" values="0 0 0 0 0 0 0 0 0 0 0 0 0 0 0 0 0 0 0.25 0"/>
<feBlend mode="normal" in2="BackgroundImageFix" result="effect1_dropShadow_326_14205"/>
<feBlend mode="normal" in="SourceGraphic" in2="effect1_dropShadow_326_14205" result="shape"/>
</filter>
<filter id="filter18_f_326_14205" x="232.68" y="149.679" width="35.9997" height="39.4019" filterUnits="userSpaceOnUse" color-interpolation-filters="sRGB">
<feFlood flood-opacity="0" result="BackgroundImageFix"/>
<feBlend mode="normal" in="SourceGraphic" in2="BackgroundImageFix" result="shape"/>
<feGaussianBlur stdDeviation="6" result="effect1_foregroundBlur_326_14205"/>
</filter>
<filter id="filter19_d_326_14205" x="248.739" y="208.148" width="21.5237" height="26.6038" filterUnits="userSpaceOnUse" color-interpolation-filters="sRGB">
<feFlood flood-opacity="0" result="BackgroundImageFix"/>
<feColorMatrix in="SourceAlpha" type="matrix" values="0 0 0 0 0 0 0 0 0 0 0 0 0 0 0 0 0 0 127 0" result="hardAlpha"/>
<feOffset/>
<feGaussianBlur stdDeviation="2"/>
<feComposite in2="hardAlpha" operator="out"/>
<feColorMatrix type="matrix" values="0 0 0 0 0.237228 0 0 0 0 0.20375 0 0 0 0 0.3 0 0 0 0.5 0"/>
<feBlend mode="normal" in2="BackgroundImageFix" result="effect1_dropShadow_326_14205"/>
<feBlend mode="normal" in="SourceGraphic" in2="effect1_dropShadow_326_14205" result="shape"/>
</filter>
<filter id="filter20_d_326_14205" x="217.495" y="213.485" width="40.2039" height="28.5542" filterUnits="userSpaceOnUse" color-interpolation-filters="sRGB">
<feFlood flood-opacity="0" result="BackgroundImageFix"/>
<feColorMatrix in="SourceAlpha" type="matrix" values="0 0 0 0 0 0 0 0 0 0 0 0 0 0 0 0 0 0 127 0" result="hardAlpha"/>
<feOffset dy="3"/>
<feGaussianBlur stdDeviation="3.5"/>
<feColorMatrix type="matrix" values="0 0 0 0 0.720833 0 0 0 0 0.148303 0 0 0 0 0.108125 0 0 0 0.5 0"/>
<feBlend mode="multiply" in2="BackgroundImageFix" result="effect1_dropShadow_326_14205"/>
<feBlend mode="normal" in="SourceGraphic" in2="effect1_dropShadow_326_14205" result="shape"/>
</filter>
<filter id="filter21_f_326_14205" x="153" y="215" width="92.5" height="65.4626" filterUnits="userSpaceOnUse" color-interpolation-filters="sRGB">
<feFlood flood-opacity="0" result="BackgroundImageFix"/>
<feBlend mode="normal" in="SourceGraphic" in2="BackgroundImageFix" result="shape"/>
<feGaussianBlur stdDeviation="2" result="effect1_foregroundBlur_326_14205"/>
</filter>
<filter id="filter22_f_326_14205" x="237.5" y="216.5" width="74.5" height="58.6357" filterUnits="userSpaceOnUse" color-interpolation-filters="sRGB">
<feFlood flood-opacity="0" result="BackgroundImageFix"/>
<feBlend mode="normal" in="SourceGraphic" in2="BackgroundImageFix" result="shape"/>
<feGaussianBlur stdDeviation="2" result="effect1_foregroundBlur_326_14205"/>
</filter>
<filter id="filter23_i_326_14205" x="308" y="176" width="27" height="16" filterUnits="userSpaceOnUse" color-interpolation-filters="sRGB">
<feFlood flood-opacity="0" result="BackgroundImageFix"/>
<feBlend mode="normal" in="SourceGraphic" in2="BackgroundImageFix" result="shape"/>
<feColorMatrix in="SourceAlpha" type="matrix" values="0 0 0 0 0 0 0 0 0 0 0 0 0 0 0 0 0 0 127 0" result="hardAlpha"/>
<feOffset dy="-1"/>
<feGaussianBlur stdDeviation="2"/>
<feComposite in2="hardAlpha" operator="arithmetic" k2="-1" k3="1"/>
<feColorMatrix type="matrix" values="0 0 0 0 0.894118 0 0 0 0 0.941176 0 0 0 0 0.996078 0 0 0 1 0"/>
<feBlend mode="normal" in2="shape" result="effect1_innerShadow_326_14205"/>
</filter>
<filter id="filter24_f_326_14205" x="154.844" y="350.683" width="78.0397" height="5.94824" filterUnits="userSpaceOnUse" color-interpolation-filters="sRGB">
<feFlood flood-opacity="0" result="BackgroundImageFix"/>
<feBlend mode="normal" in="SourceGraphic" in2="BackgroundImageFix" result="shape"/>
<feGaussianBlur stdDeviation="0.5" result="effect1_foregroundBlur_326_14205"/>
</filter>
<radialGradient id="paint0_radial_326_14205" cx="0" cy="0" r="1" gradientUnits="userSpaceOnUse" gradientTransform="translate(233.803 243.224) scale(241.002 243.251)">
<stop stop-color="white" stop-opacity="0"/>
<stop offset="1" stop-color="#BDE3FF"/>
<stop offset="1" stop-color="#BADAFF"/>
</radialGradient>
<linearGradient id="paint1_linear_326_14205" x1="182.5" y1="273.5" x2="189" y2="106" gradientUnits="userSpaceOnUse">
<stop stop-color="white" stop-opacity="0"/>
<stop offset="1" stop-color="#A2C5F9"/>
</linearGradient>
<linearGradient id="paint2_linear_326_14205" x1="175.207" y1="106.177" x2="175.207" y2="308.452" gradientUnits="userSpaceOnUse">
<stop stop-color="#86BEFF" stop-opacity="0.48"/>
<stop offset="1" stop-color="#8AD4FD" stop-opacity="0.44"/>
</linearGradient>
<linearGradient id="paint3_linear_326_14205" x1="295.467" y1="292.546" x2="301.64" y2="131.687" gradientUnits="userSpaceOnUse">
<stop stop-color="white" stop-opacity="0"/>
<stop offset="1" stop-color="#A2C5F9"/>
</linearGradient>
<linearGradient id="paint4_linear_326_14205" x1="288.385" y1="131.862" x2="288.385" y2="326.111" gradientUnits="userSpaceOnUse">
<stop stop-color="#86BEFF" stop-opacity="0.48"/>
<stop offset="1" stop-color="#5298EB" stop-opacity="0"/>
</linearGradient>
<linearGradient id="paint5_linear_326_14205" x1="231.328" y1="241.808" x2="231.328" y2="397.566" gradientUnits="userSpaceOnUse">
<stop stop-color="#F8FCFF"/>
<stop offset="1" stop-color="#C9DCF5" stop-opacity="0"/>
</linearGradient>
<linearGradient id="paint6_linear_326_14205" x1="156.688" y1="293.427" x2="93.6707" y2="292.327" gradientUnits="userSpaceOnUse">
<stop stop-color="#D2EAFF" stop-opacity="0.457332"/>
<stop offset="1" stop-color="#89A6C7"/>
</linearGradient>
<linearGradient id="paint7_linear_326_14205" x1="103.559" y1="283.521" x2="107.741" y2="283.521" gradientUnits="userSpaceOnUse">
<stop stop-color="#E8DFDB"/>
<stop offset="1" stop-color="#CCB9B5"/>
</linearGradient>
<linearGradient id="paint8_linear_326_14205" x1="390" y1="327.809" x2="326.983" y2="326.709" gradientUnits="userSpaceOnUse">
<stop stop-color="#D2EAFF" stop-opacity="0.457332"/>
<stop offset="1" stop-color="#89A6C7"/>
</linearGradient>
<linearGradient id="paint9_linear_326_14205" x1="336.871" y1="317.903" x2="341.053" y2="317.903" gradientUnits="userSpaceOnUse">
<stop stop-color="#E8DFDB"/>
<stop offset="1" stop-color="#CCB9B5"/>
</linearGradient>
<linearGradient id="paint10_linear_326_14205" x1="166" y1="294.5" x2="339.5" y2="325" gradientUnits="userSpaceOnUse">
<stop stop-color="#A1C4F5"/>
<stop offset="1" stop-color="#BAD6FD" stop-opacity="0"/>
</linearGradient>
<linearGradient id="paint11_linear_326_14205" x1="163.92" y1="293.37" x2="356.957" y2="318.017" gradientUnits="userSpaceOnUse">
<stop stop-color="#A1C4F5"/>
<stop offset="1" stop-color="#BAD6FD" stop-opacity="0"/>
</linearGradient>
<linearGradient id="paint12_linear_326_14205" x1="195.5" y1="196.5" x2="212.616" y2="241.293" gradientUnits="userSpaceOnUse">
<stop stop-color="#F1F6FF"/>
<stop offset="1" stop-color="#9EB0F0"/>
</linearGradient>
<linearGradient id="paint13_linear_326_14205" x1="264" y1="235.5" x2="279.247" y2="204.431" gradientUnits="userSpaceOnUse">
<stop stop-color="#99BEF3"/>
<stop offset="1" stop-color="#EFF6FF"/>
</linearGradient>
<linearGradient id="paint14_linear_326_14205" x1="214.624" y1="236.474" x2="219.068" y2="237.623" gradientUnits="userSpaceOnUse">
<stop stop-color="#F7A054"/>
<stop offset="1" stop-color="#DD7922"/>
</linearGradient>
<linearGradient id="paint15_linear_326_14205" x1="216.443" y1="226.998" x2="224.815" y2="231.667" gradientUnits="userSpaceOnUse">
<stop stop-color="#5E5471"/>
<stop offset="1" stop-color="#3D3748"/>
</linearGradient>
<radialGradient id="paint16_radial_326_14205" cx="0" cy="0" r="1" gradientUnits="userSpaceOnUse" gradientTransform="translate(237.419 242.72) rotate(90.5541) scale(15.2813 16.998)">
<stop stop-color="#FFBC80"/>
<stop offset="1" stop-color="#E68E42"/>
</radialGradient>
<radialGradient id="paint17_radial_326_14205" cx="0" cy="0" r="1" gradientUnits="userSpaceOnUse" gradientTransform="translate(239.724 242.873) rotate(-90) scale(5.35479 32.2013)">
<stop stop-color="#FAD365"/>
<stop offset="1" stop-color="#DE982F"/>
</radialGradient>
<linearGradient id="paint18_linear_326_14205" x1="234.996" y1="237.351" x2="237.21" y2="241.133" gradientUnits="userSpaceOnUse">
<stop stop-color="#37306D"/>
<stop offset="1" stop-color="#F6CA5D" stop-opacity="0"/>
</linearGradient>
<linearGradient id="paint19_linear_326_14205" x1="240.65" y1="237.685" x2="237.253" y2="242.933" gradientUnits="userSpaceOnUse">
<stop stop-color="#37306D"/>
<stop offset="1" stop-color="#F2C85E" stop-opacity="0"/>
</linearGradient>
<linearGradient id="paint20_linear_326_14205" x1="234.687" y1="228.55" x2="253.416" y2="232.291" gradientUnits="userSpaceOnUse">
<stop stop-color="#302C4B"/>
<stop offset="1" stop-color="#1F1C37"/>
</linearGradient>
<linearGradient id="paint21_linear_326_14205" x1="239.555" y1="225.984" x2="222.152" y2="234.101" gradientUnits="userSpaceOnUse">
<stop stop-color="#4A4666"/>
<stop offset="1" stop-color="#38354F"/>
</linearGradient>
<radialGradient id="paint22_radial_326_14205" cx="0" cy="0" r="1" gradientUnits="userSpaceOnUse" gradientTransform="translate(237.11 231.918) rotate(90) scale(2.24511 2.26176)">
<stop stop-color="#565082"/>
<stop offset="1" stop-color="#3F3C58"/>
<stop offset="1" stop-color="#130F36"/>
</radialGradient>
<radialGradient id="paint23_radial_326_14205" cx="0" cy="0" r="1" gradientUnits="userSpaceOnUse" gradientTransform="translate(237.419 189.96) rotate(88.0488) scale(33.2148 25.3132)">
<stop stop-color="#FFD1A7"/>
<stop offset="1" stop-color="#EE8A2F"/>
</radialGradient>
<linearGradient id="paint24_linear_326_14205" x1="240.65" y1="161.254" x2="237.546" y2="223.249" gradientUnits="userSpaceOnUse">
<stop stop-color="#FFF6A4"/>
<stop offset="1" stop-color="#FBC779"/>
</linearGradient>
<radialGradient id="paint25_radial_326_14205" cx="0" cy="0" r="1" gradientUnits="userSpaceOnUse" gradientTransform="translate(237.419 193.006) rotate(90) scale(25.498 13.3043)">
<stop stop-color="#FFF6A6"/>
<stop offset="1" stop-color="#F4B53B"/>
</radialGradient>
<linearGradient id="paint26_linear_326_14205" x1="240.65" y1="161.254" x2="237.546" y2="223.249" gradientUnits="userSpaceOnUse">
<stop stop-color="#FFF48F"/>
<stop offset="1" stop-color="#FFDE67"/>
</linearGradient>
<linearGradient id="paint27_linear_326_14205" x1="237.419" y1="212.892" x2="237.499" y2="218.672" gradientUnits="userSpaceOnUse">
<stop stop-color="#6F3A29"/>
<stop offset="1" stop-color="#4A2618"/>
</linearGradient>
<radialGradient id="paint28_radial_326_14205" cx="0" cy="0" r="1" gradientUnits="userSpaceOnUse" gradientTransform="translate(237.419 209.684) rotate(-90) scale(10.9048 18.6769)">
<stop stop-color="#AC826A"/>
<stop offset="1" stop-color="#572B1A"/>
</radialGradient>
<linearGradient id="paint29_linear_326_14205" x1="265.152" y1="209.387" x2="264.442" y2="213.525" gradientUnits="userSpaceOnUse">
<stop stop-color="#FFBF86"/>
<stop offset="1" stop-color="#DD7922"/>
</linearGradient>
<linearGradient id="paint30_linear_326_14205" x1="262.222" y1="213.234" x2="256.468" y2="227.554" gradientUnits="userSpaceOnUse">
<stop stop-color="#6D6182"/>
<stop offset="1" stop-color="#3D3748"/>
</linearGradient>
<linearGradient id="paint31_linear_326_14205" x1="248.145" y1="230.779" x2="243.263" y2="225.77" gradientUnits="userSpaceOnUse">
<stop stop-color="#DE0C0C"/>
<stop offset="1" stop-color="#910821"/>
</linearGradient>
<linearGradient id="paint32_linear_326_14205" x1="247.112" y1="217.596" x2="240.169" y2="223.35" gradientUnits="userSpaceOnUse">
<stop stop-color="#F23E16"/>
<stop offset="1" stop-color="#B40625"/>
</linearGradient>
<linearGradient id="paint33_linear_326_14205" x1="228.211" y1="230.35" x2="233.02" y2="225.343" gradientUnits="userSpaceOnUse">
<stop stop-color="#DE0C0C"/>
<stop offset="1" stop-color="#910821"/>
</linearGradient>
<linearGradient id="paint34_linear_326_14205" x1="228.864" y1="217.915" x2="235.761" y2="224.701" gradientUnits="userSpaceOnUse">
<stop stop-color="#F7431C"/>
<stop offset="1" stop-color="#B40625"/>
</linearGradient>
<linearGradient id="paint35_linear_326_14205" x1="241.018" y1="222.174" x2="237.678" y2="224.261" gradientUnits="userSpaceOnUse">
<stop stop-color="#DE0C0C"/>
<stop offset="1" stop-color="#910821"/>
</linearGradient>
<linearGradient id="paint36_linear_326_14205" x1="237.14" y1="221.013" x2="237.14" y2="228.753" gradientUnits="userSpaceOnUse">
<stop stop-color="#F56F45"/>
<stop offset="1" stop-color="#CC0B11"/>
</linearGradient>
<linearGradient id="paint37_linear_326_14205" x1="179.5" y1="245.5" x2="232" y2="319" gradientUnits="userSpaceOnUse">
<stop stop-color="#ECF2FF"/>
<stop offset="1" stop-color="#C9DEFF"/>
</linearGradient>
<linearGradient id="paint38_linear_326_14205" x1="237" y1="234.5" x2="208" y2="282" gradientUnits="userSpaceOnUse">
<stop stop-color="#90BDFA" stop-opacity="0.81"/>
<stop offset="1" stop-color="#E7F2FE" stop-opacity="0"/>
</linearGradient>
<linearGradient id="paint39_linear_326_14205" x1="224.5" y1="263.5" x2="183.51" y2="199.962" gradientUnits="userSpaceOnUse">
<stop stop-color="#E6F1FE"/>
<stop offset="1" stop-color="#F7F9FC"/>
</linearGradient>
<linearGradient id="paint40_linear_326_14205" x1="241" y1="327" x2="298.5" y2="246" gradientUnits="userSpaceOnUse">
<stop stop-color="#9DC2F9"/>
<stop offset="1" stop-color="#ECF5FE"/>
</linearGradient>
<linearGradient id="paint41_linear_326_14205" x1="249" y1="235.5" x2="255" y2="283" gradientUnits="userSpaceOnUse">
<stop stop-color="#93BAF3"/>
<stop offset="1" stop-color="#7396DA" stop-opacity="0"/>
</linearGradient>
<linearGradient id="paint42_linear_326_14205" x1="306.5" y1="213.5" x2="250.142" y2="253.67" gradientUnits="userSpaceOnUse">
<stop stop-color="#F9FBFF"/>
<stop offset="1" stop-color="#D9EBFC"/>
</linearGradient>
<linearGradient id="paint43_linear_326_14205" x1="231.84" y1="355.632" x2="139.846" y2="354.036" gradientUnits="userSpaceOnUse">
<stop stop-color="#D2EAFF" stop-opacity="0.457332"/>
<stop offset="1" stop-color="#89A6C7"/>
</linearGradient>
<linearGradient id="paint44_linear_326_14205" x1="154.281" y1="341.082" x2="160.386" y2="341.082" gradientUnits="userSpaceOnUse">
<stop stop-color="#E8DFDB"/>
<stop offset="1" stop-color="#CCB9B5"/>
</linearGradient>
<clipPath id="clip0_326_14205">
<rect width="466" height="466" fill="white"/>
</clipPath>
<clipPath id="clip1_326_14205">
<rect width="235" height="235" fill="white" transform="translate(106 117)"/>
</clipPath>
</defs>
</svg>
