<svg xmlns="http://www.w3.org/2000/svg" xmlns:xlink="http://www.w3.org/1999/xlink" fill="none" version="1.1" width="378" height="111" viewBox="0 0 378 111"><defs><radialGradient cx="0" cy="0" r="1" gradientUnits="userSpaceOnUse" id="master_svg1_32_14085" gradientTransform="translate(20.578534292654012 57.01644809525487) rotate(176.50955896230968) scale(90.26753486452264 87.00052791096716)"><stop offset="0%" stop-color="#4488BD" stop-opacity="1"/><stop offset="100%" stop-color="#18237F" stop-opacity="1"/></radialGradient><radialGradient cx="0" cy="0" r="1" gradientUnits="userSpaceOnUse" id="master_svg2_32_10049" gradientTransform="translate(22.381840156436283 38.9166175983446) rotate(0) scale(74.72687434722548 74.75002383015804)"><stop offset="0%" stop-color="#F1C21C" stop-opacity="1"/><stop offset="100%" stop-color="#E83E05" stop-opacity="1"/></radialGradient></defs><clipPath id="master_svg0_32_13988"><rect x="0" y="0" width="378" height="111" rx="0"/></clipPath><g clip-path="url(#master_svg0_32_13988)"><g><path d="M170.3662958984375,26.952107543945313L170.3662958984375,23.545807543945312L179.71509589843748,23.609707543945312L179.71509589843748,32.125407543945315C179.6121958984375,33.01990754394531,178.9062958984375,33.725607543945316,178.0114958984375,33.828507543945314C176.5988958984375,34.004707543945315,175.1756958984375,34.08290754394531,173.7522958984375,34.06270754394531C175.0356958984375,35.79360754394531,175.7297958984375,37.890407543945315,175.7327958984375,40.044907543945314C178.6231958984375,40.17770754394532,181.5127958984375,39.76610754394531,184.25109589843748,38.831507543945314C186.1889958984375,38.17150754394531,187.1473958984375,36.319307543945314,187.1473958984375,33.25370754394531C187.3815958984375,31.316407543945314,187.1473958984375,28.825607543945313,187.3815958984375,26.717907543945312C187.6158958984375,24.61030754394531,187.6158958984375,21.544707543945314,187.6158958984375,17.499717543945312L176.4781958984375,17.499717543945312C176.9679958984375,16.371397543945314,177.52169589843749,15.072757543945311,178.18179589843749,13.625087543945313C178.4747958984375,13.002147543945313,178.7100958984375,12.353657543945312,178.8845958984375,11.687777543945312L172.28289589843752,11.155547543945312C171.1541958984375,10.963945543945313,170.2810958984375,10.814920543945313,169.6208958984375,10.644607543945312C169.4431958984375,11.792437543945312,169.3647958984375,12.953447543945313,169.3866958984375,14.114747543945313C169.2162958984375,15.370807543945313,169.0671958984375,16.541707543945314,168.8755958984375,17.499727543945312L163.0830958984375,17.499727543945312L163.0830958984375,47.56000754394531L181.5465958984375,47.56000754394531C181.3257958984375,48.83910754394531,181.2401958984375,50.13770754394531,181.2909958984375,51.434707543945315C181.2068958984375,54.03710754394531,180.96509589843748,56.63200754394531,180.56699589843748,59.20520754394531C180.4178958984375,60.16320754394531,178.0753958984375,60.56770754394531,173.5606958984375,60.39740754394531C175.1100958984375,62.51030754394531,175.9523958984375,65.05850754394531,175.9670958984375,67.67830754394532C179.02169589843749,67.78890754394531,182.0681958984375,67.29700754394531,184.9325958984375,66.23060754394531C186.5970958984375,65.32970754394532,187.8260958984375,63.79390754394531,188.3398958984375,61.972807543945315C188.8296958984375,61.31280754394531,189.2129958984375,54.45770754394531,189.5324958984375,41.364907543945314L170.11069589843748,41.364907543945314L170.11069589843748,28.591407543945312C171.2796958984375,30.039607543945312,172.3335958984375,31.577107543945313,173.2624958984375,33.189807543945314L178.5864958984375,29.804907543945312C177.4063958984375,27.870107543945313,176.08239589843748,26.026907543945313,174.6253958984375,24.291007543945312L170.3662958984375,26.952107543945313ZM333.7472958984375,27.931407543945312L329.6372958984375,28.165607543945313C333.98229589843754,19.756357543945313,336.4732958984375,15.328207543945313,337.1552958984375,14.795967543945313C337.3952958984375,14.514207543945313,337.5632958984375,14.178057543945313,337.6452958984375,13.816667543945313C334.9252958984375,12.466777543945312,332.0702958984375,11.410540543945313,329.1262958984375,10.665870643945313C328.5302958984375,12.773497543945313,326.8482958984375,17.371957543945314,324.27129589843753,24.48250754394531C323.3402958984375,26.548407543945313,321.5872958984375,28.130907543945312,319.43729589843747,28.846807543945314L319.11729589843753,28.846807543945314C319.4192958984375,31.243107543945314,319.9832958984375,33.59900754394531,320.8002958984375,35.87220754394531C322.6882958984375,35.75190754394531,324.55929589843754,35.43080754394531,326.3792958984375,34.91420754394531C328.1472958984375,34.59490754394531,329.3612958984375,34.33940754394531,330.02129589843753,34.19040754394531C328.99229589843753,35.955507543945316,327.8542958984375,37.65480754394531,326.6132958984375,39.27850754394531C325.1272958984375,41.092007543945314,323.08329589843754,42.364307543945316,320.8002958984375,42.897707543945316L320.0762958984375,42.897707543945316C320.06929589843753,45.631607543945314,320.5602958984375,48.34390754394531,321.52429589843746,50.902407543945316C321.52429589843746,51.05140754394531,321.69429589843753,51.05140754394531,321.99229589843753,50.902407543945316C328.2302958984375,49.33740754394531,334.5512958984375,48.122007543945315,340.9242958984375,47.262007543945316C340.7802958984375,44.99350754394531,340.94429589843753,42.71600754394531,341.4142958984375,40.49200754394531C340.6052958984375,40.641007543945314,339.6252958984375,40.89650754394531,338.4752958984375,41.19450754394531C336.6582958984375,41.62320754394531,334.8042958984375,41.872807543945314,332.9382958984375,41.93970754394532Q340.6692958984375,30.528707543945313,344.5442958984375,25.461807543945312L350.3582958984375,25.461807543945312C349.39129589843753,28.50480754394531,347.9542958984375,31.378007543945312,346.0992958984375,33.97750754394531C345.17329589843746,34.61790754394531,344.0732958984375,34.95960754394531,342.94729589843746,34.95680754394532L342.2232958984375,34.95680754394532C342.2312958984375,37.49320754394532,342.5602958984375,40.01830754394531,343.2032958984375,42.47190754394531C343.2032958984375,42.62090754394531,343.9272958984375,42.64220754394531,344.8852958984375,42.47190754394531C345.8442958984375,42.30160754394531,346.7382958984375,42.15260754394531,347.5472958984375,41.98230754394531L347.5472958984375,45.85690754394531Q348.5272958984375,60.16320754394531,335.1742958984375,61.376707543945315C336.89129589843753,63.51250754394531,338.4432958984375,65.77560754394531,339.81729589843746,68.14670754394531C346.7382958984375,65.0810075439453,350.9552958984375,62.18570754394531,352.3812958984375,59.439407543945315Q355.08629589843747,55.54350754394531,355.2992958984375,41.49260754394531L357.4282958984375,41.237107543945314L357.4282958984375,61.419307543945315C357.1092958984375,65.44290754394531,358.6422958984375,67.3164075439453,362.0282958984375,66.97580754394531L370.2062958984375,66.97580754394531C374.0822958984375,67.7847075439453,376.2542958984375,64.16560754394531,376.7652958984375,56.07570754394531C373.9942958984375,55.96480754394531,371.2732958984375,55.30640754394531,368.7582958984375,54.13840754394531C368.9282958984375,58.67300754394531,368.3532958984375,60.61030754394531,367.0542958984375,59.950307543945314L366.09629589843746,59.950307543945314C365.1162958984375,60.29090754394531,364.7122958984375,59.631007543945316,364.8822958984375,58.013007543945314L364.8822958984375,40.81130754394531L366.58629589843747,40.57720754394531C367.6932958984375,42.344207543945316,368.5872958984375,43.72800754394531,369.2482958984375,44.686007543945315C370.2062958984375,44.047307543945315,372.14429589843746,42.91900754394531,375.0612958984375,41.279707543945314C374.89129589843753,41.279707543945314,375.14629589843753,41.13070754394531,375.78529589843754,40.81130754394531C372.66829589843746,36.16510754394531,369.2682958984375,31.714407543945313,365.6062958984375,27.484307543945313L360.0262958984375,31.124807543945312C361.0032958984375,32.393807543945314,362.0552958984375,33.60240754394531,363.1782958984375,34.74390754394531C359.9622958984375,35.11150754394531,356.7262958984375,35.275007543945314,353.4892958984375,35.23360754394531L359.0472958984375,25.547007543945313L374.8062958984375,25.547007543945313L374.8062958984375,18.94736754394531L362.0282958984375,18.94736754394531C361.7822958984375,17.72780754394531,361.6532958984375,16.48727754394531,361.6452958984375,15.243047543945313C361.39629589843753,13.955857543945312,361.2262958984375,12.654857543945312,361.1342958984375,11.347130543945312C360.98529589843747,11.347130543945312,357.8972958984375,11.751627543945313,351.93429589843754,12.560617543945312C352.1042958984375,13.135417543945312,352.5942958984375,15.243047543945313,353.3822958984375,18.94736754394531L341.5202958984375,18.94736754394531L341.5202958984375,23.52450754394531L337.1332958984375,21.39560754394531C336.49529589843746,22.82200754394531,335.3662958984375,25.014807543945313,333.7472958984375,27.931407543945312ZM142.9586158984375,11.219414543945312L136.9106258984375,17.265537543945314C139.3848858984375,19.290477543945315,141.7252458984375,21.473607543945313,143.9168958984375,23.801307543945313L149.9861958984375,18.22355754394531C147.8116958984375,15.726217543945314,145.4632958984375,13.385667543945313,142.9586158984375,11.219414543945312ZM212.2761958984375,19.69250754394531L212.2761958984375,27.18630754394531L220.3046958984375,27.18630754394531L220.3046958984375,33.57300754394531L212.2761958984375,33.57300754394531L212.2761958984375,39.12950754394531L216.17329589843752,37.192207543945315C216.18709589843752,37.37910754394531,216.2706958984375,37.553907543945314,216.4075958984375,37.681907543945314C217.56029589843752,38.97760754394531,218.6138958984375,40.35820754394531,219.55939589843751,41.81200754394531L219.55939589843751,36.70260754394531L251.2902958984375,36.70260754394531L251.2902958984375,43.08930754394531L238.9172958984375,43.08930754394531L238.9172958984375,47.94320754394531L248.60729589843748,47.94320754394531L248.60729589843748,53.86160754394531L238.9172958984375,53.86160754394531L238.9172958984375,59.439407543945315L252.48229589843748,59.439407543945315L252.48229589843748,65.7197075439453L217.2167958984375,65.7197075439453L217.2167958984375,59.439407543945315L231.03779589843748,59.439407543945315L231.03779589843748,53.86160754394531L222.07229589843752,53.86160754394531L222.07229589843752,47.79420754394531L231.03779589843748,47.79420754394531L231.03779589843748,42.94030754394531L220.3898958984375,42.94030754394531C220.4623958984375,43.41900754394531,220.7133958984375,43.85260754394531,221.0926958984375,44.15380754394531C221.6037958984375,44.96280754394531,221.9018958984375,45.53760754394531,222.07229589843752,45.85690754394531C220.3046958984375,46.836207543945314,218.3454958984375,47.98580754394531,216.2584958984375,49.26320754394531C215.3466958984375,47.52490754394531,214.23919589843752,45.89630754394531,212.95769589843752,44.409207543945314L212.2122958984375,42.94030754394531L212.2122958984375,67.18870754394531L205.26989589843748,67.18870754394531L205.26989589843748,46.580707543945316Q203.3106958984375,51.434707543945315,201.01069589843752,56.28860754394531C199.4450958984375,53.92970754394531,197.7457958984375,51.662207543945314,195.9210958984375,49.49730754394531C198.87549589843752,44.50880754394531,201.3088958984375,39.22970754394531,203.1828958984375,33.74340754394531L203.1828958984375,33.50920754394531L196.7941958984375,33.50920754394531L196.7941958984375,27.12240754394531L205.5041958984375,27.12240754394531L205.5041958984375,20.41633754394531C203.2743958984375,20.911107543945313,201.01069589843752,21.238407543945314,198.7320958984375,21.39560754394531C197.9228958984375,19.607347543945313,197.1987958984375,18.07452754394531,196.6024958984375,16.775887543945313C196.5296958984375,16.617367543945313,196.4613958984375,16.469937543945314,196.3977958984375,16.332767543945312C195.9403958984375,15.346237543945312,195.7288958984375,14.889947543945311,195.8784958984375,14.646977543945312C203.0991958984375,14.505817543945312,210.2657958984375,13.366687543945313,217.17419589843752,11.261993543945312C218.54549589843748,13.680357543945313,219.7617958984375,16.18332754394531,220.8157958984375,18.75578754394531C217.7065958984375,19.032547543945313,214.87429589843748,19.351877543945314,212.2761958984375,19.69250754394531ZM279.4882958984375,28.866907543945313L288.6642958984375,28.37850754394531C290.2682958984375,27.348707543945313,291.8042958984375,26.21810754394531,293.26429589843747,24.993507543945313C294.9732958984375,23.525607543945313,296.7572958984375,22.147007543945314,298.6092958984375,20.863407543945314C301.0502958984375,22.488007543945315,303.31929589843753,24.35690754394531,305.3812958984375,26.44120754394531C305.3812958984375,26.781807543945312,302.8902958984375,28.314607543945314,297.8642958984375,31.060907543945312C291.4752958984375,34.76520754394531,286.1512958984375,37.85220754394531,282.1262958984375,40.25780754394531L298.3542958984375,40.02360754394532L294.7122958984375,36.38320754394532C296.8252958984375,35.058207543945315,298.8532958984375,33.60050754394531,300.7812958984375,32.01890754394532Q307.80929589843754,39.29980754394531,312.6642958984375,44.79240754394531C310.2152958984375,46.92130754394531,308.10729589843754,48.58190754394531,306.2762958984375,49.88050754394531L303.3582958984375,46.240107543945314L291.7312958984375,46.474307543945315L291.7312958984375,62.462507543945314C292.1992958984375,65.37910754394531,288.2592958984375,66.91190754394532,279.8482958984375,67.08220754394532C279.29029589843753,64.5784075439453,278.4772958984375,62.13860754394531,277.42029589843753,59.80130754394531C281.31729589843746,60.141907543945315,283.2342958984375,59.545807543945315,283.2342958984375,58.098207543945314L283.2342958984375,47.070407543945315C277.1562958984375,46.93100754394531,271.0762958984375,47.25130754394531,265.0472958984375,48.02840754394531C264.7282958984375,48.19870754394531,264.5792958984375,48.19870754394531,264.5792958984375,48.02840754394531C264.4292958984375,47.38970754394531,264.2592958984375,46.41040754394531,264.0892958984375,45.133107543945314C263.76929589843746,43.344807543945315,263.53529589843754,41.66290754394531,263.36529589843747,40.044907543945314C269.04029589843753,39.95210754394532,274.5262958984375,37.99170754394531,278.9742958984375,34.467207543945314C274.3112958984375,35.10580754394532,270.0942958984375,35.510307543945316,266.36729589843753,35.68070754394532C265.8452958984375,34.36630754394531,265.5222958984375,32.98150754394531,265.4092958984375,31.57180754394531C265.24029589843747,30.521207543945312,265.24029589843747,29.450407543945314,265.4092958984375,28.39980754394531Q271.0102958984375,29.144907543945312,276.8022958984375,21.608507543945315C274.54529589843753,21.927807543945313,271.5422958984375,22.18330754394531,267.8372958984375,22.353607543945312L263.47129589843746,22.353607543945312C262.6622958984375,20.416327543945314,261.7682958984375,18.47900754394531,260.8092958984375,16.54168754394531C260.49029589843747,15.732697543945314,260.2562958984375,15.072737543945312,260.0852958984375,14.604377543945311Q291.6242958984375,15.562387543945313,307.1062958984375,11.687757543945313C308.93429589843754,14.189397543945311,310.6332958984375,16.782977543945314,312.1962958984375,19.458307543945313C309.5682958984375,20.03549754394531,306.8772958984375,20.271627543945314,304.18929589843754,20.160847543945312Q295.4572958984375,20.671807543945313,288.9412958984375,20.88470754394531C288.1322958984375,21.54460754394531,286.49229589843753,23.013607543945312,284.0852958984375,25.014807543945313C282.2872958984375,26.453507543945314,280.76129589843754,27.660907543945314,279.4882958984375,28.866907543945313ZM248.64929589843752,13.625097543945312L248.64929589843752,33.50920754394531L221.9870958984375,33.50920754394531L221.9870958984375,13.625097543945312L248.64929589843752,13.625097543945312ZM240.6632958984375,20.011847543945315L229.50449589843748,20.011847543945315L229.50449589843748,27.271407543945312L240.6422958984375,27.271407543945312L240.6632958984375,20.011847543945315ZM150.9657958984375,26.952107543945313L150.9657958984375,47.30460754394531C149.6207958984375,48.145307543945314,148.1847958984375,48.830907543945315,146.6853958984375,49.34830754394531L146.6853958984375,48.369007543945315C147.1751958984375,46.580707543945316,147.5797958984375,45.21820754394531,147.8991958984375,44.23890754394531C145.5613958984375,43.326807543945314,143.3996858984375,42.015807543945314,141.5105058984375,40.364307543945316C139.7295658984375,47.488407543945314,137.3794758984375,54.45820754394531,134.4828998984375,61.20640754394531C134.3414008984375,61.33340754394531,134.2506348984375,61.50740754394531,134.2273528984375,61.69600754394531C136.6161858984375,63.31240754394531,139.1299358984375,64.73620754394531,141.7447558984375,65.95390754394532C142.5035758984375,62.350607543945316,143.4778358984375,58.796007543945315,144.6622958984375,55.309307543945316C145.3011958984375,53.35070754394531,145.7909958984375,51.839207543945314,146.1103958984375,50.710807543945315C146.3952958984375,51.87850754394531,146.8021958984375,53.01310754394531,147.3242958984375,54.09580754394531C147.9843958984375,56.03310754394531,148.3677958984375,57.012407543945315,148.55939589843751,57.012407543945315C148.3676958984375,57.33180754394531,148.9426958984375,57.012407543945315,150.2204958984375,56.03310754394531Q155.45919589843749,52.39270754394531,162.0395958984375,48.58190754394531C161.8990958984375,48.45670754394531,161.8146958984375,48.28030754394531,161.8053958984375,48.09230754394531C161.2487958984375,46.37510754394531,160.9964958984375,44.57390754394531,161.0599958984375,42.77000754394531C160.68099589843752,43.04050754394531,160.2823958984375,43.28240754394531,159.8674958984375,43.493807543945316C159.2098958984375,43.98380754394531,158.4946958984375,44.39140754394531,157.7378958984375,44.70730754394531L157.7378958984375,26.952107543945313L161.6136958984375,26.952107543945313L161.6136958984375,20.88470754394531L148.55939589843751,20.88470754394531L148.55939589843751,26.952107543945313L150.9657958984375,26.952107543945313ZM138.5929958984375,24.69550754394531L133.5032958984375,31.082207543945312C136.7218458984375,33.19550754394531,139.7248058984375,35.61990754394532,142.4688258984375,38.32050754394531L147.8140958984375,32.44470754394531C145.0187958984375,29.54760754394531,141.9283058984375,26.950407543945314,138.5929958984375,24.69550754394531ZM274.6092958984375,49.73150754394531L271.2022958984375,48.02840754394531C268.09329589843753,52.717907543945316,263.9192958984375,56.60600754394531,259.0202958984375,59.37550754394531C261.4002958984375,60.80770754394531,263.6642958984375,62.42350754394531,265.7922958984375,64.20820754394532C270.4222958984375,60.23700754394531,274.79029589843753,55.97030754394531,278.8682958984375,51.43460754394531C277.49229589843753,50.764307543945314,276.0682958984375,50.195007543945316,274.6092958984375,49.73150754394531ZM299.8232958984375,48.262607543945315C298.1562958984375,50.068907543945315,296.3712958984375,51.76160754394531,294.4782958984375,53.329407543945315L294.4782958984375,53.35070754394531C299.3272958984375,56.66640754394531,303.94429589843753,60.30810754394531,308.2992958984375,64.25070754394531C310.38629589843754,62.16440754394531,312.4302958984375,60.29090754394531,314.3682958984375,58.67300754394531Q308.04329589843746,53.60610754394531,299.8232958984375,48.262607543945315ZM341.7122958984375,50.22120754394531Q329.6162958984375,53.137807543945314,319.43729589843747,55.075107543945315C321.0772958984375,59.73740754394531,321.97129589843746,62.24950754394531,322.0772958984375,62.568907543945315C323.0982958984375,62.13730754394531,324.1622958984375,61.816107543945314,325.2512958984375,61.61090754394531C327.6572958984375,61.03610754394531,333.4072958984375,59.50330754394531,342.4572958984375,56.778207543945314C342.1382958984375,55.628607543945314,341.9042958984375,54.585407543945315,341.7122958984375,53.60610754394531C341.56229589843747,52.48280754394531,341.56229589843747,51.34450754394531,341.7122958984375,50.22120754394531ZM178.5864958984375,51.434707543945315L157.9720958984375,51.434707543945315L157.9720958984375,57.82140754394531L178.5864958984375,57.82140754394531L178.5864958984375,51.434707543945315ZM135.5478558984375,76.83260754394531L376.1052958984375,76.83260754394531L376.1052958984375,78.30160754394531L135.5478558984375,78.30160754394531L135.5478558984375,76.83260754394531ZM149.6247958984375,96.14190754394531C149.4920958984375,94.0027075439453,150.21179589843752,91.89790754394531,151.6265958984375,90.2874075439453C152.9670958984375,88.86980754394531,154.8511958984375,88.09470754394532,156.8014958984375,88.15850754394532C158.1172958984375,88.13310754394531,159.4144958984375,88.47200754394531,160.5495958984375,89.13780754394531C161.6490958984375,89.7964075439453,162.5361958984375,90.75710754394531,163.1050958984375,91.90540754394532C163.6931958984375,93.15620754394531,163.9846958984375,94.52590754394531,163.9568958984375,95.9077075439453C164.00119589843752,97.34610754394531,163.6864958984375,98.77280754394532,163.0410958984375,100.05910754394532C162.4686958984375,101.20780754394531,161.5632958984375,102.15740754394531,160.4430958984375,102.78410754394531C159.3288958984375,103.40150754394531,158.0753958984375,103.72390754394532,156.8014958984375,103.72090754394532C155.4670958984375,103.74250754394531,154.1534958984375,103.3884075439453,153.0107958984375,102.69900754394531C151.9167958984375,102.03690754394532,151.0426958984375,101.06680754394532,150.4978958984375,99.91010754394532C149.9215958984375,98.73760754394532,149.6228958984375,97.44830754394532,149.6247958984375,96.14190754394531ZM208.6986958984375,98.16440754394532L210.6791958984375,98.67530754394531C210.3906958984375,100.11470754394531,209.6435958984375,101.4218075439453,208.5495958984375,102.40090754394531C207.4151958984375,103.26890754394532,206.01649589843748,103.72000754394531,204.58859589843752,103.67830754394531C203.20589589843752,103.73500754394531,201.83679589843752,103.38720754394531,200.6488958984375,102.67770754394532C199.49249589843748,102.03840754394531,198.5792958984375,101.0357075439453,198.0507958984375,99.82500754394532C197.5422958984375,98.54630754394532,197.3029958984375,97.17660754394531,197.3479958984375,95.80130754394531C197.3052958984375,94.3884075439453,197.60489589843752,92.98610754394531,198.2210958984375,91.71380754394531C198.7829958984375,90.59340754394532,199.6748958984375,89.67210754394532,200.7765958984375,89.07390754394531C201.8845958984375,88.46500754394532,203.1326958984375,88.15670754394532,204.3968958984375,88.17980754394532C205.7509958984375,88.12220754394531,207.0854958984375,88.5194075439453,208.1874958984375,89.30810754394531C209.2351958984375,90.11310754394532,209.9845958984375,91.24430754394531,210.31709589843751,92.52280754394532L208.3791958984375,92.99110754394532C208.1253958984375,92.05770754394531,207.5899958984375,91.22510754394531,206.8458958984375,90.60670754394532C206.13899589843749,90.12240754394531,205.2959958984375,89.87630754394532,204.43949589843749,89.90420754394532C203.4195958984375,89.8623075439453,202.41279589843748,90.14560754394532,201.56459589843752,90.71320754394532C200.8085958984375,91.23380754394532,200.23509589843752,91.97840754394531,199.92479589843748,92.84210754394532C199.58329589843748,93.79260754394531,199.3963958984375,94.79170754394531,199.3710958984375,95.80130754394531C199.3476958984375,96.94190754394532,199.5428958984375,98.07640754394531,199.9460958984375,99.14370754394531C200.2503958984375,100.02900754394531,200.8524958984375,100.7814075439453,201.6497958984375,101.27260754394531C202.4153958984375,101.75200754394531,203.3018958984375,102.00310754394532,204.2051958984375,101.99640754394531C205.23419589843752,102.02980754394531,206.2402958984375,101.68950754394531,207.0375958984375,101.03840754394531C207.9049958984375,100.29950754394531,208.4914958984375,99.28470754394532,208.6986958984375,98.16440754394532ZM307.93729589843747,98.61150754394531L309.79029589843753,98.44110754394531C309.8592958984375,99.09600754394532,310.06929589843753,99.72810754394531,310.4072958984375,100.29330754394532C310.7942958984375,100.82400754394531,311.3272958984375,101.23080754394532,311.9412958984375,101.4642075439453C312.6612958984375,101.76590754394532,313.4382958984375,101.91100754394532,314.2192958984375,101.89000754394532C314.9002958984375,101.90330754394532,315.5782958984375,101.79520754394531,316.22129589843746,101.57060754394531C316.74029589843747,101.38710754394532,317.19729589843746,101.06280754394531,317.5412958984375,100.63390754394531C317.8012958984375,100.2583075439453,317.94229589843746,99.81330754394531,317.9462958984375,99.35660754394532C317.9562958984375,98.91090754394531,317.8132958984375,98.47540754394531,317.5412958984375,98.12180754394531C317.18429589843754,97.69760754394531,316.7102958984375,97.38690754394531,316.1782958984375,97.22770754394531C315.3042958984375,96.9462075439453,314.4162958984375,96.71170754394531,313.51629589843753,96.52510754394531C312.5222958984375,96.3101075439453,311.5522958984375,95.9963075439453,310.62029589843746,95.58840754394531C309.9782958984375,95.26260754394531,309.4282958984375,94.77920754394532,309.0232958984375,94.18330754394532C308.6562958984375,93.62790754394531,308.46329589843754,92.97550754394531,308.4692958984375,92.30990754394531C308.47129589843746,91.55010754394532,308.7012958984375,90.80840754394531,309.1302958984375,90.18090754394531C309.59629589843746,89.5074075439453,310.2462958984375,88.9826075439453,311.0042958984375,88.66940754394531C311.88629589843754,88.32800754394532,312.8262958984375,88.16170754394531,313.7722958984375,88.17980754394532C314.7752958984375,88.15930754394532,315.7732958984375,88.33280754394531,316.71129589843747,88.69070754394531C318.3492958984375,89.32270754394531,319.4312958984375,90.89500754394531,319.43729589843747,92.65050754394531L317.5632958984375,92.79950754394531C317.5012958984375,91.98230754394531,317.1272958984375,91.22010754394532,316.51929589843746,90.67060754394531C315.7462958984375,90.15730754394531,314.8262958984375,89.9107075439453,313.9002958984375,89.96800754394532C312.9732958984375,89.88700754394532,312.0462958984375,90.11140754394532,311.2592958984375,90.60670754394532C310.74529589843746,90.97750754394531,310.43729589843747,91.56970754394531,310.4292958984375,92.20340754394532C310.4212958984375,92.71020754394532,310.6402958984375,93.19400754394532,311.0252958984375,93.52330754394531C311.94229589843746,94.08470754394531,312.96329589843754,94.45410754394531,314.0282958984375,94.60910754394531C315.1582958984375,94.83240754394531,316.26929589843746,95.14560754394532,317.3502958984375,95.54580754394532C318.1182958984375,95.87940754394532,318.7862958984375,96.40780754394531,319.28829589843747,97.07860754394531C319.6992958984375,97.71190754394532,319.9142958984375,98.45260754394532,319.9052958984375,99.20750754394531C319.9022958984375,100.0100075439453,319.66529589843753,100.79410754394532,319.2242958984375,101.4642075439453C318.7342958984375,102.1885075439453,318.0462958984375,102.7574075439453,317.2432958984375,103.10350754394531C316.33829589843754,103.50480754394532,315.3582958984375,103.70800754394531,314.3682958984375,103.69960754394532C313.2042958984375,103.7283075439453,312.0462958984375,103.52570754394532,310.96129589843747,103.10350754394531C310.08829589843754,102.73320754394531,309.3472958984375,102.11040754394531,308.8312958984375,101.3152075439453C308.2792958984375,100.5190075439453,307.96829589843753,99.58010754394532,307.93729589843747,98.61150754394531ZM280.01929589843746,98.61150754394531L281.8712958984375,98.44120754394531C281.9402958984375,99.09610754394531,282.1512958984375,99.72810754394531,282.4892958984375,100.29330754394532C282.8752958984375,100.82400754394531,283.4082958984375,101.2309075439453,284.0222958984375,101.4642075439453C284.7432958984375,101.76590754394532,285.5202958984375,101.9111075439453,286.3012958984375,101.89000754394532C286.98229589843754,101.9034075439453,287.66029589843754,101.79520754394531,288.3032958984375,101.57070754394532C288.8212958984375,101.39790754394531,289.27429589843746,101.07110754394532,289.6022958984375,100.63400754394532C289.8782958984375,100.26550754394532,290.0282958984375,99.81730754394532,290.0282958984375,99.35660754394532C290.0372958984375,98.91100754394532,289.89429589843746,98.47540754394531,289.6232958984375,98.12180754394531C289.26929589843746,97.70280754394531,288.8042958984375,97.39280754394531,288.2812958984375,97.22770754394531C287.8552958984375,97.07870754394531,286.98229589843754,96.84450754394531,285.5982958984375,96.52520754394531C284.5982958984375,96.3058075439453,283.6212958984375,95.99220754394531,282.6802958984375,95.58840754394531C282.0412958984375,95.26610754394531,281.4982958984375,94.78160754394531,281.1052958984375,94.18330754394532C280.7442958984375,93.62610754394531,280.5582958984375,92.97350754394532,280.57229589843746,92.30990754394531C280.5662958984375,91.55220754394531,280.7892958984375,90.81030754394531,281.21129589843747,90.18100754394531C281.66829589843746,89.49870754394532,282.3212958984375,88.97150754394531,283.0852958984375,88.66940754394531C283.9672958984375,88.3259075439453,284.9072958984375,88.15950754394531,285.8542958984375,88.17980754394532C286.85729589843754,88.1594075439453,287.8552958984375,88.33290754394531,288.7922958984375,88.69070754394531C289.5922958984375,89.01250754394532,290.2752958984375,89.56930754394531,290.7522958984375,90.2874075439453C291.2252958984375,90.97780754394532,291.4842958984375,91.79240754394532,291.4972958984375,92.62920754394531L289.6022958984375,92.77830754394532C289.54029589843753,91.96100754394531,289.1662958984375,91.1988075439453,288.5582958984375,90.64930754394531C287.7792958984375,90.13160754394531,286.8512958984375,89.88470754394531,285.9172958984375,89.94680754394531C284.9982958984375,89.87050754394531,284.0792958984375,90.09460754394532,283.29829589843746,90.58550754394531C282.7842958984375,90.95620754394531,282.4762958984375,91.5485075439453,282.46829589843753,92.18220754394531C282.4602958984375,92.68890754394532,282.6782958984375,93.17270754394531,283.06429589843754,93.50210754394531C283.9792958984375,94.0678075439453,285.0012958984375,94.43750754394532,286.06729589843746,94.58780754394532C287.1902958984375,94.81030754394531,288.2942958984375,95.12350754394531,289.36729589843753,95.52450754394532C290.1422958984375,95.85840754394532,290.8162958984375,96.38640754394531,291.3272958984375,97.05740754394532C291.7302958984375,97.69300754394531,291.9382958984375,98.43350754394531,291.92329589843746,99.18630754394532C291.9302958984375,99.99020754394532,291.69229589843746,100.77730754394531,291.2412958984375,101.44290754394531C290.76429589843747,102.17070754394531,290.08329589843754,102.74110754394532,289.2822958984375,103.08220754394532C288.3772958984375,103.48350754394531,287.3972958984375,103.6868075439453,286.4072958984375,103.67830754394531C285.2362958984375,103.7065075439453,284.0712958984375,103.50390754394532,282.9792958984375,103.08220754394532C282.10729589843754,102.70970754394531,281.3662958984375,102.08740754394532,280.8492958984375,101.29390754394531C280.3232958984375,100.49680754394531,280.03529589843754,99.56640754394532,280.01929589843746,98.61150754394531ZM366.0742958984375,98.61150754394531L367.9262958984375,98.44120754394531C367.99529589843746,99.09610754394531,368.2062958984375,99.72810754394531,368.5442958984375,100.29330754394532C368.9272958984375,100.81830754394531,369.4522958984375,101.22420754394531,370.0562958984375,101.4642075439453C371.4222958984375,101.98580754394531,372.9252958984375,102.02340754394531,374.3152958984375,101.57070754394532C374.83629589843747,101.39240754394531,375.29529589843753,101.06710754394531,375.6352958984375,100.63400754394532C375.8952958984375,100.25840754394531,376.0362958984375,99.81330754394531,376.04029589843753,99.35660754394532C376.0502958984375,98.91100754394532,375.9072958984375,98.47540754394531,375.6352958984375,98.12180754394531C375.2732958984375,97.70300754394532,374.8012958984375,97.39340754394532,374.2732958984375,97.22770754394531C373.3982958984375,96.9492075439453,372.5092958984375,96.71470754394531,371.6112958984375,96.52510754394531C370.61029589843747,96.30930754394531,369.6322958984375,95.99560754394531,368.6932958984375,95.58840754394531C368.0542958984375,95.26610754394531,367.5102958984375,94.78160754394531,367.11729589843753,94.18330754394532C366.7562958984375,93.62610754394531,366.5712958984375,92.97350754394532,366.5852958984375,92.30990754394531C366.5792958984375,91.55220754394531,366.8012958984375,90.81020754394531,367.2242958984375,90.18100754394531C367.6902958984375,89.5074075439453,368.34129589843747,88.9826075439453,369.0982958984375,88.66940754394531C369.9802958984375,88.32800754394532,370.92029589843753,88.16170754394531,371.8662958984375,88.17980754394532C372.8692958984375,88.16150754394532,373.86729589843753,88.3349075439453,374.8052958984375,88.69070754394531C375.61029589843747,89.0027075439453,376.2962958984375,89.56170754394532,376.76429589843747,90.2874075439453C377.2202958984375,90.98640754394532,377.4772958984375,91.79570754394531,377.5102958984375,92.62920754394531L375.6142958984375,92.77830754394532C375.5612958984375,91.95870754394531,375.1862958984375,91.19330754394531,374.5712958984375,90.64930754394531C373.7972958984375,90.13610754394531,372.8782958984375,89.88940754394531,371.9512958984375,89.94680754394531C371.0252958984375,89.86580754394531,370.0982958984375,90.09010754394531,369.3112958984375,90.58550754394531C368.8112958984375,90.96880754394532,368.5072958984375,91.55340754394531,368.4802958984375,92.18220754394531C368.4722958984375,92.68890754394532,368.6912958984375,93.17270754394531,369.0762958984375,93.50210754394531C369.9912958984375,94.0678075439453,371.01429589843747,94.43750754394532,372.0792958984375,94.58780754394532C373.2032958984375,94.81020754394531,374.3072958984375,95.12350754394531,375.3802958984375,95.52450754394532C376.1582958984375,95.85230754394532,376.8342958984375,96.38150754394532,377.3392958984375,97.05740754394532C377.7592958984375,97.6868075439453,377.9742958984375,98.43010754394531,377.9572958984375,99.18630754394532C377.9562958984375,99.99230754394532,377.71129589843747,100.77920754394532,377.2542958984375,101.44290754394531C376.7772958984375,102.17070754394531,376.0952958984375,102.74110754394532,375.29529589843753,103.08220754394532C374.3902958984375,103.48350754394531,373.41029589843754,103.6868075439453,372.42029589843753,103.67830754394531C371.2492958984375,103.70270754394531,370.0852958984375,103.50020754394531,368.9912958984375,103.08220754394532C368.12029589843746,102.70970754394531,367.3792958984375,102.08740754394532,366.86229589843754,101.29390754394531C366.3502958984375,100.49230754394532,366.0772958984375,99.56210754394532,366.0742958984375,98.61150754394531ZM188.6377958984375,97.56830754394531L188.6377958984375,95.80130754394531L195.0264958984375,95.80130754394531L195.0264958984375,101.33650754394532C194.12619589843752,102.07630754394532,193.1121958984375,102.6658075439453,192.0237958984375,103.08220754394532C191.0105958984375,103.47030754394531,189.9356958984375,103.67230754394531,188.8506958984375,103.67830754394531C187.4532958984375,103.69420754394531,186.0725958984375,103.37290754394532,184.8257958984375,102.7416075439453C183.6428958984375,102.16200754394531,182.6737958984375,101.22300754394531,182.0573958984375,100.05910754394532C181.4208958984375,98.82300754394531,181.1059958984375,97.44660754394532,181.1416958984375,96.05680754394531C181.1210958984375,94.65050754394531,181.4272958984375,93.25850754394531,182.0360958984375,91.99050754394531C182.5859958984375,90.78550754394531,183.5127958984375,89.79180754394531,184.67669589843752,89.15910754394531C185.9008958984375,88.53280754394531,187.26319589843752,88.2253075439453,188.6377958984375,88.26490754394531C189.63379589843748,88.25040754394531,190.6235958984375,88.42370754394531,191.5552958984375,88.77590754394531C192.3776958984375,89.07820754394531,193.1101958984375,89.58350754394532,193.6848958984375,90.24480754394531C194.23569589843748,90.96860754394531,194.6209958984375,91.80430754394531,194.8134958984375,92.69310754394532L193.0246958984375,93.18270754394531C192.8557958984375,92.54220754394531,192.5745958984375,91.9368075439453,192.1941958984375,91.3944075439453C191.8214958984375,90.92430754394532,191.3284958984375,90.56380754394532,190.7672958984375,90.35130754394531C190.0942958984375,90.06850754394532,189.3671958984375,89.93760754394532,188.6377958984375,89.96810754394531C187.83759589843748,89.9432075439453,187.0406958984375,90.08080754394531,186.2951958984375,90.3726075439453C185.6821958984375,90.59870754394531,185.13379589843748,90.97150754394531,184.6980958984375,91.45830754394531C184.3013958984375,91.89300754394532,183.9777958984375,92.38910754394531,183.7397958984375,92.92730754394532C183.37179589843748,93.84230754394531,183.16989589843752,94.81550754394532,183.1434958984375,95.80130754394531C183.0992958984375,96.9539075439453,183.3330958984375,98.1003075439453,183.8248958984375,99.14370754394531C184.2482958984375,100.01150754394531,184.9541958984375,100.70960754394531,185.8266958984375,101.12360754394531C186.6951958984375,101.57130754394531,187.6606958984375,101.79800754394532,188.6377958984375,101.78360754394531C189.4926958984375,101.7887075439453,190.3399958984375,101.62220754394531,191.1293958984375,101.29390754394531C191.8051958984375,101.04730754394531,192.43769589843748,100.69520754394532,193.0033958984375,100.25070754394531L193.0033958984375,97.48320754394531L188.6377958984375,97.56830754394531ZM264.2172958984375,97.56840754394531L264.2172958984375,95.80130754394531L270.6052958984375,95.80130754394531L270.6052958984375,101.33650754394532C269.7002958984375,102.08080754394531,268.6792958984375,102.67070754394531,267.5812958984375,103.08220754394532C266.5682958984375,103.47030754394531,265.4932958984375,103.67230754394531,264.4082958984375,103.67830754394531C263.0172958984375,103.69760754394531,261.6432958984375,103.3760075439453,260.4052958984375,102.7416075439453C259.2432958984375,102.14680754394531,258.2922958984375,101.21060754394532,257.6792958984375,100.0592075439453C257.0522958984375,98.81970754394531,256.7372958984375,97.44560754394531,256.7632958984375,96.05680754394531C256.7502958984375,94.64890754394531,257.0632958984375,93.25710754394531,257.6792958984375,91.99060754394532C258.2212958984375,90.78710754394531,259.1402958984375,89.79300754394531,260.2982958984375,89.15910754394531C261.5232958984375,88.53460754394531,262.8852958984375,88.22720754394531,264.2592958984375,88.26500754394532C265.2622958984375,88.2523075439453,266.2582958984375,88.42550754394532,267.1982958984375,88.77590754394531C268.0252958984375,89.06870754394531,268.7602958984375,89.57560754394531,269.3282958984375,90.24490754394532C269.87029589843746,90.97370754394531,270.2542958984375,91.8075075439453,270.4562958984375,92.69310754394532L268.68929589843754,93.18280754394532C268.5102958984375,92.54570754394531,268.2302958984375,91.94170754394531,267.8582958984375,91.39450754394531C267.4732958984375,90.92870754394531,266.9742958984375,90.5695075439453,266.41029589843754,90.35130754394531C265.73729589843754,90.06850754394532,265.0102958984375,89.93770754394531,264.2802958984375,89.96810754394531C263.4812958984375,89.94730754394531,262.68429589843754,90.08470754394531,261.9382958984375,90.3726075439453C261.3252958984375,90.59880754394531,260.7762958984375,90.97160754394531,260.34129589843747,91.45830754394531C259.9512958984375,91.89860754394532,259.6282958984375,92.39350754394532,259.3822958984375,92.92730754394532C259.0112958984375,93.89170754394532,258.8232958984375,94.91700754394532,258.8292958984375,95.95040754394532C258.79529589843753,97.10210754394531,259.0282958984375,98.24600754394531,259.5102958984375,99.29280754394532C259.9342958984375,100.16050754394531,260.63929589843747,100.85870754394531,261.5122958984375,101.27260754394531C262.3792958984375,101.72550754394531,263.3452958984375,101.95250754394532,264.3232958984375,101.93260754394531C265.1782958984375,101.94120754394531,266.0262958984375,101.77460754394531,266.8152958984375,101.44300754394531C267.4932958984375,101.20110754394531,268.1262958984375,100.8486075439453,268.68929589843754,100.39980754394531L268.68929589843754,97.63220754394531L264.2172958984375,97.56840754394531ZM298.8642958984375,103.42290754394531L298.8642958984375,97.0361075439453L293.09329589843753,88.3927075439453L295.4992958984375,88.3927075439453L298.4602958984375,92.92730754394532C299.0132958984375,93.77890754394531,299.5032958984375,94.60910754394531,299.9722958984375,95.46070754394532C300.4192958984375,94.67300754394532,300.9722958984375,93.80010754394532,301.6112958984375,92.79960754394531L304.5292958984375,88.43530754394531L306.8292958984375,88.43530754394531L300.8452958984375,97.07870754394531L300.8452958984375,103.46540754394532L298.8642958984375,103.42290754394531ZM166.5113958984375,88.52040754394531L166.5113958984375,103.42280754394531L168.3001958984375,103.33770754394531L168.3001958984375,91.5648075439453L176.1795958984375,103.33770754394531L178.3091958984375,103.33770754394531L178.3091958984375,88.43530754394531L176.4138958984375,88.43530754394531L176.4138958984375,100.29330754394532L168.51319589843752,88.52040754394531L166.5113958984375,88.52040754394531ZM242.0692958984375,88.52040754394531L242.0692958984375,103.42280754394531L243.9642958984375,103.33770754394531L243.9642958984375,91.5648075439453L251.8442958984375,103.33770754394531L253.9732958984375,103.33770754394531L253.9732958984375,88.43530754394531L252.0782958984375,88.43530754394531L252.0782958984375,100.29330754394532L244.1982958984375,88.52040754394531L242.0692958984375,88.52040754394531ZM326.3792958984375,90.2236075439453L326.3792958984375,103.42280754394531L328.36029589843747,103.42280754394531L328.36029589843747,90.2236075439453L333.3212958984375,90.2236075439453L333.3212958984375,88.43530754394531L321.4382958984375,88.43530754394531L321.4382958984375,90.2236075439453L326.3792958984375,90.2236075439453ZM349.2512958984375,103.42280754394531L349.2512958984375,88.52040754394531L352.23229589843754,88.52040754394531L355.78829589843747,99.16500754394531C356.1082958984375,100.16560754394531,356.3632958984375,100.9107075439453,356.5132958984375,101.29390754394531C356.6832958984375,100.7617075439453,356.9602958984375,99.97400754394532,357.32229589843746,98.90950754394531L360.89929589843746,88.47780754394532L363.58329589843754,88.47780754394532L363.58329589843754,103.3803075439453L361.6662958984375,103.3803075439453L361.6662958984375,90.88350754394531L357.4072958984375,103.42280754394531L355.6182958984375,103.42280754394531L351.3592958984375,90.64930754394531L351.3592958984375,103.42280754394531L349.2512958984375,103.42280754394531ZM135.1856658984375,103.42280754394531L135.1856658984375,88.52040754394531L137.1874658984375,88.52040754394531L137.1874658984375,94.69430754394531L144.9390958984375,94.69430754394531L144.9390958984375,88.52040754394531L146.9408958984375,88.52040754394531L146.9408958984375,103.42280754394531L144.9603958984375,103.42280754394531L144.9603958984375,96.35480754394531L137.1874658984375,96.35480754394531L137.1874658984375,103.42280754394531L135.1856658984375,103.42280754394531ZM213.1065958984375,103.42280754394531L213.1065958984375,88.52040754394531L215.0870958984375,88.52040754394531L215.0870958984375,94.69430754394531L222.8386958984375,94.69430754394531L222.8386958984375,88.52040754394531L224.8404958984375,88.52040754394531L224.8404958984375,103.42280754394531L222.8386958984375,103.42280754394531L222.8386958984375,96.35480754394531L215.0870958984375,96.35480754394531L215.0870958984375,103.42280754394531L213.1065958984375,103.42280754394531ZM228.1841958984375,103.42280754394531L228.1841958984375,88.52040754394531L239.02329589843748,88.52040754394531L239.02329589843748,90.30870754394532L230.16469589843751,90.30870754394532L230.16469589843751,94.88590754394531L238.51229589843751,94.88590754394531L238.51229589843751,96.65290754394532L230.2285958984375,96.65290754394532L230.2285958984375,101.74100754394532L239.4282958984375,101.74100754394532L239.4282958984375,103.50800754394531L228.1841958984375,103.42280754394531ZM335.3872958984375,103.42280754394531L335.3872958984375,88.52040754394531L346.2482958984375,88.52040754394531L346.2482958984375,90.30870754394532L337.36729589843753,90.30870754394532L337.36729589843753,94.88590754394531L345.67329589843746,94.88590754394531L345.67329589843746,96.65290754394532L337.36729589843753,96.65290754394532L337.36729589843753,101.74100754394532L346.56729589843746,101.74100754394532L346.56729589843746,103.50800754394531L335.3872958984375,103.42280754394531ZM151.7543958984375,96.14190754394531C151.6647958984375,97.69550754394531,152.1841958984375,99.22280754394531,153.2024958984375,100.39980754394531C155.2059958984375,102.48830754394531,158.5460958984375,102.48830754394531,160.5494958984375,100.39980754394531C161.5245958984375,99.13160754394531,161.9881958984375,97.5438075439453,161.8485958984375,95.95030754394531C161.8765958984375,94.85150754394532,161.6582958984375,93.7604075439453,161.2096958984375,92.7570075439453C160.8381958984375,91.8790075439453,160.2064958984375,91.13600754394531,159.3995958984375,90.62800754394532C158.5989958984375,90.13900754394531,157.6756958984375,89.88790754394532,156.7375958984375,89.90420754394532C155.3894958984375,89.88150754394532,154.0874958984375,90.39450754394531,153.1172958984375,91.33060754394532C151.9992958984375,92.67790754394531,151.4834958984375,94.42490754394531,151.6904958984375,96.16320754394532L151.7543958984375,96.14190754394531Z" fill-rule="evenodd" fill="#FFFFFF" fill-opacity="1"/><path d="M0,50.54051379345703Q16.0783,59.60970079345703,43.1239,53.22295079345703C69.339,47.02780079345703,81.1156,50.434069793457034,104.754,63.42045079345703Q48.3627,62.03665079345703,54.5811,86.62565079345703Q59.8198,107.25485079345702,93.3181,106.14785079345702Q12.9265,123.83915079345704,0,50.54051379345703Z" fill="url(#master_svg1_32_14085)" fill-opacity="1"/><path d="M40.4619466796875,48.4329C68.1464466796875,41.9184,81.0942466796875,45.4311,106.2659466796875,59.2691C106.5666466796875,56.9465,106.7160466796875,54.6069,106.7131466796875,52.2649C106.6705466796875,23.4181,84.5016466796875,0,57.1578466796875,0C30.7936466796875,0,9.2210466796875,21.7575,7.7303466796875,49.178C18.5559466796875,51.4177,29.7495466796875,51.1629,40.4619466796875,48.4329Z" fill="url(#master_svg2_32_10049)" fill-opacity="1"/></g></g></svg>