<svg class="icon" width="200" height="200" viewBox="0 0 1024 1024" xmlns="http://www.w3.org/2000/svg"><path  d="m853.376 339.2-2.133 1.963-2.731 1.706-178.048 92.8v138.027l1.11 2.517.511 2.859s0 2.304-1.621 6.912v2.816c0 4.096-3.584 11.776-7.595 13.867l-2.048.512-123.136 74.794v207.403l131.414-71.21c114.005-62.294 172.245-95.83 174.592-100.566 4.821-9.6 9.6-14.421 9.6-19.2l.085-355.2zm-490.027 94.592-177.237-98.304v354.133c0 4.779 4.779 9.558 9.6 14.379l9.728 6.272c29.867 18.347 127.787 76.075 293.803 173.184l.042-208.043-126.464-72.234c-3.84-3.84-7.68-7.68-9.045-11.52l-.555-2.859V435.2a7.68 7.68 0 0 1 .128-1.408zM512.512 128 203.691 305.75l185.173 100.522a25.77 25.77 0 0 1 4.608 2.816l113.75-65.067c8.234-4.138 12.927-4.693 17.151-1.792l2.048 1.792 117.163 66.859 185.728-96.853a30.89 30.89 0 0 1 7.85-2.774L526.892 128h-14.379z"/></svg>