<svg class="icon" width="200" height="200" viewBox="0 0 1024 1024" xmlns="http://www.w3.org/2000/svg"><path  d="M640 128a42.667 42.667 0 0 1 42.667 42.667v42.666h42.666A42.667 42.667 0 0 1 768 256v597.333h64A21.333 21.333 0 1 1 832 896H234.667a21.333 21.333 0 1 1 0-42.667h64V256a42.667 42.667 0 0 1 42.666-42.667H384v-42.666A42.667 42.667 0 0 1 426.667 128H640zm-42.667 554.667h-128v170.666h128V682.667zM554.667 512H512v85.333h42.667V512zm128 0H640v85.333h42.667V512zm-256 0H384v85.333h42.667V512zm128-170.667H512v85.334h42.667v-85.334zm-128 0H384v85.334h42.667v-85.334zm256 0H640v85.334h42.667v-85.334z"/></svg>