<svg class="icon" width="200" height="200" viewBox="0 0 1024 1024" xmlns="http://www.w3.org/2000/svg"><path  d="m296.875 544.384 55.466 28.843-96.426 50.09 272.938 141.739L801.11 623.317l-91.776-47.829 55.424-28.843 109.654 57.088a22.187 22.187 0 0 1 3.413 36.992l-3.413 2.176-335.36 174.592a21.845 21.845 0 0 1-17.067 1.408l-3.243-1.408-336.17-174.592a22.016 22.016 0 0 1-3.414-36.949l3.414-2.219 114.304-59.349zm236.373-331.05c3.499 0 6.997.853 10.155 2.517L878.763 390.4a22.187 22.187 0 0 1 0 39.168L543.403 604.16a21.845 21.845 0 0 1-20.31 0L186.88 429.568a22.059 22.059 0 0 1 0-39.168l336.213-174.55a21.845 21.845 0 0 1 10.155-2.517z"/></svg>