<svg class="icon" width="200" height="200" viewBox="0 0 1024 1024" xmlns="http://www.w3.org/2000/svg"><path  d="M384 469.333a42.667 42.667 0 0 1-42.667-42.666V213.333A42.667 42.667 0 0 1 384 170.667h213.333A42.667 42.667 0 0 1 640 213.333v213.334a42.667 42.667 0 0 1-42.667 42.666H512V512h128a42.667 42.667 0 0 1 42.667 42.667v85.29L768 640a42.667 42.667 0 0 1 42.667 42.667v170.666A42.667 42.667 0 0 1 768 896H597.333a42.667 42.667 0 0 1-42.666-42.667V682.667A42.667 42.667 0 0 1 596.608 640H640v-85.333H341.333V640h43.392l4.267.299a42.667 42.667 0 0 1 37.675 42.368v170.666A42.667 42.667 0 0 1 384 896H213.333a42.667 42.667 0 0 1-42.666-42.667V682.667A42.667 42.667 0 0 1 213.333 640l85.291-.043.043-85.29A42.667 42.667 0 0 1 341.333 512h128v-42.667H384z"/></svg>