<svg class="icon" width="200" height="200" viewBox="0 0 1024 1024" xmlns="http://www.w3.org/2000/svg"><path  d="m186.88 386.901 336.213 174.592a21.845 21.845 0 0 0 20.31 0l335.36-174.592a22.187 22.187 0 0 0 0-39.168l-335.36-174.549a21.845 21.845 0 0 0-20.31 0L186.88 347.734a22.059 22.059 0 0 0 0 39.167zm-1.963 151.126 336.171 174.592a26.283 26.283 0 0 0 24.405 0l335.36-174.592a26.453 26.453 0 1 0-24.448-46.934L533.248 659.371 209.323 491.05a26.453 26.453 0 1 0-24.406 46.976zM856.32 642.73 533.248 811.008l-323.925-168.32a26.453 26.453 0 0 0-24.406 46.933l336.171 174.507a26.283 26.283 0 0 0 24.405 0l335.36-174.507a26.453 26.453 0 1 0-24.533-46.89z"/></svg>