<svg t="1644997820224" class="icon" viewBox="0 0 1024 1024" version="1.1" xmlns="http://www.w3.org/2000/svg" p-id="20275" width="128" height="128"><path d="M832 276v480c0 44.184-35.816 80-80 80H272c-44.182 0-80-35.816-80-80V276c0-44.182 35.818-80 80-80h480c44.184 0 80 35.818 80 80z" fill="#4988FD" p-id="20276"></path><path d="M642 426H382c-16.568 0-30-13.432-30-30s13.432-30 30-30h260c16.568 0 30 13.432 30 30s-13.432 30-30 30z" fill="#FFFFFF" p-id="20277"></path><path d="M623.712 665.712a29.9 29.9 0 0 1-21.212-8.788l-111.712-111.712c-11.716-11.714-11.716-30.71 0-42.426 11.714-11.716 30.71-11.716 42.426 0l111.712 111.712c11.716 11.714 11.716 30.71 0 42.426a29.9 29.9 0 0 1-21.214 8.788z" fill="#DFECFD" p-id="20278"></path><path d="M400.288 665.712a29.9 29.9 0 0 1-21.212-8.788c-11.716-11.714-11.716-30.71 0-42.426l111.712-111.712c11.714-11.716 30.71-11.716 42.426 0 11.716 11.714 11.716 30.71 0 42.426l-111.712 111.712a29.906 29.906 0 0 1-21.214 8.788z" fill="#DFECFD" p-id="20279"></path></svg>