<?xml version="1.0" standalone="no"?><!DOCTYPE svg PUBLIC "-//W3C//DTD SVG 1.1//EN" "http://www.w3.org/Graphics/SVG/1.1/DTD/svg11.dtd" ><svg xmlns="http://www.w3.org/2000/svg"><metadata></metadata><defs><font id="2.000;HNYI;MiSans-Medium" horiz-adv-x="1021"><font-face font-family="MiSans Medium" font-weight="500" font-stretch="normal" units-per-em="1000" panose-1="0 0 6 0 0 0 0 0 0 0" ascent="1044" descent="-282" x-height="0" bbox="-58 -263 1009 855" underline-thickness="50" underline-position="-75" unicode-range="U+0021-2248" /><missing-glyph horiz-adv-x="600" d="M520 810 l0 -840 l-440 0 l0 840 l440 0 ZM124 10 l352 0 l0 760 l-352 0 l0 -760 Z" /><glyph glyph-name="A" unicode="A" d="M691 -5 l-120 0 l-81 231 l-277 0 l-81 -231 l-120 0 l281 773 l117 0 l281 -773 ZM348 611 l-97 -278 l201 0 l-98 278 l-6 0 Z" /><glyph glyph-name="B" unicode="B" d="M463 395 q83 -11 128 -58 q45 -47 45 -120 q0 -107 -80.5 -164.5 q-80.5 -57.5 -230.5 -57.5 l-250 0 l0 773 l247 0 q133 0 205 -51.5 q72 -51.5 72 -146.5 q0 -64 -35.5 -107.5 q-35.5 -43.5 -100.5 -61.5 l0 -6 ZM188 663 l0 -215 l121 0 q82 0 127 30 q45 30 45 83 q0 49 -45 75.5 q-45 26.5 -128 26.5 l-120 0 ZM311 100 q101 0 154.5 33 q53.5 33 53.5 94 q0 56 -53.5 86 q-53.5 30 -153.5 30 l-124 0 l0 -243 l123 0 Z" /><glyph glyph-name="C" unicode="C" d="M677 132 q-42 -71 -112.5 -111 q-70.5 -40 -159.5 -40 q-104 0 -184 51 q-80 51 -124 142.5 q-44 91.5 -44 210.5 q0 117 44.5 207.5 q44.5 90.5 125 140 q80.5 49.5 185.5 49.5 q89 0 158.5 -40.5 q69.5 -40.5 109.5 -110.5 l-95 -55 q-27 46 -75.5 72.5 q-48.5 26.5 -101.5 26.5 q-69 0 -122 -36.5 q-53 -36.5 -82.5 -102 q-29.5 -65.5 -29.5 -151.5 q0 -87 29.5 -155 q29.5 -68 82.5 -105.5 q53 -37.5 122 -37.5 q52 0 99 27 q47 27 79 74 l95 -56 Z" /><glyph glyph-name="D" unicode="D" d="M75 -5 l0 773 l254 0 q120 0 205.5 -47 q85.5 -47 130 -134 q44.5 -87 44.5 -206 q0 -119 -46.5 -206 q-46.5 -87 -136 -133.5 q-89.5 -46.5 -214.5 -46.5 l-237 0 ZM312 101 q135 0 207.5 73 q72.5 73 72.5 207 q0 135 -70 207.5 q-70 72.5 -202 72.5 l-132 0 l0 -560 l124 0 Z" /><glyph glyph-name="E" unicode="E" d="M188 342 l0 -242 l379 0 l0 -105 l-492 0 l0 773 l479 0 l0 -105 l-366 0 l0 -217 l346 0 l0 -104 l-346 0 Z" /><glyph glyph-name="F" unicode="F" d="M188 322 l0 -327 l-113 0 l0 773 l471 0 l0 -107 l-358 0 l0 -232 l332 0 l0 -107 l-332 0 Z" /><glyph glyph-name="G" unicode="G" d="M405 675 q-71 0 -124.5 -36 q-53.5 -36 -82.5 -102.5 q-29 -66.5 -29 -155.5 q0 -90 28 -156.5 q28 -66.5 80 -102 q52 -35.5 122 -35.5 q54 0 95.5 21 q41.5 21 77.5 61 l0 141 l-177 0 l0 106 l288 0 l0 -288 q-55 -72 -126.5 -109.5 q-71.5 -37.5 -157.5 -37.5 q-105 0 -183 49 q-78 49 -120.5 139.5 q-42.5 90.5 -42.5 211.5 q0 122 43 212.5 q43 90.5 122.5 139.5 q79.5 49 186.5 49 q88 0 157.5 -39.5 q69.5 -39.5 111.5 -108.5 l-90 -63 q-31 47 -79.5 75.5 q-48.5 28.5 -99.5 28.5 Z" /><glyph glyph-name="H" unicode="H" d="M558 447 l0 321 l113 0 l0 -773 l-113 0 l0 346 l-370 0 l0 -346 l-113 0 l0 773 l113 0 l0 -321 l370 0 Z" /><glyph glyph-name="I" unicode="I" d="M188 768 l0 -773 l-113 0 l0 773 l113 0 Z" /><glyph glyph-name="J" unicode="J" d="M227 -19 q-78 0 -130.5 42.5 q-52.5 42.5 -77.5 115.5 l105 48 q16 -49 42.5 -74.5 q26.5 -25.5 60.5 -25.5 q47 0 72.5 39.5 q25.5 39.5 25.5 112.5 l0 529 l114 0 l0 -543 q0 -118 -55 -181 q-55 -63 -157 -63 Z" /><glyph glyph-name="K" unicode="K" d="M677 -5 l-146 0 l-295 355 l-48 -48 l0 -307 l-113 0 l0 773 l113 0 l0 -321 l310 321 l156 0 l-338 -338 l361 -435 Z" /><glyph glyph-name="L" unicode="L" d="M188 768 l0 -668 l374 0 l0 -105 l-487 0 l0 773 l113 0 Z" /><glyph glyph-name="M" unicode="M" d="M186 -5 l-111 0 l0 773 l109 0 l265 -439 l6 0 l265 439 l108 0 l0 -773 l-111 0 l0 556 l-6 0 l-222 -369 l-74 0 l-223 368 l-6 0 l0 -555 Z" /><glyph glyph-name="N" unicode="N" d="M188 -5 l-113 0 l0 773 l110 0 l372 -565 l5 0 l0 565 l113 0 l0 -773 l-107 0 l-374 565 l-6 0 l0 -565 Z" /><glyph glyph-name="O" unicode="O" d="M399 -19 q-105 0 -183 49 q-78 49 -120.5 139.5 q-42.5 90.5 -42.5 211.5 q0 122 42.5 212.5 q42.5 90.5 120.5 139.5 q78 49 183 49 q106 0 184 -49 q78 -49 120 -139.5 q42 -90.5 42 -212.5 q0 -121 -42 -211.5 q-42 -90.5 -120.5 -139.5 q-78.5 -49 -183.5 -49 ZM399 87 q69 0 121 36 q52 36 80.5 102.5 q28.5 66.5 28.5 155.5 q0 89 -28.5 155.5 q-28.5 66.5 -80.5 102.5 q-52 36 -121 36 q-70 0 -122 -36 q-52 -36 -80 -102.5 q-28 -66.5 -28 -155.5 q0 -89 28 -155.5 q28 -66.5 80 -102.5 q52 -36 122 -36 Z" /><glyph glyph-name="P" unicode="P" d="M321 768 q140 0 217 -64.5 q77 -64.5 77 -181.5 q0 -116 -74.5 -180.5 q-74.5 -64.5 -210.5 -64.5 l-142 0 l0 -282 l-113 0 l0 773 l246 0 ZM308 382 q91 0 141 36.5 q50 36.5 50 103.5 q0 68 -50 104.5 q-50 36.5 -141 36.5 l-120 0 l0 -281 l120 0 Z" /><glyph glyph-name="Q" unicode="Q" d="M747 -26 l-87 -73 l-99 117 q-72 -37 -162 -37 q-106 0 -184 49 q-78 49 -120 139 q-42 90 -42 212 q0 122 42 212 q42 90 120 139 q78 49 184 49 q106 0 184 -49 q78 -49 120 -139 q42 -90 42 -212 q0 -92 -24.5 -166.5 q-24.5 -74.5 -70.5 -127.5 l97 -113 ZM399 87 q49 0 88 18 l-69 81 l85 74 l71 -83 q55 79 55 204 q0 89 -28.5 155.5 q-28.5 66.5 -80.5 102.5 q-52 36 -121 36 q-70 0 -122 -36 q-52 -36 -80 -102.5 q-28 -66.5 -28 -155.5 q0 -89 28 -155.5 q28 -66.5 80 -102.5 q52 -36 122 -36 Z" /><glyph glyph-name="R" unicode="R" d="M641 -5 l-133 0 l-175 309 l-12 0 l-133 0 l0 -309 l-113 0 l0 773 l236 0 q141 0 218 -61.5 q77 -61.5 77 -172.5 q0 -80 -41 -135 q-41 -55 -118 -78 l194 -326 ZM188 409 l111 0 q91 0 140.5 32.5 q49.5 32.5 49.5 92.5 q0 62 -49 95.5 q-49 33.5 -141 33.5 l-111 0 l0 -254 Z" /><glyph glyph-name="S" unicode="S" d="M312 -19 q-95 0 -170 44 q-75 44 -117 122 l98 53 q29 -56 78 -85 q49 -29 112 -29 q69 0 113 31.5 q44 31.5 44 81.5 q0 33 -17.5 56.5 q-17.5 23.5 -55 41.5 q-37.5 18 -104.5 37 q-77 22 -126.5 44 q-49.5 22 -84.5 66 q-35 44 -35 116 q0 64 34.5 114.5 q34.5 50.5 96 79 q61.5 28.5 139.5 28.5 q179 0 265 -151 l-93 -56 q-31 49 -75.5 75.5 q-44.5 26.5 -98.5 26.5 q-42 0 -77 -14.5 q-35 -14.5 -55.5 -39.5 q-20.5 -25 -20.5 -55 q0 -40 22 -65 q22 -25 58 -39.5 q36 -14.5 99 -31.5 q74 -20 125 -44 q51 -24 85.5 -69 q34.5 -45 34.5 -115 q0 -68 -34 -118.5 q-34 -50.5 -96 -77.5 q-62 -27 -144 -27 Z" /><glyph glyph-name="T" unicode="T" d="M369 -5 l-114 0 l0 666 l-231 0 l0 107 l575 0 l0 -107 l-230 0 l0 -666 Z" /><glyph glyph-name="U" unicode="U" d="M362 87 q80 0 126.5 53.5 q46.5 53.5 46.5 145.5 l0 482 l114 0 l0 -489 q0 -91 -35 -158.5 q-35 -67.5 -100 -103.5 q-65 -36 -152 -36 q-87 0 -152 36 q-65 36 -100 103.5 q-35 67.5 -35 158.5 l0 489 l113 0 l0 -478 q0 -93 47 -148 q47 -55 127 -55 Z" /><glyph glyph-name="V" unicode="V" d="M294 -5 l-282 773 l122 0 l215 -613 l6 0 l216 613 l122 0 l-282 -773 l-117 0 Z" /><glyph glyph-name="W" unicode="W" d="M219 -5 l-207 773 l119 0 l152 -585 l6 0 l160 585 l120 0 l164 -585 l5 0 l152 585 l119 0 l-209 -773 l-117 0 l-171 589 l-6 0 l-170 -589 l-117 0 Z" /><glyph glyph-name="X" unicode="X" d="M407 400 l260 -405 l-138 0 l-190 311 l-183 -311 l-139 0 l258 410 l-242 363 l137 0 l176 -273 l168 273 l136 0 l-243 -368 Z" /><glyph glyph-name="Y" unicode="Y" d="M278 304 l-266 464 l133 0 l187 -357 l5 0 l187 357 l134 0 l-266 -464 l0 -309 l-114 0 l0 309 Z" /><glyph glyph-name="Z" unicode="Z" d="M574 681 l-391 -580 l407 0 l0 -106 l-558 0 l0 86 l391 580 l-380 0 l0 107 l531 0 l0 -87 Z" /><glyph glyph-name="a" unicode="a" d="M215 -19 q-79 0 -126 42 q-47 42 -47 113 q0 89 70 135.5 q70 46.5 199 46.5 l70 0 l0 35 q0 51 -30.5 80.5 q-30.5 29.5 -81.5 29.5 q-66 0 -128 -59 l-68 64 q85 91 205 91 q97 0 154.5 -54 q57.5 -54 57.5 -144 l0 -366 l-109 0 l0 73 l-6 0 q-21 -40 -65 -63.5 q-44 -23.5 -95 -23.5 ZM241 76 q32 0 64.5 13 q32.5 13 54 40.5 q21.5 27.5 21.5 67.5 l0 26 l-53 0 q-89 0 -131.5 -19.5 q-42.5 -19.5 -42.5 -60.5 q0 -30 23.5 -48.5 q23.5 -18.5 63.5 -18.5 Z" /><glyph glyph-name="b" unicode="b" d="M68 -5 l0 773 l109 0 l0 -297 l5 0 q29 41 72 64 q43 23 92 23 q67 0 119 -35 q52 -35 81 -98.5 q29 -63.5 29 -145.5 q0 -87 -29 -155 q-29 -68 -81 -105.5 q-52 -37.5 -119 -37.5 q-52 0 -94 23 q-42 23 -70 65 l-5 0 l0 -74 l-109 0 ZM173 270 q0 -82 39.5 -133 q39.5 -51 101.5 -51 q66 0 107.5 51 q41.5 51 41.5 133 q0 53 -18.5 95 q-18.5 42 -51.5 65.5 q-33 23.5 -75 23.5 q-42 0 -75 -23.5 q-33 -23.5 -51.5 -65.5 q-18.5 -42 -18.5 -95 Z" /><glyph glyph-name="c" unicode="c" d="M308 -19 q-81 0 -141 35.5 q-60 35.5 -92.5 101 q-32.5 65.5 -32.5 152.5 q0 87 32.5 152.5 q32.5 65.5 92.5 100.5 q60 35 141 35 q64 0 121.5 -35.5 q57.5 -35.5 88.5 -94.5 l-93 -50 q-20 36 -53.5 56.5 q-33.5 20.5 -71.5 20.5 q-66 0 -106 -50.5 q-40 -50.5 -40 -134.5 q0 -84 40 -135.5 q40 -51.5 105 -51.5 q39 0 72.5 21 q33.5 21 53.5 57 l93 -50 q-31 -60 -88.5 -95 q-57.5 -35 -121.5 -35 Z" /><glyph glyph-name="d" unicode="d" d="M550 -5 l-109 0 l0 74 l-6 0 q-26 -42 -67 -65 q-41 -23 -92 -23 q-68 0 -121 37.5 q-53 37.5 -83 104.5 q-30 67 -30 153 q0 83 29.5 147.5 q29.5 64.5 82.5 100 q53 35.5 120 35.5 q49 0 90.5 -23.5 q41.5 -23.5 70.5 -65.5 l6 0 l0 298 l109 0 l0 -773 ZM444 270 q0 82 -40 133 q-40 51 -104 51 q-65 0 -105.5 -51 q-40.5 -51 -40.5 -133 q0 -54 19 -96 q19 -42 53 -65 q34 -23 77 -23 q63 0 102 51 q39 51 39 133 Z" /><glyph glyph-name="e" unicode="e" d="M538 314 q0 -47 -8 -80 l-375 0 q8 -74 47.5 -116 q39.5 -42 106.5 -42 q39 0 73 20.5 q34 20.5 57 58.5 l88 -49 q-33 -60 -88 -92.5 q-55 -32.5 -130 -32.5 q-82 0 -142 35 q-60 35 -92.5 99.5 q-32.5 64.5 -32.5 151.5 q0 89 31 155 q31 66 89 101.5 q58 35.5 136 35.5 q111 0 175.5 -66 q64.5 -66 64.5 -179 ZM427 328 q0 62 -35 99 q-35 37 -94 37 q-55 0 -91 -35.5 q-36 -35.5 -48 -100.5 l268 0 Z" /><glyph glyph-name="f" unicode="f" d="M294 694 q-37 0 -61 -22 q-24 -22 -24 -64 l0 -63 l144 0 l0 -103 l-144 0 l0 -447 l-110 0 l0 447 l-80 0 l0 103 l80 0 l0 68 q0 87 45.5 135 q45.5 48 125.5 48 q50 0 87 -14 l0 -101 q-34 13 -63 13 Z" /><glyph glyph-name="g" unicode="g" d="M298 -261 q-80 0 -143 34 q-63 34 -96 93 l92 51 q22 -38 62.5 -59.5 q40.5 -21.5 82.5 -21.5 q69 0 107 41.5 q38 41.5 38 117.5 l0 77 l-6 0 q-27 -42 -68 -65.5 q-41 -23.5 -91 -23.5 q-67 0 -120.5 37.5 q-53.5 37.5 -83.5 104.5 q-30 67 -30 152 q0 83 29.5 147 q29.5 64 82.5 99.5 q53 35.5 120 35.5 q48 0 90 -23.5 q42 -23.5 71 -65.5 l6 0 l0 74 l109 0 l0 -532 q0 -129 -66 -201 q-66 -72 -186 -72 ZM304 89 q63 0 101.5 50.5 q38.5 50.5 38.5 131.5 q0 81 -40 132 q-40 51 -104 51 q-65 0 -105.5 -51 q-40.5 -51 -40.5 -132 q0 -81 42 -131.5 q42 -50.5 108 -50.5 Z" /><glyph glyph-name="h" unicode="h" d="M68 -5 l0 773 l109 0 l0 -299 l5 0 q25 41 69.5 65.5 q44.5 24.5 94.5 24.5 q89 0 138.5 -55.5 q49.5 -55.5 49.5 -156.5 l0 -352 l-109 0 l0 332 q0 59 -32 94.5 q-32 35.5 -82 35.5 q-60 0 -97 -38.5 q-37 -38.5 -37 -102.5 l0 -321 l-109 0 Z" /><glyph glyph-name="i" unicode="i" d="M203 726 q0 -32 -19.5 -51 q-19.5 -19 -51.5 -19 q-31 0 -49.5 19 q-18.5 19 -18.5 51 q0 32 18.5 51 q18.5 19 49.5 19 q32 0 51.5 -19 q19.5 -19 19.5 -51 ZM188 545 l0 -550 l-109 0 l0 550 l109 0 Z" /><glyph glyph-name="j" unicode="j" d="M133 656 q-31 0 -49.5 19 q-18.5 19 -18.5 51 q0 32 18.5 51 q18.5 19 49.5 19 q32 0 51.5 -19 q19.5 -19 19.5 -51 q0 -32 -19.5 -51 q-19.5 -19 -51.5 -19 ZM26 -263 q-45 0 -84 13 l0 102 q24 -10 59 -10 q38 0 58.5 23 q20.5 23 20.5 67 l0 613 l109 0 l0 -634 q0 -84 -42 -129 q-42 -45 -121 -45 Z" /><glyph glyph-name="k" unicode="k" d="M540 -5 l-138 0 l-185 246 l-40 -39 l0 -207 l-109 0 l0 773 l109 0 l0 -428 l199 205 l150 0 l-234 -230 l248 -320 Z" /><glyph glyph-name="l" unicode="l" d="M68 768 l109 0 l0 -638 q0 -39 39 -39 l27 0 l0 -103 l-56 0 q-59 0 -89 28 q-30 28 -30 82 l0 670 Z" /><glyph glyph-name="m" unicode="m" d="M68 -5 l0 550 l109 0 l0 -75 l5 0 q25 42 65 65.5 q40 23.5 86 23.5 q51 0 88.5 -27 q37.5 -27 58.5 -77 l5 0 q28 50 73.5 77 q45.5 27 103.5 27 q84 0 131 -55.5 q47 -55.5 47 -155.5 l0 -353 l-109 0 l0 333 q0 59 -27.5 94.5 q-27.5 35.5 -73.5 35.5 q-56 0 -88.5 -38 q-32.5 -38 -32.5 -102 l0 -323 l-110 0 l0 333 q0 59 -27.5 94.5 q-27.5 35.5 -73.5 35.5 q-55 0 -88 -38 q-33 -38 -33 -102 l0 -323 l-109 0 Z" /><glyph glyph-name="n" unicode="n" d="M68 -5 l0 550 l109 0 l0 -76 l5 0 q25 41 69.5 65.5 q44.5 24.5 94.5 24.5 q89 0 138.5 -55.5 q49.5 -55.5 49.5 -156.5 l0 -352 l-109 0 l0 332 q0 59 -32 94.5 q-32 35.5 -82 35.5 q-60 0 -97 -38.5 q-37 -38.5 -37 -102.5 l0 -321 l-109 0 Z" /><glyph glyph-name="o" unicode="o" d="M298 -19 q-78 0 -136 35 q-58 35 -89 100.5 q-31 65.5 -31 153.5 q0 88 31 153 q31 65 89 100.5 q58 35.5 136 35.5 q77 0 135 -35.5 q58 -35.5 89.5 -100.5 q31.5 -65 31.5 -153 q0 -88 -31.5 -153.5 q-31.5 -65.5 -89.5 -100.5 q-58 -35 -135 -35 ZM298 83 q67 0 106 50.5 q39 50.5 39 136.5 q0 86 -39 136 q-39 50 -106 50 q-66 0 -105 -50 q-39 -50 -39 -136 q0 -86 39 -136.5 q39 -50.5 105 -50.5 Z" /><glyph glyph-name="p" unicode="p" d="M68 -247 l0 792 l109 0 l0 -75 l5 0 q29 42 72 65.5 q43 23.5 92 23.5 q67 0 119 -35.5 q52 -35.5 81 -99 q29 -63.5 29 -145.5 q0 -87 -29 -155 q-29 -68 -81 -105.5 q-52 -37.5 -119 -37.5 q-52 0 -94 23 q-42 23 -70 65 l-5 0 l0 -316 l-109 0 ZM173 270 q0 -82 39.5 -133 q39.5 -51 101.5 -51 q66 0 108 51 q42 51 42 133 q0 53 -18.5 95 q-18.5 42 -52 65.5 q-33.5 23.5 -75.5 23.5 q-42 0 -75 -23.5 q-33 -23.5 -51.5 -65.5 q-18.5 -42 -18.5 -95 Z" /><glyph glyph-name="q" unicode="q" d="M550 -249 l-109 0 l0 317 l-6 0 q-26 -41 -67 -64 q-41 -23 -92 -23 q-68 0 -121 37 q-53 37 -83 104 q-30 67 -30 153 q0 83 29.5 147.5 q29.5 64.5 82.5 100 q53 35.5 120 35.5 q49 0 90.5 -23 q41.5 -23 70.5 -65 l6 0 l0 75 l109 0 l0 -794 ZM444 269 q0 82 -40 133 q-40 51 -104 51 q-65 0 -105.5 -51 q-40.5 -51 -40.5 -133 q0 -54 19 -95.5 q19 -41.5 53 -65 q34 -23.5 77 -23.5 q63 0 102 51 q39 51 39 133 Z" /><glyph glyph-name="r" unicode="r" d="M70 -5 l-2 550 l112 0 l0 -103 l5 0 q32 56 84 86.5 q52 30.5 120 30.5 l6 0 l0 -113 l-9 0 q-98 0 -152 -42 q-54 -42 -54 -109 l0 -300 l-110 0 Z" /><glyph glyph-name="s" unicode="s" d="M257 -19 q-81 0 -139.5 35.5 q-58.5 35.5 -87.5 95.5 l92 47 q20 -39 55.5 -61 q35.5 -22 80.5 -22 q46 0 71.5 17.5 q25.5 17.5 25.5 47.5 q0 29 -26.5 47.5 q-26.5 18.5 -87.5 32.5 q-98 23 -147.5 62.5 q-49.5 39.5 -49.5 103.5 q0 79 56.5 125.5 q56.5 46.5 151.5 46.5 q73 0 128 -33 q55 -33 88 -92 l-88 -51 q-24 39 -57 60 q-33 21 -71 21 q-44 0 -70 -19 q-26 -19 -26 -50 q0 -28 29.5 -47.5 q29.5 -19.5 92.5 -33.5 q189 -42 189 -162 q0 -78 -57.5 -124.5 q-57.5 -46.5 -152.5 -46.5 Z" /><glyph glyph-name="t" unicode="t" d="M367 442 l-153 0 l0 -279 q0 -40 21.5 -62 q21.5 -22 60.5 -22 q28 0 59 11 l0 -102 q-38 -13 -83 -13 q-81 0 -124 45.5 q-43 45.5 -43 130.5 l0 291 l-86 0 l0 103 l86 0 l0 168 l109 0 l0 -168 l153 0 l0 -103 Z" /><glyph glyph-name="u" unicode="u" d="M529 545 l0 -550 l-109 0 l0 74 l-6 0 q-25 -40 -69.5 -64 q-44.5 -24 -94.5 -24 q-88 0 -138 55 q-50 55 -50 155 l0 354 l110 0 l0 -333 q0 -59 32 -95 q32 -36 82 -36 q60 0 97 38.5 q37 38.5 37 102.5 l0 323 l109 0 Z" /><glyph glyph-name="v" unicode="v" d="M215 -5 l-210 550 l119 0 l148 -417 l6 0 l147 417 l118 0 l-213 -550 l-115 0 Z" /><glyph glyph-name="w" unicode="w" d="M184 -5 l-179 550 l119 0 l117 -409 l5 0 l116 409 l115 0 l117 -409 l5 0 l116 409 l119 0 l-178 -550 l-116 0 l-118 408 l-5 0 l-117 -408 l-116 0 Z" /><glyph glyph-name="x" unicode="x" d="M334 274 l197 -279 l-132 0 l-129 197 l-130 -197 l-131 0 l201 285 l-187 265 l130 0 l124 -187 l117 187 l128 0 l-188 -271 Z" /><glyph glyph-name="y" unicode="y" d="M220 -5 l-215 550 l122 0 l153 -417 l6 0 l145 417 l122 0 l-308 -794 l-119 0 l94 244 Z" /><glyph glyph-name="z" unicode="z" d="M465 461 l-283 -370 l297 0 l0 -103 l-449 0 l0 84 l284 370 l-279 0 l0 103 l430 0 l0 -84 Z" /><glyph glyph-name="zero" unicode="0" d="M324 -19 q-128 0 -197.5 104 q-69.5 104 -69.5 296 q0 193 69.5 297 q69.5 104 197.5 104 q128 0 197.5 -104 q69.5 -104 69.5 -297 q0 -192 -69.5 -296 q-69.5 -104 -197.5 -104 ZM324 86 q72 0 111.5 76.5 q39.5 76.5 39.5 218.5 q0 142 -39.5 219 q-39.5 77 -111.5 77 q-72 0 -111.5 -77 q-39.5 -77 -39.5 -219 q0 -142 39.5 -218.5 q39.5 -76.5 111.5 -76.5 Z" /><glyph glyph-name="one" unicode="1" d="M319 -5 l-114 0 l0 643 l-157 -82 l0 119 l181 93 l90 0 l0 -773 Z" /><glyph glyph-name="two" unicode="2" d="M208 100 l328 0 l0 -105 l-489 0 l0 85 l234 263 q68 77 96 127 q28 50 28 94 q0 51 -33.5 82.5 q-33.5 31.5 -87.5 31.5 q-48 0 -85.5 -30 q-37.5 -30 -60.5 -85 l-98 44 q29 83 93.5 129 q64.5 46 153.5 46 q68 0 121.5 -27 q53.5 -27 83 -75.5 q29.5 -48.5 29.5 -112.5 q0 -61 -33.5 -126 q-33.5 -65 -109.5 -151 l-170 -190 Z" /><glyph glyph-name="three" unicode="3" d="M313 457 q8 1 25 1 q55 0 105.5 -27 q50.5 -27 81.5 -79 q31 -52 31 -125 q0 -74 -32 -129.5 q-32 -55.5 -90 -86 q-58 -30.5 -133 -30.5 q-88 0 -155.5 46.5 q-67.5 46.5 -98.5 129.5 l104 36 q42 -108 152 -108 q63 0 101 38.5 q38 38.5 38 103.5 q0 66 -39.5 104 q-39.5 38 -108.5 38 q-37 0 -75 -23 l-63 83 l212 234 l-296 0 l0 105 l444 0 l0 -95 l-205 -211 l2 -5 Z" /><glyph glyph-name="four" unicode="4" d="M486 263 l95 0 l0 -105 l-95 0 l0 -163 l-114 0 l0 163 l-345 0 l0 79 l298 531 l161 0 l0 -505 ZM372 642 l-212 -379 l212 0 l0 379 Z" /><glyph glyph-name="five" unicode="5" d="M323 479 q70 0 123.5 -30 q53.5 -30 83 -85.5 q29.5 -55.5 29.5 -128.5 q0 -77 -32 -134.5 q-32 -57.5 -89.5 -88.5 q-57.5 -31 -134.5 -31 q-94 0 -161.5 47.5 q-67.5 47.5 -94.5 125.5 l104 36 q19 -49 57.5 -77 q38.5 -28 94.5 -28 q65 0 103.5 39.5 q38.5 39.5 38.5 106.5 q0 67 -39.5 105.5 q-39.5 38.5 -105.5 38.5 q-40 0 -73 -17.5 q-33 -17.5 -57 -50.5 l-96 24 l31 437 l413 0 l0 -104 l-308 0 l-18 -224 q25 20 59.5 29.5 q34.5 9.5 71.5 9.5 Z" /><glyph glyph-name="six" unicode="6" d="M312 -19 q-76 0 -135.5 32.5 q-59.5 32.5 -93 91 q-33.5 58.5 -33.5 133.5 q0 68 21.5 131.5 q21.5 63.5 79.5 163.5 l137 235 l133 0 l-183 -305 l3 -3 q17 13 44 21 q27 8 58 8 q66 0 119 -31.5 q53 -31.5 83.5 -88 q30.5 -56.5 30.5 -129.5 q0 -76 -33.5 -135 q-33.5 -59 -93.5 -91.5 q-60 -32.5 -137 -32.5 ZM315 84 q64 0 104.5 43 q40.5 43 40.5 111 q0 65 -39.5 106.5 q-39.5 41.5 -101.5 41.5 q-67 0 -109.5 -41.5 q-42.5 -41.5 -42.5 -106.5 q0 -68 41.5 -111 q41.5 -43 106.5 -43 Z" /><glyph glyph-name="seven" unicode="7" d="M211 -5 l-126 0 l288 666 l-343 0 l-1 107 l477 0 l0 -78 l-295 -695 Z" /><glyph glyph-name="eight" unicode="8" d="M323 -19 q-77 0 -137.5 28.5 q-60.5 28.5 -94.5 79 q-34 50.5 -34 114.5 q0 69 42 125 q42 56 102 78 l0 3 q-47 17 -81.5 64.5 q-34.5 47.5 -34.5 104.5 q0 59 30.5 105.5 q30.5 46.5 84.5 72.5 q54 26 123 26 q69 0 123.5 -26 q54.5 -26 85 -72.5 q30.5 -46.5 30.5 -105.5 q0 -60 -34.5 -106.5 q-34.5 -46.5 -82.5 -62.5 l0 -3 q61 -23 103 -78.5 q42 -55.5 42 -124.5 q0 -64 -34 -114.5 q-34 -50.5 -94.5 -79 q-60.5 -28.5 -138.5 -28.5 ZM323 456 q54 0 89 30.5 q35 30.5 35 79.5 q0 50 -34.5 81 q-34.5 31 -89.5 31 q-55 0 -89.5 -31 q-34.5 -31 -34.5 -81 q0 -48 35 -79 q35 -31 89 -31 ZM323 84 q66 0 108 37.5 q42 37.5 42 97.5 q0 60 -42 97.5 q-42 37.5 -108 37.5 q-65 0 -107.5 -37.5 q-42.5 -37.5 -42.5 -97.5 q0 -60 42 -97.5 q42 -37.5 108 -37.5 Z" /><glyph glyph-name="nine" unicode="9" d="M199 -5 l183 305 l-3 2 q-18 -13 -45 -21 q-27 -8 -58 -8 q-65 0 -118 32.5 q-53 32.5 -83.5 89.5 q-30.5 57 -30.5 128 q0 75 34 134 q34 59 94 92 q60 33 136 33 q76 0 135 -32.5 q59 -32.5 92.5 -91 q33.5 -58.5 33.5 -132.5 q0 -69 -21.5 -133.5 q-21.5 -64.5 -78.5 -163.5 l-136 -234 l-134 0 ZM301 377 q66 0 109 41.5 q43 41.5 43 107.5 q0 67 -41.5 109.5 q-41.5 42.5 -106.5 42.5 q-63 0 -104 -42.5 q-41 -42.5 -41 -109.5 q0 -66 39.5 -107.5 q39.5 -41.5 101.5 -41.5 Z" /><glyph glyph-name="period" unicode="." d="M68 -5 l0 130 l130 0 l0 -130 l-130 0 Z" /><glyph glyph-name="comma" unicode="," d="M63 -133 q47 22 67.5 51.5 q20.5 29.5 20.5 76.5 l-72 0 l0 130 l130 0 l0 -130 q0 -59 -27 -103.5 q-27 -44.5 -89 -75.5 l-30 51 Z" /><glyph glyph-name="colon" unicode=":" d="M198 418 l-130 0 l0 130 l130 0 l0 -130 ZM198 -5 l-130 0 l0 130 l130 0 l0 -130 Z" /><glyph glyph-name="semicolon" unicode=";" d="M209 418 l-130 0 l0 130 l130 0 l0 -130 ZM63 -133 q47 22 67.5 51.5 q20.5 29.5 20.5 76.5 l-72 0 l0 130 l130 0 l0 -130 q0 -59 -27 -103.5 q-27 -44.5 -89 -75.5 l-30 51 Z" /><glyph glyph-name="exclam" unicode="!" d="M192 230 l-95 0 l-18 538 l131 0 l-18 -538 ZM210 -5 l-130 0 l0 130 l130 0 l0 -130 Z" /><glyph glyph-name="question" unicode="?" d="M200 295 q-2 40 10 71 q12 31 29.5 52.5 q17.5 21.5 47.5 49.5 q36 34 53.5 59 q17.5 25 17.5 60 q0 37 -28 63 q-28 26 -78 26 q-45 0 -79 -27 q-34 -27 -52 -74 l-99 48 q30 74 91 116.5 q61 42.5 145 42.5 q65 0 114 -24.5 q49 -24.5 74.5 -65.5 q25.5 -41 25.5 -91 q0 -46 -13.5 -79.5 q-13.5 -33.5 -32.5 -55 q-19 -21.5 -50 -50.5 q-36 -32 -53.5 -56 q-17.5 -24 -19.5 -59 l-3 -71 l-96 0 l-4 65 ZM317 -5 l-130 0 l0 130 l130 0 l0 -130 Z" /><glyph glyph-name="asterisk" unicode="*" d="M341 725 l42 -73 l-101 -42 l101 -43 l-42 -74 l-88 67 l13 -110 l-84 0 l14 110 l-89 -67 l-41 74 l101 43 l-101 42 l41 73 l89 -67 l-14 110 l84 0 l-13 -109 l88 66 Z" /><glyph glyph-name="numbersign" unicode="#" d="M666 555 l0 -89 l-128 0 l-33 -167 l129 0 l0 -89 l-147 0 l-43 -215 l-95 0 l43 215 l-145 0 l-43 -215 l-95 0 l43 215 l-110 0 l0 89 l128 0 l33 167 l-129 0 l0 89 l147 0 l43 213 l95 0 l-43 -213 l145 0 l43 213 l95 0 l-43 -213 l110 0 ZM265 299 l145 0 l33 167 l-145 0 l-33 -167 Z" /><glyph glyph-name="slash" unicode="/" d="M273 768 l110 0 l-236 -773 l-110 0 l236 773 Z" /><glyph glyph-name="backslash" unicode="\" d="M243 -5 l-236 773 l110 0 l236 -773 l-110 0 Z" /><glyph glyph-name="parenleft" unicode="(" d="M195 -60 q-57 97 -89 217.5 q-32 120.5 -32 232.5 q0 113 32 233 q32 120 89 217 l106 0 q-58 -101 -89.5 -220.5 q-31.5 -119.5 -31.5 -229.5 q0 -108 32 -228 q32 -120 89 -222 l-106 0 Z" /><glyph glyph-name="parenright" unicode=")" d="M31 -60 q58 101 89.5 221 q31.5 120 31.5 229 q0 110 -31.5 229.5 q-31.5 119.5 -89.5 220.5 l106 0 q58 -97 89.5 -216.5 q31.5 -119.5 31.5 -233.5 q0 -113 -31.5 -233 q-31.5 -120 -89.5 -217 l-106 0 Z" /><glyph glyph-name="braceleft" unicode="{" d="M348 -60 q-108 0 -157.5 45.5 q-49.5 45.5 -49.5 143.5 l0 89 q0 67 -28 94 q-28 27 -93 27 l0 100 q65 0 93 28 q28 28 28 94 l0 91 q0 98 49.5 143 q49.5 45 157.5 45 l0 -97 q-55 0 -80 -23 q-25 -23 -25 -75 l0 -94 q0 -68 -21 -104 q-21 -36 -69 -55 l0 -6 q48 -20 69 -55.5 q21 -35.5 21 -103.5 l0 -91 q0 -52 25.5 -75.5 q25.5 -23.5 79.5 -23.5 l0 -97 Z" /><glyph glyph-name="braceright" unicode="}" d="M20 37 q54 0 79.5 23.5 q25.5 23.5 25.5 75.5 l0 91 q0 68 21.5 103.5 q21.5 35.5 69.5 55.5 l0 6 q-48 19 -69.5 55 q-21.5 36 -21.5 104 l0 94 q0 52 -25 75 q-25 23 -80 23 l0 97 q109 0 158.5 -45 q49.5 -45 49.5 -143 l0 -91 q0 -66 27.5 -94 q27.5 -28 92.5 -28 l0 -100 q-65 0 -92.5 -27 q-27.5 -27 -27.5 -94 l0 -89 q0 -98 -49.5 -143.5 q-49.5 -45.5 -158.5 -45.5 l0 97 Z" /><glyph glyph-name="bracketleft" unicode="[" d="M106 840 l241 0 l0 -95 l-135 0 l0 -710 l135 0 l0 -95 l-241 0 l0 900 Z" /><glyph glyph-name="bracketright" unicode="]" d="M12 745 l0 95 l241 0 l0 -900 l-241 0 l0 95 l135 0 l0 710 l-135 0 Z" /><glyph glyph-name="hyphen" unicode="-" d="M40 441 l320 0 l0 -102 l-320 0 l0 102 Z" /><glyph glyph-name="underscore" unicode="_" d="M0 -72 l464 0 l0 -100 l-464 0 l0 100 Z" /><glyph glyph-name="quotedbl" unicode="&quot;" d="M141 578 l-72 0 l-24 277 l120 0 l-24 -277 ZM306 578 l-73 0 l-23 277 l121 0 l-25 -277 Z" /><glyph glyph-name="quotesingle" unicode="&#39;" d="M137 577 l-71 0 l-24 277 l120 0 l-25 -277 Z" /><glyph glyph-name="dollar" unicode="$" d="M566 213 q0 -86 -55 -143 q-55 -57 -150 -73 l0 -83 l-111 0 l0 81 q-73 10 -132.5 49.5 q-59.5 39.5 -92.5 100.5 l90 54 q21 -39 56.5 -64.5 q35.5 -25.5 78.5 -34.5 l0 240 q-62 19 -105.5 42 q-43.5 23 -72.5 63.5 q-29 40.5 -29 104.5 q0 82 57 140 q57 58 150 72 l0 92 l111 0 l0 -93 q129 -22 196 -141 l-89 -54 q-41 66 -107 87 l0 -234 q62 -17 105.5 -39.5 q43.5 -22.5 71.5 -63 q28 -40.5 28 -103.5 ZM156 556 q0 -39 23.5 -63 q23.5 -24 70.5 -41 l0 204 q-43 -11 -68.5 -37.5 q-25.5 -26.5 -25.5 -62.5 ZM361 104 q43 12 67 38.5 q24 26.5 24 64.5 q0 36 -22.5 59 q-22.5 23 -68.5 41 l0 -203 Z" /><glyph glyph-name="plus" unicode="+" d="M367 436 l183 0 l0 -101 l-183 0 l0 -187 l-109 0 l0 187 l-183 0 l0 101 l183 0 l0 185 l109 0 l0 -185 Z" /><glyph glyph-name="equal" unicode="=" d="M550 450 l-475 0 l0 102 l475 0 l0 -102 ZM550 218 l-475 0 l0 101 l475 0 l0 -101 Z" /><glyph glyph-name="greater" unicode="&gt;" d="M76 683 l473 -253 l0 -91 l-473 -253 l0 118 l352 181 l-352 180 l0 118 Z" /><glyph glyph-name="less" unicode="&lt;" d="M76 339 l0 91 l473 253 l0 -118 l-352 -180 l352 -181 l0 -118 l-473 253 Z" /><glyph glyph-name="approxequal" unicode="&#x2248;" d="M64 460 q26 47 65 76 q39 29 83 29 q24 -1 45 -8.5 q21 -7.5 54 -23.5 q27 -14 45.5 -21 q18.5 -7 38.5 -8 q47 0 81 58 l69 -57 q-21 -45 -63 -76.5 q-42 -31.5 -85 -31.5 q-23 0 -45.5 8 q-22.5 8 -52.5 24 q-31 15 -48.5 21.5 q-17.5 6.5 -35.5 7.5 q-26 0 -45.5 -12.5 q-19.5 -12.5 -38.5 -45.5 l-67 60 ZM81 273 q26 47 64.5 75.5 q38.5 28.5 82.5 28.5 q25 -1 47 -8.5 q22 -7.5 54 -23.5 q28 -14 45.5 -21 q17.5 -7 36.5 -8 q24 0 45 15 q21 15 37 44 l68 -57 q-21 -45 -63 -76.5 q-42 -31.5 -85 -31.5 q-23 0 -45 8 q-22 8 -54 24 q-29 14 -46.5 21 q-17.5 7 -36.5 8 q-26 0 -45 -12.5 q-19 -12.5 -38 -46.5 l-67 61 Z" /><glyph glyph-name="asciitilde" unicode="~" d="M38 349 q25 57 64.5 90 q39.5 33 87.5 33 q23 -1 44 -9 q21 -8 48 -24 q28 -15 45 -22 q17 -7 37 -8 q46 0 77 66 l82 -42 q-21 -58 -63.5 -94 q-42.5 -36 -94.5 -36 q-23 0 -45 8.5 q-22 8.5 -51 25.5 q-27 15 -43 21.5 q-16 6.5 -33 7.5 q-23 0 -41 -14.5 q-18 -14.5 -33 -49.5 l-81 47 Z" /><glyph glyph-name="asciicircum" unicode="^" d="M284 821 l154 -273 l-101 0 l-107 183 l-106 -183 l-101 0 l154 273 l107 0 Z" /><glyph glyph-name="percent" unicode="%" d="M195 413 q-52 0 -93 22.5 q-41 22.5 -64 62.5 q-23 40 -23 91 q0 52 23 92.5 q23 40.5 64 63.5 q41 23 93 23 q51 0 91.5 -23 q40.5 -23 63 -63.5 q22.5 -40.5 22.5 -92.5 q0 -51 -22.5 -91 q-22.5 -40 -63 -62.5 q-40.5 -22.5 -91.5 -22.5 ZM210 -5 l-117 0 l547 773 l117 0 l-547 -773 ZM195 493 q40 0 66 27 q26 27 26 69 q0 43 -26 70 q-26 27 -66 27 q-41 0 -67.5 -27 q-26.5 -27 -26.5 -70 q0 -42 26.5 -69 q26.5 -27 67.5 -27 ZM656 -5 q-52 0 -92.5 22.5 q-40.5 22.5 -63.5 63 q-23 40.5 -23 91.5 q0 51 23 91.5 q23 40.5 63.5 63.5 q40.5 23 92.5 23 q51 0 92 -23 q41 -23 64 -63.5 q23 -40.5 23 -91.5 q0 -51 -23 -91.5 q-23 -40.5 -64 -63 q-41 -22.5 -92 -22.5 ZM656 76 q41 0 67.5 26.5 q26.5 26.5 26.5 69.5 q0 43 -26.5 69.5 q-26.5 26.5 -67.5 26.5 q-41 0 -67 -26.5 q-26 -26.5 -26 -69.5 q0 -43 26 -69.5 q26 -26.5 67 -26.5 Z" /><glyph glyph-name="at" unicode="@" d="M35 372 q0 119 51 212.5 q51 93.5 142 145.5 q91 52 207 52 q110 0 196 -47 q86 -47 134 -130.5 q48 -83.5 48 -190.5 q0 -65 -19.5 -115 q-19.5 -50 -54.5 -77.5 q-35 -27.5 -80 -27.5 q-40 0 -68.5 22 q-28.5 22 -40.5 62 l-6 0 q-18 -43 -54 -66 q-36 -23 -85 -23 q-50 0 -91 24.5 q-41 24.5 -64.5 68.5 q-23.5 44 -23.5 99 q0 57 23.5 102.5 q23.5 45.5 64.5 71 q41 25.5 91 25.5 q42 0 77 -21 q35 -21 53 -54 l5 0 l0 59 l78 0 l0 -224 q0 -31 12 -48.5 q12 -17.5 34 -17.5 q28 0 46 37.5 q18 37.5 18 99.5 q0 84 -37.5 150 q-37.5 66 -104 103 q-66.5 37 -151.5 37 q-91 0 -162.5 -42 q-71.5 -42 -111.5 -117 q-40 -75 -40 -170 q0 -90 40 -161 q40 -71 111.5 -110.5 q71.5 -39.5 161.5 -39.5 q48 0 99.5 14.5 q51.5 14.5 92.5 39.5 l34 -72 q-46 -29 -106.5 -45.5 q-60.5 -16.5 -118.5 -16.5 q-116 0 -207 50 q-91 50 -142 139 q-51 89 -51 202 ZM324 381 q0 -46 27.5 -75 q27.5 -29 71.5 -29 q46 0 74.5 29 q28.5 29 28.5 75 q0 49 -28.5 80 q-28.5 31 -74.5 31 q-44 0 -71.5 -31 q-27.5 -31 -27.5 -80 Z" /><glyph glyph-name="ampersand" unicode="&amp;" d="M724 -5 l-146 0 l-65 73 q-50 -42 -108.5 -64.5 q-58.5 -22.5 -121.5 -22.5 q-69 0 -124 28 q-55 28 -86 77.5 q-31 49.5 -31 110.5 q0 84 43 135.5 q43 51.5 118 87.5 q-35 43 -52 81 q-17 38 -17 82 q0 58 27 103 q27 45 75.5 70.5 q48.5 25.5 110.5 25.5 q56 0 100 -23.5 q44 -23.5 69 -64.5 q25 -41 25 -94 q0 -80 -44 -127 q-44 -47 -123 -84 l141 -159 q42 70 62 146 l103 -32 q-28 -111 -92 -196 l136 -153 ZM247 582 q0 -30 13 -54 q13 -24 45 -62 q60 28 91.5 56.5 q31.5 28.5 31.5 72.5 q0 36 -24 61.5 q-24 25.5 -60 25.5 q-42 0 -69.5 -29 q-27.5 -29 -27.5 -71 ZM289 81 q83 0 156 65 l-174 196 q-57 -28 -87 -59 q-30 -31 -30 -79 q0 -52 38.5 -87.5 q38.5 -35.5 96.5 -35.5 Z" /><glyph glyph-name="bar" unicode="|" d="M68 840 l106 0 l0 -900 l-106 0 l0 900 Z" /><glyph glyph-name="grave" unicode="`" d="M42 736 l86 72 l114 -169 l-54 -45 l-146 142 Z" /></font>
</defs>
</svg>
